<svg version="1.1" id="Layer_1" xmlns="http://www.w3.org/2000/svg" xmlns:xlink="http://www.w3.org/1999/xlink" x="0px" y="0px"
	 width="100%" viewBox="0 0 1254 1254" enable-background="new 0 0 1254 1254" xml:space="preserve">
<path fill="#000000" opacity="1.000000" stroke="none" 
	d="
M851.000000,1255.000000 
	C567.333313,1255.000000 284.166656,1255.000000 1.000000,1255.000000 
	C1.000000,837.000000 1.000000,419.000000 1.000000,1.000000 
	C419.000000,1.000000 837.000000,1.000000 1255.000000,1.000000 
	C1255.000000,419.000000 1255.000000,837.000000 1255.000000,1255.000000 
	C1120.500000,1255.000000 986.000000,1255.000000 851.000000,1255.000000 
M666.103516,744.866760 
	C661.171814,745.505920 656.213501,745.989319 651.315002,746.823242 
	C644.973450,747.902771 641.211792,753.374390 641.984131,759.976624 
	C642.621155,765.422607 647.175537,769.578430 653.136658,768.984619 
	C661.831055,768.118713 670.449646,766.490906 679.942200,765.178284 
	C685.625366,763.762146 691.308533,762.346008 697.771790,760.931702 
	C706.181274,757.949768 714.590698,754.967834 723.735535,751.901733 
	C736.506226,745.273987 749.276917,738.646240 762.718567,731.861145 
	C773.127869,723.960327 783.537109,716.059448 794.485596,707.970581 
	C794.638062,707.649414 794.790466,707.328308 795.170105,706.597473 
	C795.170105,706.597473 795.278015,706.141663 795.971619,706.169373 
	C805.272644,696.437744 814.573669,686.706116 824.218323,676.671692 
	C824.218323,676.671692 824.323608,676.225830 824.367371,676.221436 
	C824.367371,676.221436 824.394470,676.257568 824.939819,675.903137 
	C836.295776,661.662354 846.383423,646.621094 854.344788,629.424072 
	C856.867859,623.883240 859.898438,618.510742 861.803467,612.764954 
	C865.267395,602.317383 868.062500,591.648010 871.703674,580.894897 
	C872.453613,578.453979 873.391541,576.053406 873.925232,573.566101 
	C882.093079,535.501343 881.251282,497.562897 872.267395,459.738098 
	C871.145203,455.013153 868.261108,452.129944 863.646423,451.105072 
	C854.829773,449.146912 847.952515,456.289032 850.061096,465.393036 
	C854.550415,484.775726 857.317810,504.383484 856.519714,524.272400 
	C856.000488,537.211365 854.244995,550.100708 852.641724,563.652527 
	C849.151917,582.548767 842.617615,600.448059 834.337952,618.382874 
	C826.481018,631.401733 818.624023,644.420654 810.180420,657.816101 
	C807.501526,661.088745 804.996704,664.524719 802.109680,667.602173 
	C794.796875,675.397461 787.312500,683.031799 779.282898,691.030762 
	C768.536377,699.063477 757.789856,707.096252 746.357483,715.252380 
	C735.559570,720.812317 724.761658,726.372253 713.188232,731.906799 
	C709.616150,733.146118 706.034607,734.358826 702.474304,735.631165 
	C697.597351,737.374146 692.736511,739.162292 687.014465,740.961060 
	C680.336609,742.288513 673.658691,743.615906 666.103516,744.866760 
M555.550598,303.897186 
	C556.056458,303.646820 556.562317,303.396423 557.769226,303.148682 
	C558.193970,302.966248 558.618774,302.783813 559.781250,302.579559 
	C571.191833,299.949005 582.602356,297.318481 594.835205,294.778778 
	C605.234009,293.878296 615.632874,292.977814 626.938293,292.236420 
	C639.294312,293.124146 651.650269,294.011902 664.758362,295.151062 
	C671.817810,296.482880 678.877258,297.814667 686.528503,299.552887 
	C704.618896,304.421844 721.893555,311.315826 738.392883,320.204102 
	C745.329285,323.940735 752.373047,322.224121 755.297302,316.397339 
	C758.294434,310.425018 755.765320,303.998810 748.915039,300.233582 
	C731.912415,290.888184 714.062622,283.620422 695.334534,278.550751 
	C693.640076,278.092041 691.781738,278.238556 689.378723,277.714478 
	C688.872131,277.314056 688.403442,276.628296 687.853394,276.555267 
	C676.241089,275.013550 664.619629,273.540863 652.280396,271.877289 
	C651.542664,271.905060 650.804993,271.932861 649.805054,271.745544 
	C649.602417,271.662201 649.396179,271.588684 648.626282,270.831085 
	C638.424927,270.630371 628.223572,270.429657 617.111450,270.088318 
	C607.078247,271.148804 597.045044,272.209259 586.178223,273.179474 
	C574.949219,275.807983 563.713074,278.407288 552.503479,281.116058 
	C551.522949,281.352997 550.716125,282.308777 549.012329,282.949036 
	C540.010986,286.319458 531.009583,289.689911 521.293335,293.136627 
	C511.443237,298.725983 501.593140,304.315338 491.095184,310.101746 
	C483.676697,315.603912 476.258179,321.106079 468.193542,326.866455 
	C457.055237,338.069885 445.916931,349.273315 434.201843,360.854370 
	C421.178955,376.348541 410.612305,393.413757 401.936127,411.658051 
	C400.040100,415.644958 398.667633,419.880829 396.754547,424.640015 
	C396.137054,425.600555 395.342316,426.490479 394.927551,427.531708 
	C377.526642,471.220001 372.271149,516.359558 380.410004,562.655334 
	C389.665222,615.301208 413.286957,660.864685 451.658630,698.191101 
	C463.347107,709.561157 476.995087,718.916870 489.794220,729.174255 
	C489.794220,729.174255 489.790283,729.122375 490.004883,729.643188 
	C490.340240,729.779968 490.675629,729.916748 491.541901,730.448486 
	C501.204193,735.851746 510.753479,741.472778 520.574768,746.569763 
	C525.768005,749.265015 531.434570,751.048157 537.405212,753.701782 
	C558.091309,761.834045 579.422974,767.293213 601.640137,768.888306 
	C608.710754,769.395874 613.415344,765.617310 614.068848,759.510132 
	C614.762512,753.027405 610.028625,747.418274 603.090576,746.457153 
	C597.321899,745.658081 591.532654,744.969177 585.797729,743.971313 
	C563.051758,740.013550 541.704773,731.922913 520.633789,721.304932 
	C511.653351,715.662415 502.206024,710.631775 493.809662,704.223938 
	C483.101471,696.051819 473.242584,686.766724 462.728180,677.362854 
	C453.724243,665.851929 443.734772,654.972168 435.888153,642.720032 
	C403.202911,591.683350 392.772339,536.076172 403.975220,476.513123 
	C407.744293,456.473694 414.856476,437.490234 423.786285,418.542847 
	C431.463470,406.148193 439.150391,393.759552 446.798492,381.346985 
	C447.382355,380.399384 447.691284,379.282410 448.687012,378.123383 
	C449.171173,377.610535 449.655365,377.097687 450.714813,376.234222 
	C451.232422,375.518921 451.750000,374.803589 452.833649,373.764008 
	C462.297485,364.199707 471.761322,354.635406 481.840668,344.849731 
	C482.948334,343.883331 483.981567,342.811615 485.175720,341.967560 
	C493.182587,336.307892 501.223663,330.696686 509.855988,324.757080 
	C518.585022,320.207916 527.314026,315.658722 536.786438,311.012848 
	C542.849365,308.637177 548.912231,306.261505 555.550598,303.897186 
M684.003174,611.943787 
	C684.003174,611.943787 683.970581,611.770142 684.473206,611.372131 
	C691.089722,602.514771 697.706238,593.657410 704.839233,584.284668 
	C709.199707,578.508118 713.560181,572.731567 718.388245,566.601990 
	C718.680847,566.103027 718.973511,565.604126 719.689453,564.926147 
	C719.944153,564.712402 720.061707,564.439575 720.571777,563.749451 
	C721.164795,562.870361 721.757751,561.991211 722.746155,560.940552 
	C722.979858,560.733398 723.082031,560.474426 723.608215,559.775818 
	C729.050049,552.506714 734.491821,545.237549 740.472107,537.573914 
	C746.745972,528.949158 753.019897,520.324463 759.901428,511.296967 
	C763.966370,505.622375 768.031311,499.947784 772.724182,494.068298 
	C773.544495,493.086151 774.364807,492.103973 775.131531,491.113373 
	C775.131531,491.113373 775.175232,491.153778 775.746887,490.806061 
	C780.858093,483.615631 785.969360,476.425201 791.699585,468.906036 
	C802.962585,454.364075 814.326904,439.899078 825.448975,425.250061 
	C831.707214,417.007233 834.747314,407.423676 833.652100,397.167847 
	C831.714233,379.021362 822.062622,366.012573 804.776123,359.975952 
	C787.056458,353.788055 771.017456,357.813538 757.415527,370.852173 
	C749.601501,378.342590 745.955627,388.235504 741.809204,398.323853 
	C741.809204,398.323853 741.815002,398.770996 741.993408,398.928894 
	C741.993408,398.928894 741.785217,398.816650 741.329895,399.216156 
	C741.174744,399.792358 741.019592,400.368561 740.388611,401.409576 
	C739.916443,402.604584 739.444275,403.799591 738.755920,405.691650 
	C735.530212,412.909058 732.304443,420.126465 728.710083,427.733948 
	C725.900940,434.380341 723.091736,441.026703 719.827698,448.145813 
	C715.188599,459.095917 710.549500,470.046021 705.448608,481.512878 
	C700.673340,492.747253 695.898071,503.981659 690.754639,515.639465 
	C685.817749,527.087219 680.880859,538.534973 675.420227,550.439392 
	C670.262878,562.620300 665.105530,574.801208 659.419861,587.433899 
	C655.544678,596.467529 651.669556,605.501160 647.268127,615.035583 
	C643.383606,623.937195 639.499146,632.838867 635.615845,641.737671 
	C642.384216,644.575500 648.563782,647.166504 655.427673,650.044373 
	C658.534119,645.758057 661.903137,641.109558 665.819702,636.043640 
	C671.549805,628.361816 677.279907,620.679993 683.406616,612.769165 
	C683.655762,612.563232 683.796814,612.299500 684.003174,611.943787 
M585.044617,505.265472 
	C581.954041,510.680115 578.863464,516.094788 575.230347,521.984375 
	C572.755981,527.960632 570.281616,533.936890 567.348389,540.486938 
	C563.257568,553.372070 562.439331,566.497070 564.558655,579.815063 
	C568.237610,602.933472 578.680542,623.208435 591.121033,642.621826 
	C593.229980,645.912903 595.585632,649.045837 597.666382,652.021606 
	C602.547729,649.399353 606.774353,647.128784 611.769043,644.814636 
	C614.771423,643.992249 617.773865,643.169922 620.929688,642.305542 
	C616.591736,622.019836 612.306396,601.980103 608.070801,581.098572 
	C607.726440,579.355225 606.943542,577.568054 607.112366,575.875916 
	C607.908569,567.895813 608.965515,559.941772 610.292114,551.339905 
	C613.566345,543.910461 616.840515,536.480957 620.642456,528.634644 
	C625.419312,520.086365 630.196167,511.538055 635.280334,502.337311 
	C637.496399,495.885468 639.712524,489.433624 642.203674,482.262634 
	C644.764465,468.816620 644.972717,455.416870 641.495300,442.072327 
	C635.843079,420.382111 623.691528,403.331177 604.651001,390.351562 
	C598.167786,387.346405 591.684631,384.341278 584.612854,380.953186 
	C577.074951,379.625000 569.536987,378.296814 561.111145,376.807800 
	C558.409607,376.845093 555.708130,376.882385 552.499146,376.815765 
	C552.333618,376.864990 552.168152,376.914246 551.103699,376.879822 
	C544.727722,377.910095 538.351746,378.940369 531.188416,379.945404 
	C523.014099,383.294983 514.839844,386.644562 505.941345,390.201355 
	C498.229614,396.428711 490.517853,402.656067 482.230865,409.212036 
	C477.426453,416.448730 472.622009,423.685394 467.227905,431.306671 
	C458.657440,451.252167 455.053955,471.666992 460.982910,493.845856 
	C471.442688,490.252350 481.287567,486.870087 491.918701,483.371399 
	C494.764343,482.494476 497.697021,481.817810 500.411102,480.638153 
	C501.439178,480.191284 502.749146,478.456696 502.597626,477.526154 
	C500.694672,465.840118 503.974609,455.258728 509.596710,444.595612 
	C515.096313,439.077301 520.595886,433.559021 526.791626,427.903687 
	C532.867249,425.577637 538.942871,423.251587 545.881226,420.960388 
	C554.436584,419.395203 562.740540,420.860138 571.496704,423.501617 
	C573.282959,424.385681 575.121887,425.177826 576.847168,426.168152 
	C592.230774,434.998413 599.344788,449.191772 599.590027,466.048767 
	C599.709717,474.276550 595.497192,482.567383 592.859497,491.316742 
	C590.399719,495.793427 587.939941,500.270142 585.044617,505.265472 
M612.036316,662.989075 
	C595.509644,672.416809 590.007141,692.805664 599.748291,708.520935 
	C609.591553,724.400879 630.088623,729.191162 646.007324,719.017517 
	C661.285034,708.440796 665.525452,689.999329 656.173462,674.805298 
	C646.874023,659.696655 627.778320,654.455994 612.036316,662.989075 
M479.651123,912.747742 
	C484.373199,919.231201 490.624146,923.386230 498.524109,924.869324 
	C513.050720,927.596558 526.259583,924.919006 537.962036,913.867615 
	C543.636902,927.073425 554.283630,923.888367 565.105530,923.542175 
	C559.911316,917.521362 555.421326,912.033081 550.604065,906.848816 
	C548.076782,904.129028 547.764954,902.022400 549.705261,898.649231 
	C554.097839,891.013000 557.179871,882.805603 558.362244,873.250916 
	C555.332825,873.250916 552.836731,873.541626 550.434448,873.190552 
	C545.429382,872.458923 542.882080,874.188354 541.850891,879.356628 
	C541.045044,883.395203 538.987366,887.184082 537.227600,891.755188 
	C530.854675,884.572266 525.253723,878.259460 520.523438,872.927917 
	C526.469971,866.836609 532.980957,861.888855 537.155334,855.430664 
	C541.784363,848.269043 540.442932,839.953430 535.550293,832.790527 
	C528.165283,821.978699 509.468262,818.738586 497.192383,826.845886 
	C493.058319,829.575989 489.311707,834.316406 487.565338,838.957397 
	C483.248169,850.429993 488.986755,859.841797 496.397095,868.204895 
	C474.851990,884.058899 470.045380,896.633057 479.651123,912.747742 
M677.479431,914.900696 
	C670.863342,904.393188 664.247253,893.885681 658.204651,884.289062 
	C663.709595,880.093567 669.812317,877.084778 673.603027,872.259644 
	C687.521484,854.543091 675.901184,827.393372 653.094177,825.176758 
	C638.606628,823.768616 623.871033,824.913513 609.099060,824.913513 
	C609.099060,857.426819 609.099060,890.460327 609.099060,923.367554 
	C614.853699,923.367554 620.264404,923.367554 626.163025,923.367554 
	C626.163025,910.399536 626.163025,897.840210 626.163025,885.067871 
	C628.818237,885.067871 631.014893,885.354614 633.107971,885.010742 
	C638.134705,884.184937 640.708801,886.452026 643.121277,890.759338 
	C648.883423,901.047180 655.252625,910.998474 661.523376,920.993652 
	C662.286255,922.209534 663.912720,923.584351 665.201111,923.649170 
	C670.918945,923.936829 676.659424,923.773804 683.251282,923.773804 
	C681.102295,920.436035 679.506836,917.958069 677.479431,914.900696 
M273.236786,912.446106 
	C274.252197,915.261230 275.112213,918.147766 276.356049,920.858032 
	C276.887360,922.015869 278.179565,923.582153 279.194000,923.634033 
	C284.583130,923.909729 289.993835,923.763733 295.851288,923.763733 
	C295.347015,922.202271 295.142090,921.430847 294.853058,920.692444 
	C283.947632,892.832397 273.051819,864.968506 262.104248,837.125061 
	C260.410675,832.817627 259.571808,826.951355 256.344849,824.811951 
	C253.088928,822.653259 247.322037,824.542969 242.712509,824.083862 
	C238.913452,823.705444 237.572052,825.464783 236.373672,828.622131 
	C228.836655,848.479736 221.122452,868.270020 213.486755,888.090210 
	C208.973846,899.804504 204.497513,911.532898 199.796463,923.798279 
	C205.001770,923.798279 209.649796,923.564514 214.259857,923.882080 
	C217.243790,924.087646 218.300217,922.743835 219.142151,920.269836 
	C221.067291,914.612732 223.270584,909.050598 225.221115,903.401611 
	C226.021545,901.083313 227.144943,900.042725 229.837006,900.104919 
	C238.659012,900.308899 247.488708,900.186462 256.315460,900.177368 
	C268.660980,900.164673 268.660980,900.160034 273.236786,912.446106 
M369.030640,865.500000 
	C369.030640,884.763306 369.030640,904.026550 369.030640,923.411743 
	C374.802887,923.411743 380.001953,923.411743 385.728790,923.411743 
	C385.728790,912.649780 385.728790,902.277100 385.728790,890.377747 
	C394.673706,901.261047 402.610474,910.996094 410.668945,920.629333 
	C411.744751,921.915222 413.390106,923.469727 414.851501,923.556519 
	C420.561127,923.895630 426.302795,923.695007 432.951508,923.695007 
	C422.374725,910.915588 412.463379,898.940125 402.529266,886.937195 
	C412.164093,876.556641 421.449188,866.552856 431.475281,855.750732 
	C428.781403,855.750732 427.293671,855.782898 425.807617,855.745728 
	C411.498688,855.388123 411.538574,855.420166 401.908417,866.242004 
	C396.803131,871.979065 391.531525,877.568054 385.391785,884.250549 
	C385.391785,863.139771 385.391785,843.545471 385.391785,823.745483 
	C379.712067,823.745483 374.466980,823.745483 369.031830,823.745483 
	C369.031830,837.537415 369.031830,851.018677 369.030640,865.500000 
M690.443604,908.048889 
	C698.378357,921.833679 710.910461,926.333801 725.966675,925.349670 
	C737.073914,924.623596 745.924561,919.935181 751.805664,909.611755 
	C747.617554,907.174927 743.796753,904.951843 740.068542,902.782532 
	C731.422119,912.061523 722.788635,914.428284 713.597534,910.297607 
	C707.043274,907.352051 703.009460,901.194214 703.550659,894.412903 
	C720.236450,894.412903 736.966858,894.412903 754.050781,894.412903 
	C754.050781,891.624207 754.125427,889.316711 754.039062,887.015198 
	C753.340637,868.400818 742.149475,856.209595 724.102417,854.362427 
	C706.718018,852.583069 691.498962,863.428223 687.386353,880.604675 
	C685.177734,889.828979 686.183655,898.763672 690.443604,908.048889 
M859.513245,894.562805 
	C872.270935,894.562805 885.028625,894.562805 897.700195,894.562805 
	C899.989319,873.745178 889.718140,857.799194 872.729187,854.984741 
	C852.137390,851.573364 836.312683,861.660095 831.603455,881.198364 
	C826.971313,900.416809 836.935730,918.842957 854.777710,924.051941 
	C871.711853,928.995911 890.638245,922.261292 895.319275,909.335205 
	C891.566528,907.130554 887.760559,904.894653 884.036377,902.706787 
	C876.418335,911.717285 867.583252,914.418396 858.531128,910.808411 
	C851.588745,908.039917 847.270813,901.758118 847.620972,894.562805 
	C851.240356,894.562805 854.880981,894.562805 859.513245,894.562805 
M1069.249878,914.813843 
	C1070.380981,913.268311 1071.512207,911.722839 1072.871338,909.865845 
	C1068.521118,907.255676 1064.719849,904.974976 1060.722290,902.576477 
	C1054.765259,911.525269 1046.582764,913.845215 1036.965088,911.208618 
	C1028.978027,909.019043 1025.307495,903.039612 1024.016113,894.530273 
	C1041.057373,894.530273 1057.791626,894.530273 1074.970093,894.530273 
	C1074.970093,891.463135 1075.070923,888.991760 1074.953613,886.530884 
	C1074.235962,871.488708 1066.435181,860.143372 1054.046509,856.032715 
	C1040.421509,851.511780 1024.083008,855.733093 1015.676025,865.946350 
	C1004.043701,880.077698 1005.382690,904.686462 1018.330200,916.690186 
	C1031.469116,928.871216 1057.485229,928.638184 1069.249878,914.813843 
M319.706726,869.285583 
	C328.307159,864.852783 336.332581,866.563232 345.005707,874.845459 
	C348.295074,872.136536 351.612946,869.404053 355.048828,866.574463 
	C354.239105,865.358948 353.698792,864.324280 352.955231,863.465576 
	C343.250610,852.257507 318.436890,850.963623 307.571472,861.073730 
	C297.267670,870.661255 300.217407,887.468811 313.201965,892.736206 
	C315.804932,893.792236 318.591309,894.426819 321.328705,895.114075 
	C326.002655,896.287537 330.922394,896.830383 335.305817,898.670044 
	C337.593689,899.630310 340.063141,902.597168 340.483185,905.001404 
	C341.126312,908.682800 338.030212,910.933960 334.550476,911.891541 
	C332.807861,912.371094 330.944458,912.539185 329.127472,912.599243 
	C320.910645,912.870789 314.333984,909.509827 309.217285,902.730347 
	C305.488251,906.197571 302.130798,909.319275 298.798279,912.417847 
	C309.350952,925.989502 333.746063,930.102234 347.455780,920.577271 
	C350.343689,918.570740 353.100769,915.666077 354.631927,912.544373 
	C360.075684,901.445618 355.174133,889.986511 343.372070,886.079956 
	C336.753052,883.889038 329.795624,882.740356 323.106750,880.734741 
	C316.952606,878.889465 315.755768,875.214783 319.706726,869.285583 
M791.327576,854.795898 
	C773.710083,858.415405 763.079041,870.760803 762.276733,888.531616 
	C761.517090,905.354492 771.337952,919.860840 786.392334,924.152832 
	C802.728271,928.810181 818.345703,923.381897 825.768921,910.267334 
	C822.156250,907.698059 818.520386,905.112244 814.209412,902.046265 
	C813.802795,902.841858 813.571716,903.504517 813.172791,904.042908 
	C807.825562,911.257568 800.525085,913.071350 792.295288,910.778870 
	C784.361694,908.569031 780.559143,902.417175 779.192444,894.670837 
	C776.898987,881.672302 783.164307,870.865479 794.171875,868.614746 
	C802.815002,866.847595 809.356506,870.335693 814.476440,877.202454 
	C818.359375,874.124512 821.974792,871.258545 825.546265,868.427490 
	C818.843323,857.664490 807.077759,852.916565 791.327576,854.795898 
M958.813171,916.894104 
	C959.868774,922.718811 963.432739,924.683044 969.082642,923.801270 
	C971.032227,923.497009 973.087158,923.573486 975.060608,923.786072 
	C977.890198,924.090759 979.134338,922.831177 980.119751,920.264526 
	C983.989502,910.185364 988.138489,900.213989 992.112549,890.174377 
	C996.551636,878.960266 1000.913574,867.715698 1005.619446,855.691345 
	C1000.390259,855.691345 995.935547,855.440063 991.537903,855.831116 
	C990.051147,855.963257 987.985352,857.424683 987.425903,858.788208 
	C984.969727,864.774292 982.991394,870.955322 980.796448,877.050049 
	C977.521057,886.144836 974.209106,895.226501 970.546326,905.323669 
	C969.440918,902.702454 968.738342,901.225342 968.184814,899.694336 
	C963.323303,886.248352 958.524414,872.779480 953.591370,859.359924 
	C953.088074,857.990723 951.894714,855.912659 950.906860,855.845337 
	C945.721558,855.491882 940.499329,855.680054 934.765869,855.680054 
	C942.963562,876.551575 950.746277,896.366455 958.813171,916.894104 
M923.038330,855.705505 
	C918.789917,855.705505 914.541504,855.705505 910.079529,855.705505 
	C910.079529,867.674500 910.079529,878.826050 910.079529,889.977661 
	C910.079529,901.069336 910.079529,912.161011 910.079529,923.438354 
	C915.938721,923.438354 921.153687,923.438354 926.696167,923.438354 
	C926.696167,901.427490 926.726807,879.796082 926.579102,858.165833 
	C926.573425,857.340759 924.846558,856.527466 923.038330,855.705505 
M928.668213,830.097595 
	C927.327454,825.437805 924.163330,822.194092 919.448486,822.492615 
	C916.193420,822.698669 912.355408,824.399231 910.074585,826.711182 
	C906.888794,829.940552 907.412109,834.397522 910.050659,838.175110 
	C912.565125,841.774963 917.834290,843.262878 922.112610,841.821655 
	C926.536438,840.331543 928.804626,836.641968 928.668213,830.097595 
z"/>
<path fill="#01B193" opacity="1.000000" stroke="none" 
	d="
M489.745605,729.195129 
	C476.995087,718.916870 463.347107,709.561157 451.658630,698.191101 
	C413.286957,660.864685 389.665222,615.301208 380.410004,562.655334 
	C372.271149,516.359558 377.526642,471.220001 394.927551,427.531708 
	C395.342316,426.490479 396.137054,425.600555 397.285004,424.319641 
	C400.608124,424.052582 402.355255,423.432831 401.297272,419.934998 
	C401.042633,419.093109 402.121521,417.288025 403.039368,416.827789 
	C403.779388,416.456726 405.517914,417.139465 406.248962,417.898438 
	C407.476349,419.172577 408.217163,420.904572 409.229767,422.398468 
	C411.787872,426.172455 414.834076,425.739410 417.338287,422.072449 
	C418.450745,420.443481 421.280914,419.987579 423.331390,418.999207 
	C414.856476,437.490234 407.744293,456.473694 403.975220,476.513123 
	C392.772339,536.076172 403.202911,591.683350 435.888153,642.720032 
	C443.734772,654.972168 453.724243,665.851929 462.727142,677.997864 
	C462.771088,680.179382 462.286926,682.016418 462.949799,683.223694 
	C466.391663,689.492065 471.549835,694.603333 474.405975,701.387451 
	C477.105927,707.800415 483.874756,712.150757 484.280762,719.920532 
	C484.305206,720.388672 485.112122,721.105347 485.652344,721.211792 
	C490.447754,722.156738 490.407867,725.500305 489.745605,729.195129 
z"/>
<path fill="#B7D234" opacity="1.000000" stroke="none" 
	d="
M742.106140,397.989502 
	C745.955627,388.235504 749.601501,378.342590 757.415527,370.852173 
	C771.017456,357.813538 787.056458,353.788055 804.776123,359.975952 
	C822.062622,366.012573 831.714233,379.021362 833.652100,397.167847 
	C834.747314,407.423676 831.707214,417.007233 825.448975,425.250061 
	C814.326904,439.899078 802.962585,454.364075 791.367493,468.645630 
	C791.682495,464.195953 789.242493,461.624878 786.380310,459.158386 
	C784.658813,457.674713 782.503174,456.153534 781.744934,454.185913 
	C778.248596,445.113525 774.715088,436.009064 772.059509,426.670227 
	C768.304810,413.466125 764.304016,401.180450 749.220154,396.107422 
	C745.230957,394.765747 744.456482,397.551178 742.106140,397.989502 
z"/>
<path fill="#07AF62" opacity="1.000000" stroke="none" 
	d="
M479.438354,912.452026 
	C470.045380,896.633057 474.851990,884.058899 496.397095,868.204895 
	C488.986755,859.841797 483.248169,850.429993 487.565338,838.957397 
	C489.311707,834.316406 493.058319,829.575989 497.192383,826.845886 
	C509.468262,818.738586 528.165283,821.978699 535.550293,832.790527 
	C540.442932,839.953430 541.784363,848.269043 537.155334,855.430664 
	C532.980957,861.888855 526.469971,866.836609 520.523438,872.927917 
	C525.253723,878.259460 530.854675,884.572266 537.227600,891.755188 
	C538.987366,887.184082 541.045044,883.395203 541.850891,879.356628 
	C542.882080,874.188354 545.429382,872.458923 550.434448,873.190552 
	C552.836731,873.541626 555.332825,873.250916 558.362244,873.250916 
	C557.179871,882.805603 554.097839,891.013000 549.705261,898.649231 
	C547.764954,902.022400 548.076782,904.129028 550.604065,906.848816 
	C555.421326,912.033081 559.911316,917.521362 565.105530,923.542175 
	C554.283630,923.888367 543.636902,927.073425 537.962036,913.867615 
	C526.259583,924.919006 513.050720,927.596558 498.524109,924.869324 
	C490.624146,923.386230 484.373199,919.231201 479.438354,912.452026 
M499.949829,909.835510 
	C509.054810,914.386414 522.768860,911.334900 527.865723,903.251648 
	C522.548889,897.374146 517.194397,891.444641 511.826324,885.527466 
	C510.370941,883.923279 509.009949,882.189819 507.345123,880.835999 
	C506.366913,880.040344 504.463501,879.120667 503.681061,879.547791 
	C497.962769,882.669800 493.161682,886.811035 492.171387,893.730408 
	C491.220490,900.374634 493.096924,905.949036 499.949829,909.835510 
M521.336426,854.743286 
	C521.733704,854.209106 522.175537,853.702209 522.521179,853.136475 
	C525.728149,847.888123 525.312439,841.998474 521.505493,838.488831 
	C517.639893,834.925049 510.448547,834.528442 506.197815,837.644531 
	C502.008362,840.715637 500.629181,847.432129 503.658569,852.558411 
	C505.648468,855.925659 508.408752,858.837585 511.141052,862.362366 
	C514.725220,859.745483 517.783997,857.512207 521.336426,854.743286 
z"/>
<path fill="#F9F9F9" opacity="1.000000" stroke="none" 
	d="
M677.695435,915.190430 
	C679.506836,917.958069 681.102295,920.436035 683.251282,923.773804 
	C676.659424,923.773804 670.918945,923.936829 665.201111,923.649170 
	C663.912720,923.584351 662.286255,922.209534 661.523376,920.993652 
	C655.252625,910.998474 648.883423,901.047180 643.121277,890.759338 
	C640.708801,886.452026 638.134705,884.184937 633.107971,885.010742 
	C631.014893,885.354614 628.818237,885.067871 626.163025,885.067871 
	C626.163025,897.840210 626.163025,910.399536 626.163025,923.367554 
	C620.264404,923.367554 614.853699,923.367554 609.099060,923.367554 
	C609.099060,890.460327 609.099060,857.426819 609.099060,824.913513 
	C623.871033,824.913513 638.606628,823.768616 653.094177,825.176758 
	C675.901184,827.393372 687.521484,854.543091 673.603027,872.259644 
	C669.812317,877.084778 663.709595,880.093567 658.204651,884.289062 
	C664.247253,893.885681 670.863342,904.393188 677.695435,915.190430 
M657.717468,843.861267 
	C654.494080,842.292419 651.370361,839.689941 648.026855,839.367737 
	C640.832947,838.674316 633.525879,839.154724 626.121582,839.154724 
	C626.121582,849.729675 626.121582,860.106812 626.121582,870.722473 
	C632.988586,870.722473 639.642639,871.212952 646.199097,870.621460 
	C660.300598,869.349182 666.047424,856.475037 657.717468,843.861267 
z"/>
<path fill="#F9F9F9" opacity="1.000000" stroke="none" 
	d="
M273.135498,912.067871 
	C268.660980,900.160034 268.660980,900.164673 256.315460,900.177368 
	C247.488708,900.186462 238.659012,900.308899 229.837006,900.104919 
	C227.144943,900.042725 226.021545,901.083313 225.221115,903.401611 
	C223.270584,909.050598 221.067291,914.612732 219.142151,920.269836 
	C218.300217,922.743835 217.243790,924.087646 214.259857,923.882080 
	C209.649796,923.564514 205.001770,923.798279 199.796463,923.798279 
	C204.497513,911.532898 208.973846,899.804504 213.486755,888.090210 
	C221.122452,868.270020 228.836655,848.479736 236.373672,828.622131 
	C237.572052,825.464783 238.913452,823.705444 242.712509,824.083862 
	C247.322037,824.542969 253.088928,822.653259 256.344849,824.811951 
	C259.571808,826.951355 260.410675,832.817627 262.104248,837.125061 
	C273.051819,864.968506 283.947632,892.832397 294.853058,920.692444 
	C295.142090,921.430847 295.347015,922.202271 295.851288,923.763733 
	C289.993835,923.763733 284.583130,923.909729 279.194000,923.634033 
	C278.179565,923.582153 276.887360,922.015869 276.356049,920.858032 
	C275.112213,918.147766 274.252197,915.261230 273.135498,912.067871 
M246.090118,846.708435 
	C241.497559,859.406067 236.905014,872.103699 232.171478,885.191101 
	C242.708023,885.191101 252.713440,885.191101 263.233032,885.191101 
	C257.984131,870.962097 252.914490,857.219055 247.589264,842.783142 
	C246.913284,844.458130 246.604034,845.224365 246.090118,846.708435 
z"/>
<path fill="#F5F5F5" opacity="1.000000" stroke="none" 
	d="
M369.031250,865.000000 
	C369.031830,851.018677 369.031830,837.537415 369.031830,823.745483 
	C374.466980,823.745483 379.712067,823.745483 385.391785,823.745483 
	C385.391785,843.545471 385.391785,863.139771 385.391785,884.250549 
	C391.531525,877.568054 396.803131,871.979065 401.908417,866.242004 
	C411.538574,855.420166 411.498688,855.388123 425.807617,855.745728 
	C427.293671,855.782898 428.781403,855.750732 431.475281,855.750732 
	C421.449188,866.552856 412.164093,876.556641 402.529266,886.937195 
	C412.463379,898.940125 422.374725,910.915588 432.951508,923.695007 
	C426.302795,923.695007 420.561127,923.895630 414.851501,923.556519 
	C413.390106,923.469727 411.744751,921.915222 410.668945,920.629333 
	C402.610474,910.996094 394.673706,901.261047 385.728790,890.377747 
	C385.728790,902.277100 385.728790,912.649780 385.728790,923.411743 
	C380.001953,923.411743 374.802887,923.411743 369.030640,923.411743 
	C369.030640,904.026550 369.030640,884.763306 369.031250,865.000000 
z"/>
<path fill="#F5F5F5" opacity="1.000000" stroke="none" 
	d="
M690.286743,907.713074 
	C686.183655,898.763672 685.177734,889.828979 687.386353,880.604675 
	C691.498962,863.428223 706.718018,852.583069 724.102417,854.362427 
	C742.149475,856.209595 753.340637,868.400818 754.039062,887.015198 
	C754.125427,889.316711 754.050781,891.624207 754.050781,894.412903 
	C736.966858,894.412903 720.236450,894.412903 703.550659,894.412903 
	C703.009460,901.194214 707.043274,907.352051 713.597534,910.297607 
	C722.788635,914.428284 731.422119,912.061523 740.068542,902.782532 
	C743.796753,904.951843 747.617554,907.174927 751.805664,909.611755 
	C745.924561,919.935181 737.073914,924.623596 725.966675,925.349670 
	C710.910461,926.333801 698.378357,921.833679 690.286743,907.713074 
M732.896057,871.566101 
	C726.761597,866.434570 719.984558,865.865417 712.895630,869.096619 
	C707.037354,871.767029 704.079407,876.648804 702.893372,883.107300 
	C714.901306,883.107300 726.425903,883.107300 739.401489,883.107300 
	C737.101868,878.870850 735.261597,875.480652 732.896057,871.566101 
z"/>
<path fill="#F7F7F7" opacity="1.000000" stroke="none" 
	d="
M859.017456,894.562805 
	C854.880981,894.562805 851.240356,894.562805 847.620972,894.562805 
	C847.270813,901.758118 851.588745,908.039917 858.531128,910.808411 
	C867.583252,914.418396 876.418335,911.717285 884.036377,902.706787 
	C887.760559,904.894653 891.566528,907.130554 895.319275,909.335205 
	C890.638245,922.261292 871.711853,928.995911 854.777710,924.051941 
	C836.935730,918.842957 826.971313,900.416809 831.603455,881.198364 
	C836.312683,861.660095 852.137390,851.573364 872.729187,854.984741 
	C889.718140,857.799194 899.989319,873.745178 897.700195,894.562805 
	C885.028625,894.562805 872.270935,894.562805 859.017456,894.562805 
M879.368713,883.429749 
	C882.056152,883.846008 882.410889,882.402222 882.064392,880.202515 
	C880.841431,872.438721 872.549438,866.463928 863.889343,867.162720 
	C854.694885,867.904602 847.612671,874.832825 847.547729,883.431274 
	C857.830261,883.431274 868.113953,883.431274 879.368713,883.429749 
z"/>
<path fill="#F7F7F7" opacity="1.000000" stroke="none" 
	d="
M1069.027222,915.081055 
	C1057.485229,928.638184 1031.469116,928.871216 1018.330200,916.690186 
	C1005.382690,904.686462 1004.043701,880.077698 1015.676025,865.946350 
	C1024.083008,855.733093 1040.421509,851.511780 1054.046509,856.032715 
	C1066.435181,860.143372 1074.235962,871.488708 1074.953613,886.530884 
	C1075.070923,888.991760 1074.970093,891.463135 1074.970093,894.530273 
	C1057.791626,894.530273 1041.057373,894.530273 1024.016113,894.530273 
	C1025.307495,903.039612 1028.978027,909.019043 1036.965088,911.208618 
	C1046.582764,913.845215 1054.765259,911.525269 1060.722290,902.576477 
	C1064.719849,904.974976 1068.521118,907.255676 1072.871338,909.865845 
	C1071.512207,911.722839 1070.380981,913.268311 1069.027222,915.081055 
M1053.396484,871.007996 
	C1040.954346,862.799988 1025.951172,869.039124 1024.500854,883.167480 
	C1035.939819,883.167480 1047.362305,883.167480 1060.583252,883.167480 
	C1058.015869,878.630859 1055.991943,875.054688 1053.396484,871.007996 
z"/>
<path fill="#67C355" opacity="1.000000" stroke="none" 
	d="
M634.973022,502.989807 
	C630.196167,511.538055 625.419312,520.086365 620.067505,528.696899 
	C606.949646,520.588135 602.157227,507.276611 596.589172,494.441223 
	C595.973145,493.021118 594.383606,492.023315 593.245605,490.829651 
	C595.497192,482.567383 599.709717,474.276550 599.590027,466.048767 
	C599.344788,449.191772 592.230774,434.998413 576.847168,426.168152 
	C575.121887,425.177826 573.282959,424.385681 571.425049,422.997864 
	C571.668274,421.542053 572.480164,420.420166 572.221741,419.663971 
	C569.396118,411.395050 566.422424,403.176361 563.449524,394.958313 
	C561.325195,389.085938 557.198914,383.392548 561.999084,376.968628 
	C569.536987,378.296814 577.074951,379.625000 584.851746,381.583862 
	C584.512451,386.134583 582.359619,389.439056 584.286377,394.117279 
	C591.481384,411.587280 598.692383,429.137634 604.258850,447.163788 
	C608.674377,461.463043 612.548767,475.836060 620.457397,488.648712 
	C622.629944,492.168365 626.018616,494.968536 629.003418,497.944214 
	C630.842346,499.777466 632.973206,501.317902 634.973022,502.989807 
z"/>
<path fill="#AFD02F" opacity="1.000000" stroke="none" 
	d="
M853.043457,563.012329 
	C854.244995,550.100708 856.000488,537.211365 856.519714,524.272400 
	C857.317810,504.383484 854.550415,484.775726 850.061096,465.393036 
	C847.952515,456.289032 854.829773,449.146912 863.646423,451.105072 
	C868.261108,452.129944 871.145203,455.013153 872.267395,459.738098 
	C881.251282,497.562897 882.093079,535.501343 873.925232,573.566101 
	C873.391541,576.053406 872.453613,578.453979 871.135254,580.761047 
	C869.012024,578.224243 867.910278,574.339661 865.816345,573.699341 
	C859.808472,571.862061 856.348877,567.692993 853.043457,563.012329 
z"/>
<path fill="#F7F7F7" opacity="1.000000" stroke="none" 
	d="
M319.387360,869.566040 
	C315.755768,875.214783 316.952606,878.889465 323.106750,880.734741 
	C329.795624,882.740356 336.753052,883.889038 343.372070,886.079956 
	C355.174133,889.986511 360.075684,901.445618 354.631927,912.544373 
	C353.100769,915.666077 350.343689,918.570740 347.455780,920.577271 
	C333.746063,930.102234 309.350952,925.989502 298.798279,912.417847 
	C302.130798,909.319275 305.488251,906.197571 309.217285,902.730347 
	C314.333984,909.509827 320.910645,912.870789 329.127472,912.599243 
	C330.944458,912.539185 332.807861,912.371094 334.550476,911.891541 
	C338.030212,910.933960 341.126312,908.682800 340.483185,905.001404 
	C340.063141,902.597168 337.593689,899.630310 335.305817,898.670044 
	C330.922394,896.830383 326.002655,896.287537 321.328705,895.114075 
	C318.591309,894.426819 315.804932,893.792236 313.201965,892.736206 
	C300.217407,887.468811 297.267670,870.661255 307.571472,861.073730 
	C318.436890,850.963623 343.250610,852.257507 352.955231,863.465576 
	C353.698792,864.324280 354.239105,865.358948 355.048828,866.574463 
	C351.612946,869.404053 348.295074,872.136536 345.005707,874.845459 
	C336.332581,866.563232 328.307159,864.852783 319.387360,869.566040 
z"/>
<path fill="#AFD13B" opacity="1.000000" stroke="none" 
	d="
M741.957642,398.156677 
	C744.456482,397.551178 745.230957,394.765747 749.220154,396.107422 
	C764.304016,401.180450 768.304810,413.466125 772.059509,426.670227 
	C774.715088,436.009064 778.248596,445.113525 781.744934,454.185913 
	C782.503174,456.153534 784.658813,457.674713 786.380310,459.158386 
	C789.242493,461.624878 791.682495,464.195953 791.057983,468.809998 
	C785.969360,476.425201 780.858093,483.615631 775.411499,490.565979 
	C775.460449,487.598969 774.101685,486.405701 771.705444,485.150330 
	C769.054749,483.761688 765.935303,481.717987 764.850281,479.177765 
	C761.417114,471.140259 758.779785,462.757812 755.943420,454.471527 
	C751.631348,441.874176 745.986389,430.335114 733.223877,424.348816 
	C731.690369,425.456848 730.384521,426.400360 729.078674,427.343872 
	C732.304443,420.126465 735.530212,412.909058 739.194763,405.298706 
	C740.043884,403.585419 740.454102,402.265076 740.864380,400.944763 
	C741.019592,400.368561 741.174744,399.792358 741.644653,399.165894 
	C742.051697,399.176544 742.144043,399.237427 742.236389,399.298340 
	C742.095886,399.122559 741.955444,398.946777 741.815002,398.770996 
	C741.815002,398.770996 741.809204,398.323853 741.957642,398.156677 
z"/>
<path fill="#F7F7F7" opacity="1.000000" stroke="none" 
	d="
M791.760559,854.740112 
	C807.077759,852.916565 818.843323,857.664490 825.546265,868.427490 
	C821.974792,871.258545 818.359375,874.124512 814.476440,877.202454 
	C809.356506,870.335693 802.815002,866.847595 794.171875,868.614746 
	C783.164307,870.865479 776.898987,881.672302 779.192444,894.670837 
	C780.559143,902.417175 784.361694,908.569031 792.295288,910.778870 
	C800.525085,913.071350 807.825562,911.257568 813.172791,904.042908 
	C813.571716,903.504517 813.802795,902.841858 814.209412,902.046265 
	C818.520386,905.112244 822.156250,907.698059 825.768921,910.267334 
	C818.345703,923.381897 802.728271,928.810181 786.392334,924.152832 
	C771.337952,919.860840 761.517090,905.354492 762.276733,888.531616 
	C763.079041,870.760803 773.710083,858.415405 791.760559,854.740112 
z"/>
<path fill="#F7F7F7" opacity="1.000000" stroke="none" 
	d="
M958.671021,916.537720 
	C950.746277,896.366455 942.963562,876.551575 934.765869,855.680054 
	C940.499329,855.680054 945.721558,855.491882 950.906860,855.845337 
	C951.894714,855.912659 953.088074,857.990723 953.591370,859.359924 
	C958.524414,872.779480 963.323303,886.248352 968.184814,899.694336 
	C968.738342,901.225342 969.440918,902.702454 970.546326,905.323669 
	C974.209106,895.226501 977.521057,886.144836 980.796448,877.050049 
	C982.991394,870.955322 984.969727,864.774292 987.425903,858.788208 
	C987.985352,857.424683 990.051147,855.963257 991.537903,855.831116 
	C995.935547,855.440063 1000.390259,855.691345 1005.619446,855.691345 
	C1000.913574,867.715698 996.551636,878.960266 992.112549,890.174377 
	C988.138489,900.213989 983.989502,910.185364 980.119751,920.264526 
	C979.134338,922.831177 977.890198,924.090759 975.060608,923.786072 
	C973.087158,923.573486 971.032227,923.497009 969.082642,923.801270 
	C963.432739,924.683044 959.868774,922.718811 958.671021,916.537720 
z"/>
<path fill="#99CB42" opacity="1.000000" stroke="none" 
	d="
M759.293762,511.699738 
	C753.019897,520.324463 746.745972,528.949158 739.969543,537.564941 
	C739.854736,533.652283 738.690491,530.630066 735.141174,528.448914 
	C733.756042,527.597717 732.731445,525.851929 731.998779,524.298401 
	C728.324524,516.507996 725.166931,508.450714 721.109802,500.871521 
	C717.848022,494.778320 713.642700,489.176758 709.661743,483.493134 
	C708.859131,482.347168 707.183594,481.812592 705.910461,480.996155 
	C710.549500,470.046021 715.188599,459.095917 720.433594,448.078156 
	C722.727417,451.144592 723.681030,455.194244 726.237976,457.244965 
	C734.653931,463.994720 738.584229,473.402191 743.070251,482.611938 
	C746.956543,490.590393 751.062500,498.464905 755.228882,506.301636 
	C756.273254,508.266083 757.922485,509.909027 759.293762,511.699738 
z"/>
<path fill="#72C450" opacity="1.000000" stroke="none" 
	d="
M635.126709,502.663574 
	C632.973206,501.317902 630.842346,499.777466 629.003418,497.944214 
	C626.018616,494.968536 622.629944,492.168365 620.457397,488.648712 
	C612.548767,475.836060 608.674377,461.463043 604.258850,447.163788 
	C598.692383,429.137634 591.481384,411.587280 584.286377,394.117279 
	C582.359619,389.439056 584.512451,386.134583 585.145996,381.775330 
	C591.684631,384.341278 598.167786,387.346405 604.696960,390.974548 
	C601.990845,396.512543 602.838928,401.135559 605.817505,405.626495 
	C606.821472,407.140289 607.997375,408.644379 608.557983,410.331268 
	C612.569946,422.404755 616.205872,434.608032 620.435852,446.602722 
	C623.833069,456.236176 627.043274,466.025238 634.815063,473.464630 
	C637.637146,476.166046 639.583008,479.782745 641.928650,482.981812 
	C639.712524,489.433624 637.496399,495.885468 635.126709,502.663574 
z"/>
<path fill="#12B679" opacity="1.000000" stroke="none" 
	d="
M521.055786,721.814087 
	C541.704773,731.922913 563.051758,740.013550 585.797729,743.971313 
	C591.532654,744.969177 597.321899,745.658081 603.090576,746.457153 
	C610.028625,747.418274 614.762512,753.027405 614.068848,759.510132 
	C613.415344,765.617310 608.710754,769.395874 601.640137,768.888306 
	C579.422974,767.293213 558.091309,761.834045 537.300781,753.117920 
	C539.240051,748.661194 536.843750,747.375916 533.773621,745.954834 
	C531.732910,745.010315 528.402649,742.727661 528.631775,741.726074 
	C529.565491,737.643677 526.836609,736.534241 524.549866,734.701477 
	C521.666748,732.390808 518.921021,729.979370 521.440613,725.602661 
	C521.954773,724.709595 521.216675,723.095703 521.055786,721.814087 
z"/>
<path fill="#40B964" opacity="1.000000" stroke="none" 
	d="
M608.021057,581.940430 
	C612.306396,601.980103 616.591736,622.019836 620.929688,642.305542 
	C617.773865,643.169922 614.771423,643.992249 611.378296,644.477173 
	C609.485962,641.415283 607.748779,638.792664 606.519958,635.950256 
	C596.963501,613.844482 587.482178,591.705994 578.029358,569.555481 
	C575.044861,562.561951 572.062073,555.559448 569.398254,548.441406 
	C568.399902,545.773804 568.310913,542.765930 567.807312,539.913147 
	C570.281616,533.936890 572.755981,527.960632 575.565063,522.230835 
	C576.549133,526.535889 576.283081,531.041565 578.008911,534.574158 
	C584.851440,548.579651 592.226746,562.329468 599.632141,576.051270 
	C601.013000,578.609985 603.372009,580.672607 605.468201,582.776123 
	C605.752991,583.061829 607.142883,582.246155 608.021057,581.940430 
z"/>
<path fill="#A5CF35" opacity="1.000000" stroke="none" 
	d="
M759.597595,511.498352 
	C757.922485,509.909027 756.273254,508.266083 755.228882,506.301636 
	C751.062500,498.464905 746.956543,490.590393 743.070251,482.611938 
	C738.584229,473.402191 734.653931,463.994720 726.237976,457.244965 
	C723.681030,455.194244 722.727417,451.144592 720.661011,447.841797 
	C723.091736,441.026703 725.900940,434.380341 728.894409,427.538910 
	C730.384521,426.400360 731.690369,425.456848 733.223877,424.348816 
	C745.986389,430.335114 751.631348,441.874176 755.943420,454.471527 
	C758.779785,462.757812 761.417114,471.140259 764.850281,479.177765 
	C765.935303,481.717987 769.054749,483.761688 771.705444,485.150330 
	C774.101685,486.405701 775.460449,487.598969 775.125610,490.739807 
	C775.175232,491.153778 775.131531,491.113373 774.786926,491.113373 
	C773.660278,492.166626 772.878296,493.219910 772.096252,494.273193 
	C768.031311,499.947784 763.966370,505.622375 759.597595,511.498352 
z"/>
<path fill="#8BC848" opacity="1.000000" stroke="none" 
	d="
M705.679565,481.254517 
	C707.183594,481.812592 708.859131,482.347168 709.661743,483.493134 
	C713.642700,489.176758 717.848022,494.778320 721.109802,500.871521 
	C725.166931,508.450714 728.324524,516.507996 731.998779,524.298401 
	C732.731445,525.851929 733.756042,527.597717 735.141174,528.448914 
	C738.690491,530.630066 739.854736,533.652283 739.700317,537.762207 
	C734.491821,545.237549 729.050049,552.506714 723.315674,559.570190 
	C722.054565,558.088135 721.218750,556.677307 720.090698,555.562256 
	C717.462708,552.964478 714.149353,550.884888 712.099854,547.914856 
	C708.277527,542.375977 705.031128,536.421997 701.784729,530.509155 
	C699.290466,525.966003 697.290222,521.150452 694.764587,516.626770 
	C694.276001,515.751587 692.373230,515.665894 691.122803,515.216064 
	C695.898071,503.981659 700.673340,492.747253 705.679565,481.254517 
z"/>
<path fill="#34B969" opacity="1.000000" stroke="none" 
	d="
M567.577881,540.200073 
	C568.310913,542.765930 568.399902,545.773804 569.398254,548.441406 
	C572.062073,555.559448 575.044861,562.561951 578.029358,569.555481 
	C587.482178,591.705994 596.963501,613.844482 606.519958,635.950256 
	C607.748779,638.792664 609.485962,641.415283 610.994263,644.498962 
	C606.774353,647.128784 602.547729,649.399353 597.666382,652.021606 
	C595.585632,649.045837 593.229980,645.912903 591.121033,642.621826 
	C578.680542,623.208435 568.237610,602.933472 564.558655,579.815063 
	C562.439331,566.497070 563.257568,553.372070 567.577881,540.200073 
z"/>
<path fill="#40B964" opacity="1.000000" stroke="none" 
	d="
M612.697693,662.873657 
	C627.778320,654.455994 646.874023,659.696655 656.173462,674.805298 
	C665.525452,689.999329 661.285034,708.440796 645.375488,718.905334 
	C643.969055,717.760620 643.194824,716.727783 642.419678,715.695557 
	C638.869934,710.968628 634.892151,706.499023 631.863525,701.458923 
	C626.404663,692.374878 621.385986,683.015991 616.487671,673.613464 
	C615.434204,671.591309 614.998779,668.748413 615.481689,666.547485 
	C616.125549,663.612976 615.187561,662.922119 612.697693,662.873657 
z"/>
<path fill="#2DB86D" opacity="1.000000" stroke="none" 
	d="
M612.367004,662.931396 
	C615.187561,662.922119 616.125549,663.612976 615.481689,666.547485 
	C614.998779,668.748413 615.434204,671.591309 616.487671,673.613464 
	C621.385986,683.015991 626.404663,692.374878 631.863525,701.458923 
	C634.892151,706.499023 638.869934,710.968628 642.419678,715.695557 
	C643.194824,716.727783 643.969055,717.760620 645.051636,718.986816 
	C630.088623,729.191162 609.591553,724.400879 599.748291,708.520935 
	C590.007141,692.805664 595.509644,672.416809 612.367004,662.931396 
z"/>
<path fill="#79C54A" opacity="1.000000" stroke="none" 
	d="
M690.938721,515.427734 
	C692.373230,515.665894 694.276001,515.751587 694.764587,516.626770 
	C697.290222,521.150452 699.290466,525.966003 701.784729,530.509155 
	C705.031128,536.421997 708.277527,542.375977 712.099854,547.914856 
	C714.149353,550.884888 717.462708,552.964478 720.090698,555.562256 
	C721.218750,556.677307 722.054565,558.088135 723.037903,559.764038 
	C723.082031,560.474426 722.979858,560.733398 722.168335,561.035156 
	C721.074341,562.122375 720.558167,563.114990 720.041992,564.107605 
	C720.061707,564.439575 719.944153,564.712402 719.172607,565.008057 
	C718.410645,565.711670 718.165649,566.333313 717.920654,566.954956 
	C713.560181,572.731567 709.199707,578.508118 704.481567,584.108215 
	C702.985718,582.963379 701.939087,581.851257 700.690430,581.056519 
	C698.046692,579.373718 694.591125,578.429321 692.742126,576.149292 
	C689.148315,571.717712 686.427002,566.577759 683.353333,561.725464 
	C680.876587,557.815613 678.413330,553.897339 675.943970,549.982788 
	C680.880859,538.534973 685.817749,527.087219 690.938721,515.427734 
z"/>
<path fill="#A5CF35" opacity="1.000000" stroke="none" 
	d="
M689.999512,278.104004 
	C691.781738,278.238556 693.640076,278.092041 695.334534,278.550751 
	C714.062622,283.620422 731.912415,290.888184 748.915039,300.233582 
	C755.765320,303.998810 758.294434,310.425018 755.297302,316.397339 
	C752.373047,322.224121 745.329285,323.940735 738.392883,320.204102 
	C721.893555,311.315826 704.618896,304.421844 686.457275,299.058350 
	C690.347412,299.242004 694.308716,299.920227 698.269958,300.598419 
	C698.687561,300.294617 699.105164,299.990814 699.522705,299.687012 
	C698.044312,297.687927 696.924500,295.208618 695.016968,293.784210 
	C690.231445,290.210754 685.828918,286.853271 689.923279,280.079987 
	C690.221680,279.586334 689.986572,278.770203 689.999512,278.104004 
z"/>
<path fill="#79C54A" opacity="1.000000" stroke="none" 
	d="
M642.066162,482.622223 
	C639.583008,479.782745 637.637146,476.166046 634.815063,473.464630 
	C627.043274,466.025238 623.833069,456.236176 620.435852,446.602722 
	C616.205872,434.608032 612.569946,422.404755 608.557983,410.331268 
	C607.997375,408.644379 606.821472,407.140289 605.817505,405.626495 
	C602.838928,401.135559 601.990845,396.512543 604.899170,391.244324 
	C623.691528,403.331177 635.843079,420.382111 641.495300,442.072327 
	C644.972717,455.416870 644.764465,468.816620 642.066162,482.622223 
z"/>
<path fill="#22B774" opacity="1.000000" stroke="none" 
	d="
M509.091461,445.015228 
	C503.974609,455.258728 500.694672,465.840118 502.597626,477.526154 
	C502.749146,478.456696 501.439178,480.191284 500.411102,480.638153 
	C497.697021,481.817810 494.764343,482.494476 491.469330,483.028442 
	C487.558167,475.802734 484.058319,468.938751 480.644531,462.032288 
	C476.649872,453.950653 472.607239,445.888062 468.866028,437.689209 
	C467.953857,435.690247 468.137665,433.191193 467.817566,430.922058 
	C472.622009,423.685394 477.426453,416.448730 482.829376,409.309753 
	C483.618195,410.531403 484.227844,411.784088 483.928925,412.757812 
	C482.311523,418.026031 484.418030,422.024902 487.833313,425.740601 
	C488.717041,426.702087 489.262421,427.967072 490.021271,429.052063 
	C494.941071,436.086243 498.516479,444.735199 509.091461,445.015228 
z"/>
<path fill="#03B387" opacity="1.000000" stroke="none" 
	d="
M520.844788,721.559509 
	C521.216675,723.095703 521.954773,724.709595 521.440613,725.602661 
	C518.921021,729.979370 521.666748,732.390808 524.549866,734.701477 
	C526.836609,736.534241 529.565491,737.643677 528.631775,741.726074 
	C528.402649,742.727661 531.732910,745.010315 533.773621,745.954834 
	C536.843750,747.375916 539.240051,748.661194 537.041870,752.888550 
	C531.434570,751.048157 525.768005,749.265015 520.574768,746.569763 
	C510.753479,741.472778 501.204193,735.851746 491.143433,730.015686 
	C490.426758,729.429382 490.108521,729.275879 489.790283,729.122314 
	C489.790283,729.122375 489.794220,729.174255 489.769897,729.184692 
	C490.407867,725.500305 490.447754,722.156738 485.652344,721.211792 
	C485.112122,721.105347 484.305206,720.388672 484.280762,719.920532 
	C483.874756,712.150757 477.105927,707.800415 474.405975,701.387451 
	C471.549835,694.603333 466.391663,689.492065 462.949799,683.223694 
	C462.286926,682.016418 462.771088,680.179382 462.871857,678.297119 
	C473.242584,686.766724 483.101471,696.051819 493.809662,704.223938 
	C502.206024,710.631775 511.653351,715.662415 520.844788,721.559509 
z"/>
<path fill="#67C355" opacity="1.000000" stroke="none" 
	d="
M675.682129,550.211060 
	C678.413330,553.897339 680.876587,557.815613 683.353333,561.725464 
	C686.427002,566.577759 689.148315,571.717712 692.742126,576.149292 
	C694.591125,578.429321 698.046692,579.373718 700.690430,581.056519 
	C701.939087,581.851257 702.985718,582.963379 704.223328,584.365906 
	C697.706238,593.657410 691.089722,602.514771 684.225220,611.208008 
	C682.941101,609.974670 682.085327,608.306885 680.840027,607.931580 
	C671.259888,605.044556 666.106689,598.098755 662.787781,589.210999 
	C662.428528,588.248779 660.922363,587.714783 659.948181,586.982117 
	C665.105530,574.801208 670.262878,562.620300 675.682129,550.211060 
z"/>
<path fill="#03B387" opacity="1.000000" stroke="none" 
	d="
M423.558838,418.771027 
	C421.280914,419.987579 418.450745,420.443481 417.338287,422.072449 
	C414.834076,425.739410 411.787872,426.172455 409.229767,422.398468 
	C408.217163,420.904572 407.476349,419.172577 406.248962,417.898438 
	C405.517914,417.139465 403.779388,416.456726 403.039368,416.827789 
	C402.121521,417.288025 401.042633,419.093109 401.297272,419.934998 
	C402.355255,423.432831 400.608124,424.052582 397.434753,424.000610 
	C398.667633,419.880829 400.040100,415.644958 401.936127,411.658051 
	C410.612305,393.413757 421.178955,376.348541 434.528229,361.074310 
	C434.854614,365.303802 434.854614,369.313354 434.854614,373.463776 
	C439.083740,374.986877 443.605865,376.615540 448.127991,378.244171 
	C447.691284,379.282410 447.382355,380.399384 446.798492,381.346985 
	C439.150391,393.759552 431.463470,406.148193 423.558838,418.771027 
z"/>
<path fill="#A5CF35" opacity="1.000000" stroke="none" 
	d="
M852.842529,563.332397 
	C856.348877,567.692993 859.808472,571.862061 865.816345,573.699341 
	C867.910278,574.339661 869.012024,578.224243 870.851807,580.849243 
	C868.062500,591.648010 865.267395,602.317383 861.803467,612.764954 
	C859.898438,618.510742 856.867859,623.883240 853.875793,629.497192 
	C851.187561,626.350952 849.028015,623.512817 844.166626,624.769287 
	C842.644775,625.162537 840.335083,623.509827 838.737854,622.320862 
	C837.208557,621.182495 836.136108,619.430237 834.862915,617.947754 
	C842.617615,600.448059 849.151917,582.548767 852.842529,563.332397 
z"/>
<path fill="#34B969" opacity="1.000000" stroke="none" 
	d="
M509.344086,444.805420 
	C498.516479,444.735199 494.941071,436.086243 490.021271,429.052063 
	C489.262421,427.967072 488.717041,426.702087 487.833313,425.740601 
	C484.418030,422.024902 482.311523,418.026031 483.928925,412.757812 
	C484.227844,411.784088 483.618195,410.531403 483.117004,409.145447 
	C490.517853,402.656067 498.229614,396.428711 506.370544,390.563843 
	C503.473969,397.741974 506.447906,403.144806 510.610199,408.354034 
	C515.821777,414.876465 520.938110,421.475037 526.095520,428.040741 
	C520.595886,433.559021 515.096313,439.077301 509.344086,444.805420 
z"/>
<path fill="#58BF5A" opacity="1.000000" stroke="none" 
	d="
M561.555115,376.888245 
	C557.198914,383.392548 561.325195,389.085938 563.449524,394.958313 
	C566.422424,403.176361 569.396118,411.395050 572.221741,419.663971 
	C572.480164,420.420166 571.668274,421.542053 571.169067,422.768921 
	C562.740540,420.860138 554.436584,419.395203 545.442810,420.535278 
	C541.916260,412.228516 539.160645,404.192749 535.608032,396.526276 
	C533.660339,392.323151 530.828796,388.717041 532.873047,383.690826 
	C533.263367,382.731171 532.309448,381.224792 531.975769,379.970642 
	C538.351746,378.940369 544.727722,377.910095 551.645752,377.091248 
	C552.460754,377.175018 552.733704,377.047363 553.006592,376.919708 
	C555.708130,376.882385 558.409607,376.845093 561.555115,376.888245 
z"/>
<path fill="#99CB42" opacity="1.000000" stroke="none" 
	d="
M834.600464,618.165283 
	C836.136108,619.430237 837.208557,621.182495 838.737854,622.320862 
	C840.335083,623.509827 842.644775,625.162537 844.166626,624.769287 
	C849.028015,623.512817 851.187561,626.350952 853.667664,629.772644 
	C846.383423,646.621094 836.295776,661.662354 824.584229,675.685791 
	C824.469788,673.908630 824.710999,672.348877 825.040466,670.217896 
	C816.690796,669.640015 810.490173,666.890381 810.767029,657.439514 
	C818.624023,644.420654 826.481018,631.401733 834.600464,618.165283 
z"/>
<path fill="#F5F5F5" opacity="1.000000" stroke="none" 
	d="
M923.480103,855.707092 
	C924.846558,856.527466 926.573425,857.340759 926.579102,858.165833 
	C926.726807,879.796082 926.696167,901.427490 926.696167,923.438354 
	C921.153687,923.438354 915.938721,923.438354 910.079529,923.438354 
	C910.079529,912.161011 910.079529,901.069336 910.079529,889.977661 
	C910.079529,878.826050 910.079529,867.674500 910.079529,855.705505 
	C914.541504,855.705505 918.789917,855.705505 923.480103,855.707092 
z"/>
<path fill="#40B964" opacity="1.000000" stroke="none" 
	d="
M531.582092,379.958008 
	C532.309448,381.224792 533.263367,382.731171 532.873047,383.690826 
	C530.828796,388.717041 533.660339,392.323151 535.608032,396.526276 
	C539.160645,404.192749 541.916260,412.228516 545.011475,420.517883 
	C538.942871,423.251587 532.867249,425.577637 526.443604,427.972229 
	C520.938110,421.475037 515.821777,414.876465 510.610199,408.354034 
	C506.447906,403.144806 503.473969,397.741974 506.732635,390.460266 
	C514.839844,386.644562 523.014099,383.294983 531.582092,379.958008 
z"/>
<path fill="#4DBD5F" opacity="1.000000" stroke="none" 
	d="
M608.045898,581.519531 
	C607.142883,582.246155 605.752991,583.061829 605.468201,582.776123 
	C603.372009,580.672607 601.013000,578.609985 599.632141,576.051270 
	C592.226746,562.329468 584.851440,548.579651 578.008911,534.574158 
	C576.283081,531.041565 576.549133,526.535889 575.836426,521.993408 
	C578.863464,516.094788 581.954041,510.680115 585.622559,505.250763 
	C587.160278,509.538727 587.257690,514.302185 589.259216,518.048340 
	C593.452759,525.897095 598.696777,533.180298 603.412659,540.756104 
	C605.697632,544.426697 607.764038,548.233337 609.929443,551.978394 
	C608.965515,559.941772 607.908569,567.895813 607.112366,575.875916 
	C606.943542,577.568054 607.726440,579.355225 608.045898,581.519531 
z"/>
<path fill="#12B679" opacity="1.000000" stroke="none" 
	d="
M467.522736,431.114380 
	C468.137665,433.191193 467.953857,435.690247 468.866028,437.689209 
	C472.607239,445.888062 476.649872,453.950653 480.644531,462.032288 
	C484.058319,468.938751 487.558167,475.802734 491.076202,483.086670 
	C481.287567,486.870087 471.442688,490.252350 460.982910,493.845856 
	C455.053955,471.666992 458.657440,451.252167 467.522736,431.114380 
z"/>
<path fill="#79C54A" opacity="1.000000" stroke="none" 
	d="
M810.473755,657.627808 
	C810.490173,666.890381 816.690796,669.640015 825.040466,670.217896 
	C824.710999,672.348877 824.469788,673.908630 824.311523,675.862976 
	C824.394470,676.257568 824.367371,676.221436 824.146606,676.204285 
	C823.808044,676.236267 823.690247,676.285400 823.572449,676.334534 
	C823.673218,676.547852 823.773926,676.761230 823.874695,676.974548 
	C814.573669,686.706116 805.272644,696.437744 795.269287,705.982422 
	C792.742065,705.187378 790.959045,704.307007 789.084961,704.019409 
	C781.735718,702.891479 780.090820,701.115784 779.993652,693.716370 
	C779.980530,692.720825 779.929993,691.725830 779.896851,690.730591 
	C787.312500,683.031799 794.796875,675.397461 802.109680,667.602173 
	C804.996704,664.524719 807.501526,661.088745 810.473755,657.627808 
z"/>
<path fill="#12B679" opacity="1.000000" stroke="none" 
	d="
M448.407501,378.183777 
	C443.605865,376.615540 439.083740,374.986877 434.854614,373.463776 
	C434.854614,369.313354 434.854614,365.303802 434.816650,360.885498 
	C445.916931,349.273315 457.055237,338.069885 468.563324,327.202942 
	C468.857086,329.494812 468.996368,331.487793 468.662567,333.398102 
	C467.833496,338.143188 469.605377,341.829529 474.093964,343.447479 
	C476.370331,344.268005 478.841858,344.547180 481.225128,345.071106 
	C471.761322,354.635406 462.297485,364.199707 452.162170,373.955261 
	C451.040314,374.959259 450.589935,375.772064 450.139557,376.584839 
	C449.655365,377.097687 449.171173,377.610535 448.407501,378.183777 
z"/>
<path fill="#72C450" opacity="1.000000" stroke="none" 
	d="
M779.589844,690.880676 
	C779.929993,691.725830 779.980530,692.720825 779.993652,693.716370 
	C780.090820,701.115784 781.735718,702.891479 789.084961,704.019409 
	C790.959045,704.307007 792.742065,705.187378 794.922485,705.968567 
	C795.278015,706.141663 795.170105,706.597473 794.833618,706.938110 
	C794.313538,707.572083 794.129944,707.865356 793.946411,708.158691 
	C783.537109,716.059448 773.127869,723.960327 762.034668,731.877747 
	C759.779480,731.028015 758.233276,730.111877 756.632324,729.304260 
	C750.790894,726.357544 744.753906,723.567078 747.043335,715.128967 
	C757.789856,707.096252 768.536377,699.063477 779.589844,690.880676 
z"/>
<path fill="#58BF5A" opacity="1.000000" stroke="none" 
	d="
M659.684021,587.208008 
	C660.922363,587.714783 662.428528,588.248779 662.787781,589.210999 
	C666.106689,598.098755 671.259888,605.044556 680.840027,607.931580 
	C682.085327,608.306885 682.941101,609.974670 683.973938,611.406982 
	C683.970581,611.770142 684.003174,611.943787 683.739868,612.096069 
	C683.259766,612.460083 683.104248,612.710022 683.009949,612.998169 
	C677.279907,620.679993 671.549805,628.361816 665.352539,635.930176 
	C657.854431,631.308655 650.429321,627.162964 649.542542,617.459106 
	C649.449402,616.439636 648.400146,615.507446 647.794434,614.534790 
	C651.669556,605.501160 655.544678,596.467529 659.684021,587.208008 
z"/>
<path fill="#58BF5A" opacity="1.000000" stroke="none" 
	d="
M746.700439,715.190674 
	C744.753906,723.567078 750.790894,726.357544 756.632324,729.304260 
	C758.233276,730.111877 759.779480,731.028015 761.699219,731.956421 
	C749.276917,738.646240 736.506226,745.273987 723.366577,751.562988 
	C722.208252,749.527466 721.744995,747.547180 720.565125,746.189758 
	C717.643616,742.828552 713.154724,740.327942 715.730286,734.605408 
	C715.964600,734.084839 714.590820,732.840454 713.963745,731.932190 
	C724.761658,726.372253 735.559570,720.812317 746.700439,715.190674 
z"/>
<path fill="#58BF5A" opacity="1.000000" stroke="none" 
	d="
M610.110779,551.659180 
	C607.764038,548.233337 605.697632,544.426697 603.412659,540.756104 
	C598.696777,533.180298 593.452759,525.897095 589.259216,518.048340 
	C587.257690,514.302185 587.160278,509.538727 585.840332,504.991455 
	C587.939941,500.270142 590.399719,495.793427 593.052551,491.073181 
	C594.383606,492.023315 595.973145,493.021118 596.589172,494.441223 
	C602.157227,507.276611 606.949646,520.588135 619.803711,528.905334 
	C616.840515,536.480957 613.566345,543.910461 610.110779,551.659180 
z"/>
<path fill="#67C355" opacity="1.000000" stroke="none" 
	d="
M594.012939,294.687958 
	C582.602356,297.318481 571.191833,299.949005 559.479614,302.297180 
	C559.276794,300.668610 559.939148,298.992462 559.377380,298.033081 
	C556.869324,293.749664 551.995544,290.713196 552.767395,284.693573 
	C552.825684,284.239014 550.855713,283.524384 549.828613,282.930664 
	C550.716125,282.308777 551.522949,281.352997 552.503479,281.116058 
	C563.713074,278.407288 574.949219,275.807983 586.592529,273.635559 
	C586.489929,279.574829 588.676941,284.110901 592.421387,287.793823 
	C594.606873,289.943390 595.401184,291.941345 594.012939,294.687958 
z"/>
<path fill="#79C54A" opacity="1.000000" stroke="none" 
	d="
M594.424072,294.733368 
	C595.401184,291.941345 594.606873,289.943390 592.421387,287.793823 
	C588.676941,284.110901 586.489929,279.574829 587.009338,273.680695 
	C597.045044,272.209259 607.078247,271.148804 617.673828,270.524048 
	C620.980530,271.528473 623.724976,272.097198 626.359741,272.643219 
	C626.359741,274.719360 625.698547,276.987183 626.482605,278.511749 
	C628.922058,283.255096 628.131287,287.624878 626.031677,292.077332 
	C615.632874,292.977814 605.234009,293.878296 594.424072,294.733368 
z"/>
<path fill="#99CB42" opacity="1.000000" stroke="none" 
	d="
M689.689087,277.909241 
	C689.986572,278.770203 690.221680,279.586334 689.923279,280.079987 
	C685.828918,286.853271 690.231445,290.210754 695.016968,293.784210 
	C696.924500,295.208618 698.044312,297.687927 699.522705,299.687012 
	C699.105164,299.990814 698.687561,300.294617 698.269958,300.598419 
	C694.308716,299.920227 690.347412,299.242004 686.161377,298.855164 
	C678.877258,297.814667 671.817810,296.482880 664.380310,294.632874 
	C662.690613,291.633484 661.997498,288.247467 659.947632,286.846222 
	C654.501404,283.123199 652.467651,278.323273 653.000000,272.054657 
	C664.619629,273.540863 676.241089,275.013550 687.853394,276.555267 
	C688.403442,276.628296 688.872131,277.314056 689.689087,277.909241 
z"/>
<path fill="#2DB86D" opacity="1.000000" stroke="none" 
	d="
M481.532898,344.960419 
	C478.841858,344.547180 476.370331,344.268005 474.093964,343.447479 
	C469.605377,341.829529 467.833496,338.143188 468.662567,333.398102 
	C468.996368,331.487793 468.857086,329.494812 468.886383,327.073853 
	C476.258179,321.106079 483.676697,315.603912 491.840149,310.031067 
	C493.678070,310.473511 495.681396,310.916534 495.727081,311.510315 
	C496.379028,319.976898 503.575531,321.745178 509.253632,325.069763 
	C501.223663,330.696686 493.182587,336.307892 485.175720,341.967560 
	C483.981567,342.811615 482.948334,343.883331 481.532898,344.960419 
z"/>
<path fill="#40B964" opacity="1.000000" stroke="none" 
	d="
M509.554810,324.913391 
	C503.575531,321.745178 496.379028,319.976898 495.727081,311.510315 
	C495.681396,310.916534 493.678070,310.473511 492.164062,309.932556 
	C501.593140,304.315338 511.443237,298.725983 521.696045,293.462952 
	C523.595825,301.078003 528.228149,305.627350 534.802490,308.603638 
	C535.459473,308.901093 535.640869,310.249115 536.043030,311.109558 
	C527.314026,315.658722 518.585022,320.207916 509.554810,324.913391 
z"/>
<path fill="#8BC848" opacity="1.000000" stroke="none" 
	d="
M652.640198,271.965973 
	C652.467651,278.323273 654.501404,283.123199 659.947632,286.846222 
	C661.997498,288.247467 662.690613,291.633484 664.004272,294.507141 
	C651.650269,294.011902 639.294312,293.124146 626.484985,292.156860 
	C628.131287,287.624878 628.922058,283.255096 626.482605,278.511749 
	C625.698547,276.987183 626.359741,274.719360 626.359741,272.643219 
	C623.724976,272.097198 620.980530,271.528473 618.129150,270.594360 
	C628.223572,270.429657 638.424927,270.630371 649.017395,271.294525 
	C649.608215,271.889618 649.827759,271.957184 650.067261,271.960632 
	C650.804993,271.932861 651.542664,271.905060 652.640198,271.965973 
z"/>
<path fill="#4DBD5F" opacity="1.000000" stroke="none" 
	d="
M536.414734,311.061218 
	C535.640869,310.249115 535.459473,308.901093 534.802490,308.603638 
	C528.228149,305.627350 523.595825,301.078003 522.053528,293.424805 
	C531.009583,289.689911 540.010986,286.319458 549.420471,282.939850 
	C550.855713,283.524384 552.825684,284.239014 552.767395,284.693573 
	C551.995544,290.713196 556.869324,293.749664 559.377380,298.033081 
	C559.939148,298.992462 559.276794,300.668610 559.110840,302.308075 
	C558.618774,302.783813 558.193970,302.966248 557.261536,302.904602 
	C556.160950,303.068970 555.568054,303.477386 554.975159,303.885803 
	C548.912231,306.261505 542.849365,308.637177 536.414734,311.061218 
z"/>
<path fill="#4DBD5F" opacity="1.000000" stroke="none" 
	d="
M713.575989,731.919495 
	C714.590820,732.840454 715.964600,734.084839 715.730286,734.605408 
	C713.154724,740.327942 717.643616,742.828552 720.565125,746.189758 
	C721.744995,747.547180 722.208252,749.527466 722.998901,751.605103 
	C714.590698,754.967834 706.181274,757.949768 697.437012,760.610840 
	C699.056824,758.268982 698.906982,756.986633 696.204041,755.510498 
	C691.404297,752.889282 686.592957,749.976135 688.898132,743.000732 
	C689.069824,742.480957 688.235474,741.628784 687.868774,740.931152 
	C692.736511,739.162292 697.597351,737.374146 702.474304,735.631165 
	C706.034607,734.358826 709.616150,733.146118 713.575989,731.919495 
z"/>
<path fill="#34B969" opacity="1.000000" stroke="none" 
	d="
M679.100525,765.187927 
	C670.449646,766.490906 661.831055,768.118713 653.136658,768.984619 
	C647.175537,769.578430 642.621155,765.422607 641.984131,759.976624 
	C641.211792,753.374390 644.973450,747.902771 651.315002,746.823242 
	C656.213501,745.989319 661.171814,745.505920 666.541260,745.294800 
	C666.596313,748.752197 662.959961,751.654663 666.386414,754.824524 
	C670.402588,758.539856 673.329956,763.619751 679.100525,765.187927 
z"/>
<path fill="#40B964" opacity="1.000000" stroke="none" 
	d="
M679.521362,765.183105 
	C673.329956,763.619751 670.402588,758.539856 666.386414,754.824524 
	C662.959961,751.654663 666.596313,748.752197 666.979858,745.333008 
	C673.658691,743.615906 680.336609,742.288513 687.441650,740.946045 
	C688.235474,741.628784 689.069824,742.480957 688.898132,743.000732 
	C686.592957,749.976135 691.404297,752.889282 696.204041,755.510498 
	C698.906982,756.986633 699.056824,758.268982 697.046997,760.609985 
	C691.308533,762.346008 685.625366,763.762146 679.521362,765.183105 
z"/>
<path fill="#4DBD5F" opacity="1.000000" stroke="none" 
	d="
M647.531250,614.785156 
	C648.400146,615.507446 649.449402,616.439636 649.542542,617.459106 
	C650.429321,627.162964 657.854431,631.308655 665.078735,636.138794 
	C661.903137,641.109558 658.534119,645.758057 655.427673,650.044373 
	C648.563782,647.166504 642.384216,644.575500 635.615845,641.737671 
	C639.499146,632.838867 643.383606,623.937195 647.531250,614.785156 
z"/>
<path fill="#F5F5F5" opacity="1.000000" stroke="none" 
	d="
M928.752686,830.490417 
	C928.804626,836.641968 926.536438,840.331543 922.112610,841.821655 
	C917.834290,843.262878 912.565125,841.774963 910.050659,838.175110 
	C907.412109,834.397522 906.888794,829.940552 910.074585,826.711182 
	C912.355408,824.399231 916.193420,822.698669 919.448486,822.492615 
	C924.163330,822.194092 927.327454,825.437805 928.752686,830.490417 
z"/>
<path fill="#B7D234" opacity="1.000000" stroke="none" 
	d="
M740.626465,401.177155 
	C740.454102,402.265076 740.043884,403.585419 739.302856,404.950165 
	C739.444275,403.799591 739.916443,402.604584 740.626465,401.177155 
z"/>
<path fill="#AFD13B" opacity="1.000000" stroke="none" 
	d="
M772.410217,494.170746 
	C772.878296,493.219910 773.660278,492.166626 774.813721,491.117615 
	C774.364807,492.103973 773.544495,493.086151 772.410217,494.170746 
z"/>
<path fill="#8BC848" opacity="1.000000" stroke="none" 
	d="
M720.306885,563.928528 
	C720.558167,563.114990 721.074341,562.122375 721.970642,561.120972 
	C721.757751,561.991211 721.164795,562.870361 720.306885,563.928528 
z"/>
<path fill="#67C355" opacity="1.000000" stroke="none" 
	d="
M555.262878,303.891479 
	C555.568054,303.477386 556.160950,303.068970 556.911011,302.903290 
	C556.562317,303.396423 556.056458,303.646820 555.262878,303.891479 
z"/>
<path fill="#03B387" opacity="1.000000" stroke="none" 
	d="
M450.427185,376.409546 
	C450.589935,375.772064 451.040314,374.959259 451.879150,374.117371 
	C451.750000,374.803589 451.232422,375.518921 450.427185,376.409546 
z"/>
<path fill="#8BC848" opacity="1.000000" stroke="none" 
	d="
M718.154419,566.778442 
	C718.165649,566.333313 718.410645,565.711670 718.960938,565.097595 
	C718.973511,565.604126 718.680847,566.103027 718.154419,566.778442 
z"/>
<path fill="#99CB42" opacity="1.000000" stroke="none" 
	d="
M824.046509,676.823120 
	C823.773926,676.761230 823.673218,676.547852 823.572449,676.334534 
	C823.690247,676.285400 823.808044,676.236267 824.124756,676.206482 
	C824.323608,676.225830 824.218323,676.671692 824.046509,676.823120 
z"/>
<path fill="#79C54A" opacity="1.000000" stroke="none" 
	d="
M794.216003,708.064636 
	C794.129944,707.865356 794.313538,707.572083 794.720032,707.142944 
	C794.790466,707.328308 794.638062,707.649414 794.216003,708.064636 
z"/>
<path fill="#67C355" opacity="1.000000" stroke="none" 
	d="
M552.752869,376.867737 
	C552.733704,377.047363 552.460754,377.175018 552.095337,377.133057 
	C552.168152,376.914246 552.333618,376.864990 552.752869,376.867737 
z"/>
<path fill="#01B193" opacity="1.000000" stroke="none" 
	d="
M489.897583,729.382751 
	C490.108521,729.275879 490.426758,729.429382 490.877991,729.818237 
	C490.675629,729.916748 490.340240,729.779968 489.897583,729.382751 
z"/>
<path fill="#67C355" opacity="1.000000" stroke="none" 
	d="
M683.208252,612.883667 
	C683.104248,612.710022 683.259766,612.460083 683.653198,612.113159 
	C683.796814,612.299500 683.655762,612.563232 683.208252,612.883667 
z"/>
<path fill="#79C54A" opacity="1.000000" stroke="none" 
	d="
M649.936157,271.853088 
	C649.827759,271.957184 649.608215,271.889618 649.297485,271.641479 
	C649.396179,271.588684 649.602417,271.662201 649.936157,271.853088 
z"/>
<path fill="#000000" opacity="1.000000" stroke="none" 
	d="
M499.609467,909.659912 
	C493.096924,905.949036 491.220490,900.374634 492.171387,893.730408 
	C493.161682,886.811035 497.962769,882.669800 503.681061,879.547791 
	C504.463501,879.120667 506.366913,880.040344 507.345123,880.835999 
	C509.009949,882.189819 510.370941,883.923279 511.826324,885.527466 
	C517.194397,891.444641 522.548889,897.374146 527.865723,903.251648 
	C522.768860,911.334900 509.054810,914.386414 499.609467,909.659912 
z"/>
<path fill="#000000" opacity="1.000000" stroke="none" 
	d="
M521.089600,855.011108 
	C517.783997,857.512207 514.725220,859.745483 511.141052,862.362366 
	C508.408752,858.837585 505.648468,855.925659 503.658569,852.558411 
	C500.629181,847.432129 502.008362,840.715637 506.197815,837.644531 
	C510.448547,834.528442 517.639893,834.925049 521.505493,838.488831 
	C525.312439,841.998474 525.728149,847.888123 522.521179,853.136475 
	C522.175537,853.702209 521.733704,854.209106 521.089600,855.011108 
z"/>
<path fill="#070606" opacity="1.000000" stroke="none" 
	d="
M657.953857,844.155396 
	C666.047424,856.475037 660.300598,869.349182 646.199097,870.621460 
	C639.642639,871.212952 632.988586,870.722473 626.121582,870.722473 
	C626.121582,860.106812 626.121582,849.729675 626.121582,839.154724 
	C633.525879,839.154724 640.832947,838.674316 648.026855,839.367737 
	C651.370361,839.689941 654.494080,842.292419 657.953857,844.155396 
z"/>
<path fill="#070606" opacity="1.000000" stroke="none" 
	d="
M246.192444,846.349487 
	C246.604034,845.224365 246.913284,844.458130 247.589264,842.783142 
	C252.914490,857.219055 257.984131,870.962097 263.233032,885.191101 
	C252.713440,885.191101 242.708023,885.191101 232.171478,885.191101 
	C236.905014,872.103699 241.497559,859.406067 246.192444,846.349487 
z"/>
<path fill="#070606" opacity="1.000000" stroke="none" 
	d="
M733.158691,871.828308 
	C735.261597,875.480652 737.101868,878.870850 739.401489,883.107300 
	C726.425903,883.107300 714.901306,883.107300 702.893372,883.107300 
	C704.079407,876.648804 707.037354,871.767029 712.895630,869.096619 
	C719.984558,865.865417 726.761597,866.434570 733.158691,871.828308 
z"/>
<path fill="#070606" opacity="1.000000" stroke="none" 
	d="
M878.883179,883.430542 
	C868.113953,883.431274 857.830261,883.431274 847.547729,883.431274 
	C847.612671,874.832825 854.694885,867.904602 863.889343,867.162720 
	C872.549438,866.463928 880.841431,872.438721 882.064392,880.202515 
	C882.410889,882.402222 882.056152,883.846008 878.883179,883.430542 
z"/>
<path fill="#070606" opacity="1.000000" stroke="none" 
	d="
M1053.682251,871.243225 
	C1055.991943,875.054688 1058.015869,878.630859 1060.583252,883.167480 
	C1047.362305,883.167480 1035.939819,883.167480 1024.500854,883.167480 
	C1025.951172,869.039124 1040.954346,862.799988 1053.682251,871.243225 
z"/>
<path fill="#B7D234" opacity="1.000000" stroke="none" 
	d="
M741.904175,398.849945 
	C741.955444,398.946777 742.095886,399.122559 742.236389,399.298340 
	C742.144043,399.237427 742.051697,399.176544 741.872314,398.966125 
	C741.785217,398.816650 741.993408,398.928894 741.904175,398.849945 
z"/>
</svg>