<?xml version="1.0" encoding="UTF-8" standalone="no"?>
<!-- Created with Inkscape (http://www.inkscape.org/) -->

<svg
   width="210mm"
   height="297mm"
   viewBox="0 0 210 297"
   version="1.1"
   id="svg1"
   inkscape:version="1.4.3 (0d15f75, 2025-12-25)"
   sodipodi:docname="Tavios-Ask-Receive-logo.svg"
   xmlns:inkscape="http://www.inkscape.org/namespaces/inkscape"
   xmlns:sodipodi="http://sodipodi.sourceforge.net/DTD/sodipodi-0.dtd"
   xmlns="http://www.w3.org/2000/svg"
   xmlns:svg="http://www.w3.org/2000/svg">
  <sodipodi:namedview
     id="namedview1"
     pagecolor="#ffffff"
     bordercolor="#000000"
     borderopacity="0.25"
     inkscape:showpageshadow="2"
     inkscape:pageopacity="0.0"
     inkscape:pagecheckerboard="0"
     inkscape:deskcolor="#d1d1d1"
     inkscape:document-units="mm"
     inkscape:lockguides="false"
     inkscape:zoom="0.88194444"
     inkscape:cx="171.2126"
     inkscape:cy="394.01575"
     inkscape:window-width="1360"
     inkscape:window-height="697"
     inkscape:window-x="-8"
     inkscape:window-y="-8"
     inkscape:window-maximized="1"
     inkscape:current-layer="svg1" />
  <defs
     id="defs1">
    <linearGradient
       id="swatch17"
       inkscape:swatch="solid">
      <stop
         style="stop-color:#000000;stop-opacity:1;"
         offset="0"
         id="stop18" />
    </linearGradient>
    <linearGradient
       id="swatch8"
       inkscape:swatch="solid">
      <stop
         style="stop-color:#fee4e4;stop-opacity:0.90313393;"
         offset="0"
         id="stop8" />
    </linearGradient>
  </defs>
  <rect
     style="fill:#000000;stroke:#000000;stroke-width:0;stroke-dasharray:none;stroke-opacity:1"
     id="rect87"
     width="56.549999"
     height="53.610519"
     x="55.199997"
     y="73.349998" />
  <g
     inkscape:label="Layer 1"
     inkscape:groupmode="layer"
     id="layer1">
    <path
       id="text1"
       style="font-style:normal;font-variant:normal;font-weight:normal;font-stretch:normal;font-size:37.8645px;font-family:System-ui;-inkscape-font-specification:'System-ui, Normal';font-variant-ligatures:normal;font-variant-caps:normal;font-variant-numeric:normal;font-variant-east-asian:normal;writing-mode:lr-tb;direction:ltr;fill:#ffffff;stroke-width:2.286"
       d="m 81.250882,86.346938 c -0.370541,-0.06504 -0.761567,-0.05716 -1.173227,0.0231 -0.548879,0.107027 -1.10494,0.325537 -1.667683,0.656084 -1.214345,0.713289 -2.261074,1.845287 -3.140648,3.395762 l 0.696574,2.433959 c 0.567207,-1.765447 1.476371,-3.015704 2.727736,-3.750739 0.348015,-0.204418 0.694728,-0.338176 1.040025,-0.400988 0.342657,-0.07204 0.665373,-0.06217 0.968288,0.02912 0.302913,0.0913 0.569866,0.268212 0.800781,0.531029 0.238321,0.258466 0.420707,0.609138 0.547368,1.051648 0.14777,0.516266 0.187494,1.047445 0.118999,1.593823 -0.06369,0.532813 -0.179577,1.08009 -0.347483,1.641777 -0.170545,0.552474 -0.36694,1.120046 -0.58932,1.702959 -0.225013,0.573704 -0.418977,1.150838 -0.581605,1.73097 -0.16263,0.580126 -0.271418,1.166415 -0.32672,1.758889 -0.05054,0.578896 0.0086,1.163127 0.177446,1.753139 0.108192,0.37798 0.243661,0.74534 0.406322,1.1021 0.160021,0.34752 0.307636,0.62144 0.442883,0.82199 l 1.788314,-1.0502 c -0.150058,-0.19187 -0.314772,-0.43435 -0.493854,-0.72761 -0.181725,-0.30248 -0.333282,-0.665939 -0.454667,-1.09002 -0.142491,-0.497822 -0.176918,-1.010682 -0.103145,-1.538622 0.07382,-0.527927 0.201176,-1.065674 0.381764,-1.613274 0.185353,-0.561172 0.392952,-1.13529 0.622732,-1.722558 0.22978,-0.587268 0.425468,-1.187021 0.587585,-1.799155 0.166881,-0.625706 0.270301,-1.262398 0.309774,-1.910184 0.03946,-0.647786 -0.03865,-1.312698 -0.233908,-1.994904 -0.205822,-0.719081 -0.493689,-1.287643 -0.864106,-1.70543 -0.370419,-0.417796 -0.795932,-0.695267 -1.276478,-0.832999 -0.118942,-0.03782 -0.240232,-0.068 -0.363745,-0.08967 z" />
    <path
       id="text2"
       style="font-style:normal;font-variant:normal;font-weight:normal;font-stretch:normal;font-size:40.1308px;font-family:Georgia;-inkscape-font-specification:'Georgia, Normal';font-variant-ligatures:normal;font-variant-caps:normal;font-variant-numeric:normal;font-variant-east-asian:normal;writing-mode:lr-tb;direction:ltr;fill:#ffffff;stroke-width:0.232055"
       d="m 94.63057,86.484547 c -0.112745,-0.01893 -0.22986,-0.02091 -0.350963,-0.0058 -0.484392,0.06022 -0.915534,0.361484 -1.293933,0.903592 -0.331924,0.475535 -1.346976,2.211828 -3.04517,5.208055 -1.69193,3.004854 -3.355388,5.871889 -4.99008,8.601126 l 0.732903,1.00932 c 1.929078,-2.323584 3.946245,-4.702986 6.051562,-7.138238 2.105317,-2.435255 3.323934,-3.890476 3.655868,-4.366009 0.385031,-0.55162 0.591075,-1.163476 0.617855,-1.835573 0.03343,-0.681618 -0.125556,-1.264184 -0.476316,-1.74749 -0.263067,-0.362477 -0.56349,-0.572206 -0.901727,-0.628949 z" />
    <circle
       style="fill:#ffffff;stroke-width:0.139851"
       id="path7"
       cx="83.849998"
       cy="104.7"
       r="1.85" />
    <path
       id="path18"
       style="baseline-shift:baseline;display:inline;overflow:visible;opacity:1;vector-effect:none;fill:#ffffff;stroke-width:1.03365;enable-background:accumulate;stop-color:#000000;stop-opacity:1"
       d="m 84.352603,81.555228 c -7.531514,3.2e-5 -13.649266,6.252482 -13.649296,13.949536 2.8e-5,6.911316 4.932556,12.658096 11.39207,13.759366 0.04788,-0.0335 0.09498,-0.0689 0.135909,-0.11059 0.0425,-0.0457 0.08422,-0.0917 0.12609,-0.13797 0.02993,-0.0344 0.05833,-0.0705 0.08372,-0.10853 0.02935,-0.0472 0.05652,-0.096 0.08527,-0.14366 0.01747,-0.0312 0.03436,-0.0627 0.04703,-0.0961 0.01062,-0.0353 0.01422,-0.0726 0.01912,-0.10904 0.0049,-0.0401 0.0063,-0.0805 0.0047,-0.12092 -9e-4,-0.034 -0.0022,-0.068 -0.0062,-0.10181 -0.0054,-0.0365 -0.01486,-0.0722 -0.02532,-0.10748 -0.01146,-0.0445 -0.02286,-0.0889 -0.04237,-0.13075 -0.0015,-0.003 -0.0032,-0.007 -0.0047,-0.0103 -6.009004,-0.90445 -10.611214,-6.1872 -10.611239,-12.582176 2.6e-5,-7.031839 5.564629,-12.718576 12.445235,-12.718604 2.931185,1.3e-5 5.62378,1.031612 7.748881,2.760039 0.03901,-0.0038 0.07805,-0.0064 0.116789,-0.01189 0.0046,-6.52e-4 0.009,1.43e-4 0.01344,-0.001 0.02291,-0.0072 0.04435,-0.01841 0.06718,-0.02584 0.02124,-0.0094 0.04253,-0.01973 0.06356,-0.02945 0.0287,-0.02236 0.05597,-0.04723 0.08682,-0.06666 0.03171,-0.02291 0.06247,-0.04588 0.09457,-0.06821 0.03286,-0.02514 0.06635,-0.05014 0.09663,-0.07855 0.01441,-0.01171 0.02295,-0.02839 0.03307,-0.04444 0.01636,-0.03277 0.03514,-0.06395 0.04961,-0.09767 0.01551,-0.03927 0.03304,-0.07724 0.04909,-0.116272 0.01413,-0.03486 0.03051,-0.06892 0.04186,-0.104903 0.01207,-0.02799 0.02074,-0.05785 0.03307,-0.08578 0.0082,-0.02592 0.0086,-0.05341 0.0155,-0.07958 0.0037,-0.03486 -6.65e-4,-0.07044 0.0015,-0.10542 1.45e-4,-0.0088 3.32e-4,-0.01754 5.17e-4,-0.02636 -2.334854,-1.907549 -5.294418,-3.048896 -8.512142,-3.048909 z m 9.82369,6.161381 c 0.0081,0.0106 0.01582,0.02193 0.02377,0.03256 0.0083,0.0057 0.01664,0.01114 0.02481,0.01705 -0.01535,-0.01533 -0.03211,-0.03263 -0.04858,-0.04961 z m 2.331641,1.53789 v 5.17e-4 c -0.0032,0.0048 -0.0061,0.0097 -0.0093,0.01447 0.0083,0.0017 0.01438,0.0019 0.01757,0.001 l 5.17e-4,-5.17e-4 h 5.16e-4 5.17e-4 v -5.16e-4 h 5.17e-4 v -5.17e-4 h 5.17e-4 v -5.17e-4 -5.17e-4 -5.17e-4 -5.16e-4 -5.17e-4 c -0.0012,-0.0027 -0.0053,-0.0072 -0.01085,-0.01189 z m 0.59893,2.100131 c -0.0645,0.0031 -0.129125,0.0058 -0.19172,0.02325 -0.04595,0.01068 -0.0877,0.0333 -0.129191,0.05529 -0.0497,0.02592 -0.09607,0.05864 -0.141594,0.09147 -0.03695,0.02525 -0.07325,0.05112 -0.104386,0.08372 -0.0238,0.02088 -0.04246,0.04635 -0.06098,0.07183 -0.0066,0.01978 -0.01529,0.03877 -0.02377,0.05788 -0.02005,0.03466 -0.0334,0.07251 -0.04961,0.109037 -0.01644,0.03546 -0.03113,0.07143 -0.04496,0.108004 -0.0093,0.02771 -0.01935,0.05509 -0.02894,0.08268 0.304007,1.101894 0.466633,2.264832 0.466638,3.466972 -2.8e-5,6.993017 -5.503493,12.656287 -12.331547,12.718607 -0.0082,0.009 -0.0177,0.0128 -0.02842,0.0114 -0.01528,0.0221 -0.02863,0.0455 -0.04082,0.0693 -0.03435,0.0618 -0.06055,0.12782 -0.077,0.19689 -0.01499,0.10159 -0.01802,0.20393 -0.0217,0.30644 -0.0039,0.0886 0.0039,0.17743 0.01602,0.2651 0.0094,0.075 0.03956,0.1408 0.07751,0.20464 0.03135,0.0557 0.06967,0.10744 0.107487,0.15864 0.0041,0.006 0.0077,0.0117 0.01189,0.0176 7.458302,-0.0875 13.491136,-6.30579 13.491166,-13.948497 -5e-6,-1.404718 -0.203936,-2.761238 -0.58291,-4.04058 -0.01489,-0.0092 -0.02995,-0.01892 -0.04496,-0.02791 -0.02584,-0.01275 -0.04803,-0.03325 -0.07441,-0.04496 -0.0027,-0.0011 -0.0055,-6.18e-4 -0.0083,-0.001 -0.01592,-0.0039 -0.03165,-0.0085 -0.04754,-0.0124 -0.04581,-0.0063 -0.09139,-0.02607 -0.137976,-0.02325 z m -12.829192,18.07951 c -2.7e-5,4.6e-4 -1.8e-5,0.001 0,0.002 h 5.17e-4 c 5e-5,-2.5e-4 -3.8e-5,-10e-4 0,-0.002 z" />
    <text
       xml:space="preserve"
       style="font-style:normal;font-variant:normal;font-weight:normal;font-stretch:normal;font-size:37.8645px;font-family:Georgia;-inkscape-font-specification:'Georgia, Normal';font-variant-ligatures:normal;font-variant-caps:normal;font-variant-numeric:normal;font-variant-east-asian:normal;writing-mode:lr-tb;direction:ltr;fill:none;stroke:#fee4e4;stroke-width:1.8;stroke-dasharray:none;stroke-opacity:0.903134"
       x="63.427479"
       y="155.70491"
       id="text81"><tspan
         sodipodi:role="line"
         id="tspan81"
         style="stroke-width:1.8"
         x="63.427479"
         y="155.70491" /></text>
    <text
       xml:space="preserve"
       style="font-style:normal;font-variant:normal;font-weight:normal;font-stretch:normal;font-size:3.52777778px;font-family:Georgia;-inkscape-font-specification:'Georgia, Normal';font-variant-ligatures:normal;font-variant-caps:normal;font-variant-numeric:normal;font-variant-east-asian:normal;writing-mode:lr-tb;direction:ltr;fill:none;stroke:#fee4e4;stroke-width:1.8;stroke-dasharray:none;stroke-opacity:0.903134"
       x="85.064949"
       y="148.91669"
       id="text82"><tspan
         sodipodi:role="line"
         id="tspan82"
         style="stroke-width:1.8;font-size:3.52777778px"
         x="85.064949"
         y="148.91669" /></text>
    <text
       xml:space="preserve"
       style="font-style:normal;font-variant:normal;font-weight:normal;font-stretch:normal;font-size:3.52777px;font-family:Georgia;-inkscape-font-specification:'Georgia, Normal';font-variant-ligatures:normal;font-variant-caps:normal;font-variant-numeric:normal;font-variant-east-asian:normal;writing-mode:lr-tb;direction:ltr;fill:none;stroke:#000000;stroke-width:1.8;stroke-dasharray:none;stroke-opacity:1"
       x="73.821945"
       y="119.8546"
       id="text83"><tspan
         sodipodi:role="line"
         id="tspan83"
         style="stroke-width:1.8;stroke:#000000;stroke-opacity:1"
         x="73.821945"
         y="119.8546" /></text>
    <text
       xml:space="preserve"
       style="font-style:normal;font-variant:normal;font-weight:normal;font-stretch:normal;font-size:3.52777px;font-family:Georgia;-inkscape-font-specification:'Georgia, Normal';font-variant-ligatures:normal;font-variant-caps:normal;font-variant-numeric:normal;font-variant-east-asian:normal;writing-mode:lr-tb;direction:ltr;fill:none;stroke:#000000;stroke-width:1.8;stroke-dasharray:none;stroke-opacity:1"
       x="60.881893"
       y="129.1884"
       id="text84"><tspan
         sodipodi:role="line"
         id="tspan84"
         style="stroke-width:1.8"
         x="60.881893"
         y="129.1884" /></text>
    <text
       xml:space="preserve"
       style="font-style:normal;font-variant:normal;font-weight:normal;font-stretch:normal;font-size:3.52777px;font-family:System-ui;-inkscape-font-specification:System-ui;font-variant-ligatures:normal;font-variant-caps:normal;font-variant-numeric:normal;font-variant-east-asian:normal;writing-mode:lr-tb;direction:ltr;fill:none;stroke:#000000;stroke-width:1.8;stroke-dasharray:none;stroke-opacity:1"
       x="65.442734"
       y="127.80955"
       id="text85"><tspan
         sodipodi:role="line"
         id="tspan85"
         style="stroke-width:1.8;-inkscape-font-specification:System-ui;font-family:System-ui;font-weight:normal;font-style:normal;font-stretch:normal;font-variant:normal"></tspan></text>
    <text
       xml:space="preserve"
       style="font-style:normal;font-variant:normal;font-weight:normal;font-stretch:normal;font-size:5.64444px;font-family:System-ui;-inkscape-font-specification:System-ui;font-variant-ligatures:normal;font-variant-caps:normal;font-variant-numeric:normal;font-variant-east-asian:normal;writing-mode:lr-tb;direction:ltr;fill:none;stroke:#000000;stroke-width:0;stroke-dasharray:none;stroke-opacity:1;letter-spacing:0px"
       x="67.192818"
       y="126.16553"
       id="text86"><tspan
         sodipodi:role="line"
         id="tspan86"
         style="font-size:5.64444px;stroke-width:0;stroke-dasharray:none;letter-spacing:0px"
         x="67.192818"
         y="126.16553" /></text>
    <text
       xml:space="preserve"
       style="font-style:normal;font-variant:normal;font-weight:normal;font-stretch:normal;font-size:5.64444px;font-family:'Franklin Gothic Medium';-inkscape-font-specification:'Franklin Gothic Medium, Normal';font-variant-ligatures:normal;font-variant-caps:normal;font-variant-numeric:normal;font-variant-east-asian:normal;letter-spacing:0px;writing-mode:lr-tb;direction:ltr;fill:#ffffff;stroke:#000000;stroke-width:0;stroke-dasharray:none;stroke-opacity:1"
       x="66.621681"
       y="115.5033"
       id="text87"><tspan
         sodipodi:role="line"
         id="tspan87"
         style="font-style:normal;font-variant:normal;font-weight:normal;font-stretch:normal;font-size:5.64444px;font-family:'Franklin Gothic Medium';-inkscape-font-specification:'Franklin Gothic Medium, Normal';font-variant-ligatures:normal;font-variant-caps:normal;font-variant-numeric:normal;font-variant-east-asian:normal;fill:#ffffff;stroke-width:0"
         x="66.621681"
         y="115.5033">Ask &amp; Receive</tspan></text>
  </g>
</svg>
