<svg xmlns="http://www.w3.org/2000/svg" viewBox="0 0 1254 1254" role="img" aria-label="Ask & Receive logo">
  <path d="M0 0 C413.82 0 827.64 0 1254 0 C1254 413.82 1254 827.64 1254 1254 C840.18 1254 426.36 1254 0 1254 C0 840.18 0 426.36 0 0 Z " fill="#000000" transform="translate(0,0)"/>
  <path d="M0 0 C2.66130122 -0.00216405 5.32217144 -0.02030493 7.98339844 -0.03930664 C23.28706617 -0.08896399 38.90347262 0.5129846 53.82714844 4.18530273 C54.65859375 4.37737305 55.49003906 4.56944336 56.34667969 4.76733398 C75.06880322 9.24493276 93.22833935 14.59393724 110.38964844 23.42358398 C112.64391391 24.57889504 114.91469701 25.70264355 117.20214844 26.79077148 C128.0893922 31.98089136 128.0893922 31.98089136 130.82714844 36.18530273 C131.62493476 40.54919394 131.3124954 44.04473738 129.57714844 48.12280273 C126.60337286 51.62760967 124.7988705 52.103891 120.19042969 52.48999023 C115.2300302 52.44117734 111.88437952 50.48327925 107.70214844 47.99780273 C101.22876972 44.35550519 95.00176027 41.57138571 87.94042969 39.22827148 C85.24667212 38.3258458 82.6834165 37.30861759 80.07714844 36.18530273 C49.47178952 23.75187568 9.56462895 18.67233824 -23.17285156 24.18530273 C-23.50285156 24.51530273 -23.83285156 24.84530273 -24.17285156 25.18530273 C-25.94067711 25.34737842 -27.7127401 25.46374024 -29.48535156 25.56030273 C-34.94918351 25.96766535 -39.9283194 27.01249824 -45.20410156 28.44702148 C-48.0370145 29.1515222 -50.78006405 29.56557849 -53.67285156 29.93530273 C-101.88488736 37.48429255 -151.09785364 74.51657591 -179.28222656 113.10327148 C-194.86180169 134.92590702 -206.97797963 158.64628776 -215.17285156 184.18530273 C-215.39569824 184.86963379 -215.61854492 185.55396484 -215.84814453 186.2590332 C-222.44059934 206.87922432 -224.54270335 227.51992421 -224.54785156 249.06030273 C-224.54975494 249.91109406 -224.55165833 250.76188538 -224.55361938 251.63845825 C-224.551221 261.10488792 -224.1862969 270.48369069 -223.27050781 279.90795898 C-223.19299286 280.7123642 -223.11547791 281.51676941 -223.03561401 282.34555054 C-222.1998995 290.17867286 -220.31008202 297.62085318 -218.17285156 305.18530273 C-217.94855469 306.08635742 -217.72425781 306.98741211 -217.49316406 307.91577148 C-208.1018082 345.30728092 -188.42848108 380.03570397 -161.64794922 407.66333008 C-160.17021306 409.18802509 -158.70890401 410.72740567 -157.24707031 412.26733398 C-150.12098063 419.67610174 -142.41989461 426.06265298 -134.17285156 432.18530273 C-133.35558594 432.79760742 -132.53832031 433.40991211 -131.69628906 434.04077148 C-126.32355446 437.92723414 -120.69196912 441.39879453 -115.04785156 444.87280273 C-114.29536133 445.33686523 -113.54287109 445.80092773 -112.76757812 446.27905273 C-108.01155443 449.17311713 -103.17713808 451.7508774 -98.17285156 454.18530273 C-97.274375 454.65194336 -96.37589844 455.11858398 -95.45019531 455.59936523 C-90.74240233 458.03578564 -86.33188126 459.95162172 -81.17285156 461.18530273 C-81.17285156 461.84530273 -81.17285156 462.50530273 -81.17285156 463.18530273 C-80.20798828 463.34772461 -80.20798828 463.34772461 -79.22363281 463.51342773 C-76.02067124 464.21881748 -72.96513311 465.16213358 -69.84155273 466.15307617 C-54.76283909 470.90681016 -39.3099607 474.6062907 -23.54785156 476.06030273 C-19.13698271 476.5949535 -16.39068858 477.08968289 -13.23535156 480.31030273 C-10.54317281 484.40820773 -10.33511181 487.38733867 -11.17285156 492.18530273 C-12.95132785 495.19503183 -14.99457823 497.59616607 -18.17285156 499.18530273 C-65.85981858 504.27970727 -121.30379336 472.8820802 -157.17285156 444.18530273 C-162.39362421 439.74825732 -167.29452398 434.99175319 -172.17285156 430.18530273 C-173.4134672 428.98320134 -174.65435412 427.78137984 -175.89550781 426.57983398 C-182.82461467 419.81981939 -189.31432404 412.91148165 -195.17285156 405.18530273 C-195.65044922 404.56236328 -196.12804687 403.93942383 -196.62011719 403.29760742 C-230.16585927 359.28709772 -248.450038 305.8431776 -248.36035156 250.56030273 C-248.35941498 249.81007843 -248.35847839 249.05985413 -248.35751343 248.28689575 C-248.32654204 236.81481904 -248.07314208 225.52016665 -246.17285156 214.18530273 C-246.016875 213.25024902 -245.86089844 212.31519531 -245.70019531 211.35180664 C-238.92395738 172.11864388 -223.77792171 134.39222048 -200.17285156 102.18530273 C-199.78516602 101.65340332 -199.39748047 101.12150391 -198.99804688 100.57348633 C-192.62998324 91.88715546 -185.63748716 83.94050502 -178.17285156 76.18530273 C-177.62081055 75.60603027 -177.06876953 75.02675781 -176.5 74.42993164 C-168.7863374 66.36604849 -160.78157009 59.1138508 -151.84130859 52.43481445 C-150.22100101 51.22136198 -148.61655483 49.98681959 -147.01269531 48.75170898 C-113.09836615 22.80177712 -72.05780677 6.07221683 -29.61230469 1.45166016 C-28.07777905 1.28410937 -26.54474561 1.10153159 -25.01464844 0.89746094 C-16.71119113 -0.12234141 -8.35240689 -0.00075628 0 0 Z " fill="currentColor" transform="translate(624.1728515625,268.814697265625)"/>
  <path d="M0 0 C9.55064141 6.56262884 16.59564648 15.77739147 19.390625 27.1015625 C21.40501701 40.1053604 18.36884111 51.37510236 10.74609375 62.0546875 C10.09898437 62.910625 9.451875 63.7665625 8.78515625 64.6484375 C8.1514209 65.48955078 8.1514209 65.48955078 7.50488281 66.34765625 C4.25803299 70.64723894 0.97324246 74.91698789 -2.31738281 79.18310547 C-5.71497039 83.59752124 -9.08944848 88.0295438 -12.46484375 92.4609375 C-13.14933594 93.3590918 -13.83382812 94.25724609 -14.5390625 95.18261719 C-18.76753758 100.73505655 -22.96717473 106.30745082 -27.14453125 111.8984375 C-29.90035366 115.5590016 -32.69974023 119.18513986 -35.49902344 122.8125 C-38.13938537 126.23827321 -40.75095027 129.6834546 -43.33984375 133.1484375 C-47.53315727 138.75931365 -51.7776702 144.33015693 -56.02734375 149.8984375 C-63.53906294 159.74406455 -70.98161016 169.63947474 -78.390625 179.5625 C-86.6354129 190.58660435 -95.00836872 201.5135725 -103.35839844 212.45800781 C-113.60797337 225.89153992 -113.60797337 225.89153992 -123.765625 239.39453125 C-126.42935605 242.9465572 -129.13100606 246.46951245 -131.82763672 249.99658203 C-137.97801406 258.04316891 -144.08374136 266.11841332 -150.08984375 274.2734375 C-150.67854248 275.07273682 -151.26724121 275.87203613 -151.8737793 276.69555664 C-154.04304726 279.65066533 -156.18092746 282.59756306 -158.21484375 285.6484375 C-160.92866943 285.01221961 -163.49972274 284.22594305 -166.10546875 283.23828125 C-166.81445312 282.97080078 -167.5234375 282.70332031 -168.25390625 282.42773438 C-168.98351562 282.14994141 -169.713125 281.87214844 -170.46484375 281.5859375 C-171.20992187 281.30427734 -171.955 281.02261719 -172.72265625 280.73242188 C-174.55413768 280.0397462 -176.38459298 279.34435843 -178.21484375 278.6484375 C-177.66209832 274.63162584 -176.80723758 271.28243963 -175.125 267.59765625 C-174.67962891 266.61031494 -174.23425781 265.62297363 -173.77539062 264.60571289 C-173.03385742 262.98717407 -173.03385742 262.98717407 -172.27734375 261.3359375 C-171.47226645 259.55150705 -170.66725191 257.76704767 -169.86386108 255.9818573 C-169.2781901 254.68059265 -168.69176039 253.37966927 -168.10464478 252.07905579 C-164.07820915 243.15097315 -160.14954533 234.1797214 -156.21484375 225.2109375 C-155.82649353 224.32637878 -155.43814331 223.44182007 -155.0380249 222.53045654 C-149.31294949 209.48751274 -143.65736915 196.4174158 -138.06640625 183.31640625 C-134.995784 176.12423649 -131.88945153 168.94771726 -128.77734375 161.7734375 C-128.50832245 161.1531366 -128.23930115 160.53283569 -127.96212769 159.89373779 C-126.324463 156.11785568 -124.68606022 152.34229421 -123.04742432 148.5668335 C-113.60039758 126.80841229 -113.60039758 126.80841229 -104.21484375 105.0234375 C-103.85277832 104.17966553 -103.49071289 103.33589355 -103.11767578 102.46655273 C-100.78164325 97.00865116 -98.49857577 91.53239274 -96.28515625 86.0234375 C-95.21484375 83.6484375 -95.21484375 83.6484375 -93.734375 81.25390625 C-91.97665087 78.24001938 -90.92157703 75.25818294 -89.77734375 71.9609375 C-84.86999507 58.32173367 -78.51870323 45.09464995 -71.96484375 32.17578125 C-70.57131854 29.366957 -69.39621154 26.65367634 -68.33984375 23.7109375 C-63.41766583 11.25286704 -54.3520343 1.39666952 -42.21484375 -4.3515625 C-28.2691247 -9.34935098 -12.46469376 -7.60632106 0 0 Z " fill="currentColor" transform="translate(813.21484375,363.3515625)"/>
  <path d="M0 0 C0.95261719 0.42023438 1.90523437 0.84046875 2.88671875 1.2734375 C10.56594251 4.83282162 16.72943198 9.34512219 23 15 C23.77085937 15.67675781 24.54171875 16.35351562 25.3359375 17.05078125 C41.86101841 32.44519873 50.2299004 53.52302929 51.2734375 75.8046875 C52.00014022 101.41781517 42.36874458 121.46954794 29.25195312 142.92797852 C13.97930868 167.99793546 13.53830619 191.96933584 20 220 C20.32513667 221.4227906 20.64998625 222.84564683 20.97460938 224.26855469 C21.33195605 225.83269947 21.68937999 227.39682661 22.046875 228.9609375 C22.22694092 229.74888199 22.40700684 230.53682648 22.5925293 231.34864807 C23.5029362 235.32523816 24.4215183 239.29959186 25.35742188 243.27026367 C25.61836639 244.38717087 25.61836639 244.38717087 25.88458252 245.52664185 C26.21361966 246.93420724 26.54607652 248.34097913 26.88250732 249.74679565 C27.63201723 252.9681927 28 255.66191636 28 259 C27.24976563 259.14695312 26.49953125 259.29390625 25.7265625 259.4453125 C18.97421413 260.92504627 13.72260829 262.96117798 7.9609375 266.79296875 C6 268 6 268 4 268 C2.4256177 266.01477291 1.01798086 264.0473365 -0.375 261.9375 C-0.8076416 261.28571777 -1.2402832 260.63393555 -1.68603516 259.96240234 C-11.47542538 244.81124607 -20.13144457 228.1606798 -25.1875 210.8125 C-25.44724609 209.94947266 -25.70699219 209.08644531 -25.97460938 208.19726562 C-32.95000833 184.63952291 -30.07454505 160.08216554 -18.578125 138.59375 C-15.9383283 133.81697501 -13.15060467 129.12706436 -10.38476562 124.42260742 C-0.04165302 106.80840728 9.37690975 90.39750277 4.4375 69.5 C2.57954956 62.63947942 -0.37817199 57.37581267 -5 52 C-5.81984375 51.01580078 -5.81984375 51.01580078 -6.65625 50.01171875 C-11.04298433 45.18010334 -16.0327766 42.51396912 -22 40 C-22.7321875 39.67902344 -23.464375 39.35804688 -24.21875 39.02734375 C-35.76701247 34.5293792 -48.9253655 36.92770004 -60.203125 41.21875 C-72.34340052 46.82195409 -81.45275795 55.8236886 -87 68 C-90.06495968 77.20954391 -90.64632945 86.38991747 -91 96 C-95.06114852 97.42056074 -99.1241664 98.83570276 -103.1875 100.25 C-104.31865234 100.64574219 -105.44980469 101.04148437 -106.61523438 101.44921875 C-128.33920338 109 -128.33920338 109 -133 109 C-139.25465363 85.54504889 -133.55163883 60.79483859 -122.375 39.8125 C-117.8857801 32.28468766 -112.23922461 26.11537963 -106 20 C-105.21367187 19.2265625 -104.42734375 18.453125 -103.6171875 17.65625 C-91.98145762 6.8129175 -78.19268814 0.19232196 -63 -4 C-62.05125 -4.30164063 -61.1025 -4.60328125 -60.125 -4.9140625 C-41.22798722 -10.29166986 -17.71409719 -8.41348073 0 0 Z " fill="currentColor" transform="translate(592,383)"/>
  <path d="M0 0 C3.73009624 0.05853218 4.98869051 0.20264693 8.1875 2.3125 C12.69900391 9.01139975 13.97423003 17.09879126 15.375 24.9375 C15.54386719 25.81212891 15.71273437 26.68675781 15.88671875 27.58789062 C18.45656365 41.72203755 18.51796146 56.23240681 18.5625 70.5625 C18.56642761 71.78999969 18.56642761 71.78999969 18.57043457 73.04229736 C18.57761559 94.20938691 16.19740456 115.00292019 10.25 135.375 C9.89870088 136.69469161 9.54982331 138.01502974 9.203125 139.3359375 C-0.63713834 175.88425067 -20.38003613 210.14556811 -46.23828125 237.67578125 C-48.27360852 239.86304586 -50.21121052 242.08317803 -52.125 244.375 C-69.78684692 264.57782018 -93.33312066 279.64779126 -116.74707031 292.27612305 C-118.67069162 293.33148866 -120.5618264 294.43099793 -122.453125 295.54296875 C-125.30562565 297.12806686 -127.91720579 298.286478 -131 299.3125 C-134.76653028 300.56995964 -138.30091754 302.09172775 -141.88671875 303.78515625 C-147.56974921 306.39135327 -153.2877791 308.23383823 -159.3125 309.875 C-160.38024658 310.16834229 -161.44799316 310.46168457 -162.5480957 310.76391602 C-201.15382157 321.09122197 -201.15382157 321.09122197 -212.75 318.375 C-216.490506 316.13339713 -218.15152405 313.53288512 -219.3046875 309.375 C-219.67876595 305.54443669 -218.76899167 302.82633013 -216.4765625 299.76171875 C-212.09374451 294.89466169 -206.59192377 294.83171779 -200.375 294.1875 C-198.02144403 293.8842243 -195.6685654 293.57564422 -193.31640625 293.26171875 C-192.18219238 293.11524902 -191.04797852 292.9687793 -189.87939453 292.81787109 C-183.35883305 291.89508294 -177.06332692 290.23004219 -170.75 288.375 C-169.99138672 288.15585937 -169.23277344 287.93671875 -168.45117188 287.7109375 C-159.18074923 285.00489592 -150.29312346 282.02926191 -141.609375 277.76953125 C-139.56406141 276.77202176 -137.48623897 275.8401058 -135.390625 274.953125 C-112.70592346 265.11984236 -92.51640567 250.4344759 -74.75 233.375 C-74.18635742 232.83858887 -73.62271484 232.30217773 -73.04199219 231.74951172 C-64.45117953 223.53582198 -56.76227352 214.97306663 -49.75 205.375 C-49.35474121 204.83520508 -48.95948242 204.29541016 -48.55224609 203.73925781 C-33.87023402 183.50305349 -22.24084814 161.25168666 -14.75 137.375 C-14.38519531 136.27027344 -14.02039063 135.16554688 -13.64453125 134.02734375 C-8.54337798 117.62938362 -5.60404822 99.73615603 -5.58203125 82.56640625 C-5.57870285 81.6414183 -5.57537445 80.71643036 -5.57194519 79.76341248 C-5.5669051 77.81111137 -5.56453596 75.85880174 -5.56469727 73.90649414 C-5.5625294 70.97722425 -5.54439379 68.04834315 -5.52539062 65.11914062 C-5.48309083 51.15340605 -6.22151805 37.65244731 -9.375 24 C-10.68042099 18.15252144 -11.88267271 12.34449131 -10.75 6.375 C-8.3125 3.25 -8.3125 3.25 -5.75 1.375 C-4.10843264 -0.26656736 -2.25784199 0.08684008 0 0 Z " fill="currentColor" transform="translate(859.75,449.625)"/>
  <path d="M0 0 C0.77794922 -0.02900391 1.55589844 -0.05800781 2.35742188 -0.08789062 C10.23883208 -0.17334378 16.64827132 2.80561101 22.3125 8.3125 C26.98415706 13.99424507 26.97458581 19.48936771 26.75390625 26.71484375 C25.78244078 34.63271721 21.19157739 38.90712899 15.25 43.8359375 C13.03414626 45.52463249 10.7736183 47.0050309 8.3125 48.3125 C9.8561107 51.90595931 12.03868334 54.39438204 14.6875 57.25 C17.04727709 59.80313675 19.32776059 62.33192006 21.4765625 65.06640625 C23.11590665 67.38482338 23.11590665 67.38482338 25.3125 68.3125 C25.498125 67.26835938 25.498125 67.26835938 25.6875 66.203125 C26.36545584 63.06757922 27.29370335 60.10390763 28.3125 57.0625 C28.663125 56.00546875 29.01375 54.9484375 29.375 53.859375 C30.3125 51.3125 30.3125 51.3125 31.3125 50.3125 C33.84299402 50.23936433 36.34554837 50.22002473 38.875 50.25 C39.58591797 50.25451172 40.29683594 50.25902344 41.02929688 50.26367188 C42.79040013 50.27549136 44.55146036 50.29342737 46.3125 50.3125 C44.88817997 59.12079492 42.20717932 66.82633449 38 74.6875 C36.12150671 77.93977562 36.12150671 77.93977562 36.47265625 80.234375 C37.58189007 82.97908381 39.17499642 84.90972313 41.0625 87.1875 C42.14144531 88.49654297 42.14144531 88.49654297 43.2421875 89.83203125 C43.92539062 90.65058594 44.60859375 91.46914063 45.3125 92.3125 C45.83070313 92.95574219 46.34890625 93.59898437 46.8828125 94.26171875 C49.22328291 97.2262063 49.22328291 97.2262063 52.3125 99.3125 C52.3125 99.9725 52.3125 100.6325 52.3125 101.3125 C34.44388395 102.62767061 34.44388395 102.62767061 29.42578125 99.53125 C27.74096834 97.52501576 26.43140322 95.67697474 25.3125 93.3125 C20.74309812 95.00154676 16.90229941 97.35901881 12.8125 99.97265625 C7.26398241 102.9463149 1.13840147 102.52823119 -5 102.5625 C-5.91201172 102.583125 -6.82402344 102.60375 -7.76367188 102.625 C-17.36809638 102.68007914 -23.64595267 100.24177679 -30.6328125 93.60546875 C-36.38882709 87.18193156 -38.51997783 80.79875493 -38.1015625 72.19921875 C-36.93224332 64.04707846 -32.66301972 57.8363816 -26.6875 52.3125 C-23.78197921 50.14261266 -20.79815173 48.17465886 -17.6875 46.3125 C-19.74152317 42.1052255 -22.05508675 38.0494116 -24.34765625 33.96875 C-27.03577771 28.63952961 -27.61231905 23.00497606 -26.15625 17.19140625 C-23.43236144 9.36022663 -18.89925787 5.16271981 -11.6875 1.3125 C-7.79179113 0.01393038 -4.06219608 0.04925864 0 0 Z " fill="currentColor" transform="translate(511.6875,821.6875)"/>
  <path d="M0 0 C52.14099217 0 52.14099217 0 61.6796875 8.49609375 C68.8875772 16.25981574 70.69773426 23.9088581 70.3828125 34.40625 C69.5470079 42.25257888 65.93480848 48.7816946 60 54 C56.37033566 56.32794411 53.35508873 58 49 58 C54.66744573 69.07184546 61.52312637 79.3987702 68.48828125 89.6875 C69.57689453 91.29625 69.57689453 91.29625 70.6875 92.9375 C71.33074219 93.87464844 71.97398437 94.81179688 72.63671875 95.77734375 C74 98 74 98 74 100 C67.32657263 101.25750526 60.52980725 102.38840258 54 100 C48.51842173 95.20104308 45.51011032 88.21434898 42.37548828 81.76269531 C40.40071594 77.79632615 38.08926949 74.07091058 35.75 70.3125 C32.2690321 64.53806421 32.2690321 64.53806421 31 62 C24.07 61.505 24.07 61.505 17 61 C17 73.87 17 86.74 17 100 C11.39 100 5.78 100 0 100 C0 67 0 34 0 0 Z " fill="#FFFFFF" transform="translate(608,823)"/>
  <path d="M0 0 C6.27 0 12.54 0 19 0 C25.89575308 14.62735503 31.35995193 29.85604449 37 45 C41.38911035 56.79736684 41.38911035 56.79736684 46.00390625 68.5078125 C47.20497018 71.51282735 48.35071165 74.53732154 49.5 77.5625 C51.21689066 82.05811215 53.03829134 86.4592167 55.10546875 90.8046875 C56.31803381 93.78050218 57.11721765 96.91026177 58 100 C51.73 100 45.46 100 39 100 C37.66058446 96.56475792 36.32825585 93.12705443 35 89.6875 C34.6184375 88.71103516 34.236875 87.73457031 33.84375 86.72851562 C33.4828125 85.79072266 33.121875 84.85292969 32.75 83.88671875 C32.24726563 82.59060669 32.24726563 82.59060669 31.734375 81.26831055 C31 79 31 79 31 76 C16.81 76 2.62 76 -12 76 C-12.99 79.3 -13.98 82.6 -15 86 C-16.60979423 90.6888091 -18.30935029 95.33928999 -20 100 C-25.94 100 -31.88 100 -38 100 C-36.04898396 93.26534001 -33.86136257 86.72070067 -31.33203125 80.18359375 C-30.97972443 79.2645929 -30.6274176 78.34559204 -30.26443481 77.39874268 C-29.11750016 74.41022054 -27.96518048 71.42381014 -26.8125 68.4375 C-26.01291138 66.3585532 -25.21351604 64.27953206 -24.41430664 62.20043945 C-18.95652837 48.01610894 -13.45855706 33.84731052 -7.9375 19.6875 C-7.59071198 18.7977951 -7.24392395 17.90809021 -6.8866272 16.99142456 C-5.91397416 14.49768888 -4.93978214 12.00456172 -3.96484375 9.51171875 C-3.67715118 8.77439514 -3.38945862 8.03707153 -3.0930481 7.27740479 C-1.11637678 2.23275355 -1.11637678 2.23275355 0 0 Z " fill="#FFFFFF" transform="translate(237,823)"/>
  <path d="M0 0 C9.45294273 5.84506959 14.86268725 13.00603051 18.34375 23.44921875 C19.24488491 33.86425879 17.24650528 42.85587843 11.140625 51.41015625 C8.03316251 54.93645065 4.45787687 57.23610223 0.34375 59.44921875 C-0.25953125 59.78953125 -0.8628125 60.12984375 -1.484375 60.48046875 C-8.73222342 63.88380627 -18.01165137 63.5814538 -25.63671875 61.72265625 C-34.53000231 58.4129017 -40.19152796 52.70697898 -44.65625 44.44921875 C-48.28149832 36.04461684 -49.20105417 27.12842684 -46.21875 18.38671875 C-42.05253168 9.2558779 -35.09058041 2.54473445 -25.96875 -1.55078125 C-17.49706553 -4.1082709 -8.05009976 -3.82379738 0 0 Z " fill="currentColor" transform="translate(641.65625,660.55078125)"/>
  <path d="M0 0 C0.9295752 0.00950684 1.85915039 0.01901367 2.81689453 0.02880859 C9.75234008 0.23978663 15.00626923 1.28318383 20.625 5.5625 C21.59759766 6.21412109 21.59759766 6.21412109 22.58984375 6.87890625 C29.13897855 11.73883504 32.06221053 18.74855266 33.625 26.5625 C33.625 31.1825 33.625 35.8025 33.625 40.5625 C16.795 40.5625 -0.035 40.5625 -17.375 40.5625 C-14.47601385 49.60413767 -14.47601385 49.60413767 -8.375 54.5625 C-2.2276858 56.92685161 3.97970245 57.47382439 10.375 55.875 C12.83972872 54.56515097 12.83972872 54.56515097 15.1875 52 C18.37647929 48.81102071 18.37647929 48.81102071 21.625 48.5625 C23.984375 49.77734375 23.984375 49.77734375 26.375 51.5 C27.17421875 52.06589844 27.9734375 52.63179687 28.796875 53.21484375 C29.70179688 53.88193359 29.70179688 53.88193359 30.625 54.5625 C29.58798672 59.27891617 27.69712373 62.16772426 23.60546875 64.921875 C12.81842609 71.16990653 0.72447977 72.38701498 -11.453125 69.9453125 C-20.38947607 66.76981668 -27.29597675 60.13706454 -31.4453125 51.6953125 C-35.47537486 42.44987533 -35.9490106 32.14193212 -32.625 22.5625 C-28.54966459 12.8835784 -22.14389616 5.94260025 -12.65429688 1.37402344 C-8.49209276 -0.10789242 -4.37743234 -0.07173534 0 0 Z " fill="#FFFFFF" transform="translate(719.375,853.4375)"/>
  <path d="M0 0 C8.97760949 4.64401929 13.95135505 11.54090283 17.32421875 20.8984375 C18.32421875 24.8984375 18.32421875 24.8984375 18.32421875 38.8984375 C1.49421875 38.8984375 -15.33578125 38.8984375 -32.67578125 38.8984375 C-29.50439147 48.07965473 -29.50439147 48.07965473 -23.078125 53.8984375 C-16.70264365 56.5522964 -9.88446788 55.70185225 -3.61328125 53.1484375 C-0.48977137 51.56404843 1.62758741 50.06548266 3.32421875 46.8984375 C6.54274706 47.52909507 8.83222944 48.67864445 11.57421875 50.4609375 C12.280625 50.91597656 12.98703125 51.37101563 13.71484375 51.83984375 C14.2459375 52.18917969 14.77703125 52.53851562 15.32421875 52.8984375 C14.33452018 57.78375808 11.65824574 61.14933698 7.71875 64.1015625 C0.67843398 68.41919338 -6.72358507 69.23016293 -14.80078125 69.1484375 C-15.57292969 69.15617188 -16.34507812 69.16390625 -17.140625 69.171875 C-25.76070595 69.14250505 -32.00572546 66.27519702 -38.67578125 60.8984375 C-46.0971718 53.41151591 -49.03600718 44.16800711 -49.11328125 33.7734375 C-48.94236249 23.5835935 -46.26256148 15.75816851 -39.67578125 7.8984375 C-37.1700533 5.60277057 -34.57990932 3.66013284 -31.67578125 1.8984375 C-30.39767578 1.09212891 -30.39767578 1.09212891 -29.09375 0.26953125 C-20.61976332 -3.12974798 -8.66165831 -2.59573607 0 0 Z " fill="#FFFFFF" transform="translate(878.67578125,855.1015625)"/>
  <path d="M0 0 C8.63227465 5.84590752 13.05727244 13.41658977 15.5625 23.4375 C15.5625 28.0575 15.5625 32.6775 15.5625 37.4375 C-1.2675 37.4375 -18.0975 37.4375 -35.4375 37.4375 C-31.86632811 45.47263675 -30.32618308 48.84504461 -23.4375 53.4375 C-20.40528825 53.75623473 -20.40528825 53.75623473 -17.0625 53.6875 C-15.94101563 53.69265625 -14.81953125 53.6978125 -13.6640625 53.703125 C-7.40657057 53.18798039 -4.72843715 50.84135655 -0.4375 46.4375 C2.5625 45.4375 2.5625 45.4375 5.04296875 46.65234375 C5.93628906 47.22082031 6.82960938 47.78929687 7.75 48.375 C8.65105469 48.94089844 9.55210938 49.50679687 10.48046875 50.08984375 C11.16753906 50.53457031 11.85460938 50.97929688 12.5625 51.4375 C11.72494314 55.73453085 9.80515463 57.48963215 6.5625 60.4375 C5.840625 61.13875 5.11875 61.84 4.375 62.5625 C-4.65809501 68.58456334 -15.95076002 68.49970204 -26.4375 67.4375 C-33.68598856 65.90381476 -39.64062566 62.06768436 -44.4375 56.4375 C-46.43972244 53.22273572 -48.03567213 49.95293655 -49.4375 46.4375 C-49.80488281 45.51710938 -50.17226563 44.59671875 -50.55078125 43.6484375 C-51.62005541 39.77644033 -51.78100361 36.11073527 -51.75 32.125 C-51.74436035 31.370979 -51.7387207 30.61695801 -51.73291016 29.84008789 C-51.52639094 20.36780803 -48.98358982 13.42589318 -42.4375 6.4375 C-31.27706469 -3.58874473 -13.80840954 -7.12323472 0 0 Z " fill="#FFFFFF" transform="translate(1058.4375,856.5625)"/>
  <path d="M0 0 C5.28 0 10.56 0 16 0 C17.73054609 1.73054609 17.16964628 4.07803253 17.20532227 6.43774414 C17.22526749 7.59887222 17.24521271 8.76000031 17.26576233 9.95631409 C17.28247482 11.219832 17.29918732 12.48334991 17.31640625 13.78515625 C17.33718735 15.07111191 17.35796844 16.35706757 17.37937927 17.68199158 C17.43466176 21.10635904 17.48404361 24.5307875 17.53222656 27.95526123 C17.58239665 31.44744314 17.6381061 34.9395361 17.69335938 38.43164062 C17.8010164 45.28768333 17.90244449 52.14380633 18 59 C20.35648224 56.50217427 22.70974016 54.00133185 25.0625 51.5 C25.71927734 50.80390625 26.37605469 50.1078125 27.05273438 49.390625 C30.97574854 45.21638333 34.80862593 40.98234348 38.55249023 36.64648438 C41.73241223 33.02945049 41.73241223 33.02945049 44.06298828 32.77294922 C45.30411377 32.78865967 45.30411377 32.78865967 46.5703125 32.8046875 C47.46621094 32.81113281 48.36210937 32.81757812 49.28515625 32.82421875 C50.22230469 32.84097656 51.15945313 32.85773437 52.125 32.875 C53.06988281 32.88402344 54.01476562 32.89304687 54.98828125 32.90234375 C57.32577292 32.92595478 59.66276123 32.95888484 62 33 C57.81761635 37.94628934 53.5068474 42.72639453 49.0625 47.4375 C44.27275844 52.53912292 39.53270319 57.66640565 35 63 C36.43373931 67.47942281 38.68924163 70.07739342 41.9375 73.4375 C48.1010158 79.93879912 53.53808361 86.9092463 59 94 C60.14662109 95.37865234 60.14662109 95.37865234 61.31640625 96.78515625 C63 99 63 99 63 101 C47.183484 102.91765013 47.183484 102.91765013 42.14941406 99.88525391 C38.89260028 96.93961992 36.48302943 93.39377392 34.12158203 89.71435547 C32.49840195 87.23329963 30.63150009 84.97600391 28.75 82.6875 C28.18796875 81.96949219 27.6259375 81.25148438 27.046875 80.51171875 C24.12645585 76.92807464 21.04421155 73.47909891 18 70 C17.67 80.23 17.34 90.46 17 101 C11.39 101 5.78 101 0 101 C0 67.67 0 34.34 0 0 Z " fill="#FFFFFF" transform="translate(368,822)"/>
  <path d="M0 0 C2.68220892 2.09111922 4.08219125 3.94056988 5.4375 7.0625 C4.20196724 8.26504524 2.94847661 9.44916232 1.6875 10.625 C0.99140625 11.28628906 0.2953125 11.94757812 -0.421875 12.62890625 C-2.5625 14.0625 -2.5625 14.0625 -4.63671875 13.90234375 C-7.51415668 12.64747731 -9.9732977 10.82536114 -12.5625 9.0625 C-15.7390511 8.00364963 -18.16238011 7.86200734 -21.5 7.8125 C-22.54027344 7.78671875 -23.58054687 7.7609375 -24.65234375 7.734375 C-27.92258845 8.10310058 -29.26521725 8.73806261 -31.5625 11.0625 C-32.22916667 14.0625 -32.22916667 14.0625 -31.5625 17.0625 C-28.90435285 19.50605328 -26.57352065 20.54062136 -23.078125 21.30859375 C-22.22476562 21.50646484 -21.37140625 21.70433594 -20.4921875 21.90820312 C-18.72145004 22.29926249 -16.95061831 22.6898953 -15.1796875 23.08007812 C-8.07995376 24.72708843 -0.82577553 26.67245988 3.875 32.625 C4.34808594 33.20378906 4.82117188 33.78257812 5.30859375 34.37890625 C8.11356459 38.56209805 7.98673254 43.22925361 7.4375 48.0625 C5.59134302 54.20152802 1.80329944 58.63687663 -3.5625 62.0625 C-9.27851406 65.07809138 -13.96286487 65.54255758 -20.375 65.4375 C-21.2628418 65.42734863 -22.15068359 65.41719727 -23.06542969 65.40673828 C-33.05313709 65.16998447 -41.27806117 63.36479284 -48.5625 56.0625 C-49.2225 54.7425 -49.8825 53.4225 -50.5625 52.0625 C-47.5925 49.0925 -44.6225 46.1225 -41.5625 43.0625 C-37.5625 45.0625 -37.5625 45.0625 -34.5 47.625 C-30.16854241 51.21918821 -27.11083746 51.22121806 -21.625 51.25 C-20.39910156 51.26417969 -19.17320312 51.27835938 -17.91015625 51.29296875 C-14.79007786 51.07816755 -13.03984848 50.93708729 -10.5625 49.0625 C-9.74379815 45.50043339 -9.74379815 45.50043339 -9.5625 42.0625 C-14.04723643 38.65884311 -17.77992594 37.34258884 -23.375 36.5625 C-32.70655346 35.00688593 -39.47822695 33.26971405 -45.46875 25.6484375 C-48.98583613 20.54866261 -48.05013114 14.00889085 -47.5625 8.0625 C-44.49374293 1.47035519 -39.10037545 -2.07717949 -32.5625 -4.9375 C-21.60539771 -7.59432246 -9.33329395 -6.64261461 0 0 Z " fill="#FFFFFF" transform="translate(348.5625,858.9375)"/>
  <path d="M0 0 C5.40141003 3.71709937 5.40141003 3.71709937 7.125 6 C7.09765625 7.953125 7.09765625 7.953125 6.125 10 C4.05859375 11.921875 4.05859375 11.921875 1.5625 13.75 C0.73621094 14.36359375 -0.09007812 14.9771875 -0.94140625 15.609375 C-1.57949219 16.06828125 -2.21757813 16.5271875 -2.875 17 C-3.40609375 16.59007812 -3.9371875 16.18015625 -4.484375 15.7578125 C-5.19078125 15.21898437 -5.8971875 14.68015625 -6.625 14.125 C-7.32109375 13.59132813 -8.0171875 13.05765625 -8.734375 12.5078125 C-14.09866908 8.72931339 -18.40099773 8.35362576 -24.875 9 C-30.06510925 10.76267861 -32.69859651 13.58832849 -35.875 18 C-39.10119747 24.58823483 -39.24042064 32.83927617 -36.96484375 39.7734375 C-33.89165946 45.72217365 -30.26314849 48.87061717 -23.875 51 C-17.46450933 51.54326192 -13.27251187 50.53465379 -7.875 47 C-5.45427788 44.91863345 -5.45427788 44.91863345 -3.875 43 C0.79605792 44.55701931 4.21205685 47.08447373 8.125 50 C4.6243014 57.00139719 -1.38502671 61.64210654 -8.66796875 64.3046875 C-17.70748196 66.26453324 -29.75867895 67.02177996 -38.02734375 62.3203125 C-38.94193359 61.66675781 -38.94193359 61.66675781 -39.875 61 C-40.57753906 60.50242187 -41.28007813 60.00484375 -42.00390625 59.4921875 C-49.16861861 53.81847422 -52.79441381 46.81511519 -54.875 38 C-55.84811432 28.75004354 -56.19139123 18.96630587 -50.875 11 C-50.45089844 10.30777344 -50.02679687 9.61554687 -49.58984375 8.90234375 C-45.95886151 3.49126994 -41.54222595 0.13111795 -35.875 -3 C-35.26011719 -3.34160156 -34.64523437 -3.68320312 -34.01171875 -4.03515625 C-22.84917683 -9.17422801 -9.88633903 -6.37930705 0 0 Z " fill="#FFFFFF" transform="translate(816.875,859)"/>
  <path d="M0 0 C5.61 0 11.22 0 17 0 C18.54339242 4.14519823 20.0850311 8.29102968 21.625 12.4375 C22.08068359 13.66331787 22.53636719 14.88913574 23.00585938 16.15209961 C25.83465433 23.78432883 28.61524012 31.42866387 31.19775391 39.14819336 C32.17440365 42.0009998 32.83620494 43.83620494 35 46 C37.31526612 40.81297946 39.19426927 35.59059958 40.9375 30.1875 C42.80594446 24.4858015 44.75200949 18.86806119 47.0546875 13.32421875 C48.84021535 8.93418126 50.3990031 4.45991993 52 0 C57.61 0 63.22 0 69 0 C67.52310336 5.16913823 65.97013877 10.19220053 64.1875 15.25 C63.92396729 15.99797852 63.66043457 16.74595703 63.38891602 17.51660156 C61.57468658 22.58398856 59.51912999 27.46579098 57.21484375 32.33203125 C55.36732313 36.38944791 53.8324347 40.55727982 52.2578125 44.7265625 C50.66439038 48.87341882 48.94879777 52.96272739 47.2109375 57.05078125 C45.72568865 60.66808087 44.37301481 64.33862717 43 68 C37.06 68 31.12 68 25 68 C24.113125 65.628125 23.22625 63.25625 22.3125 60.8125 C21.47736447 58.58713885 20.64073695 56.36234596 19.80371094 54.13769531 C19.0886266 52.23572738 18.37615909 50.33277606 17.6640625 48.4296875 C15.78097035 43.45208724 13.83518229 38.56316472 11.5625 33.75 C8.43962092 27.04122822 6.12020732 20.0587001 3.72949219 13.06494141 C2.96969148 10.914207 2.14830263 8.79327285 1.3203125 6.66796875 C0 3 0 3 0 0 Z " fill="#FFFFFF" transform="translate(935,855)"/>
  <path d="M0 0 C5.61 0 11.22 0 17 0 C17 22.44 17 44.88 17 68 C11.39 68 5.78 68 0 68 C0 45.56 0 23.12 0 0 Z " fill="#FFFFFF" transform="translate(909,855)"/>
  <path d="M0 0 C5.754375 -0.0928125 5.754375 -0.0928125 11.625 -0.1875 C13.42251709 -0.22846802 13.42251709 -0.22846802 15.25634766 -0.27026367 C22.67824276 -0.32821802 27.04328955 0.55750007 32.875 5.375 C36.00130908 9.40176704 35.62407931 14.03873971 35.41796875 18.9296875 C34.87159261 22.94325425 33.86974059 25.13025941 31 28 C26.01509437 31.01171382 21.77945288 32.13280154 16.015625 32.09765625 C15.17290039 32.09515869 14.33017578 32.09266113 13.46191406 32.09008789 C12.40198242 32.08098389 11.34205078 32.07187988 10.25 32.0625 C6.8675 32.041875 3.485 32.02125 0 32 C0 21.44 0 10.88 0 0 Z " fill="#000000" transform="translate(625,838)"/>
  <path d="M0 0 C2.71309211 1.20926391 4.30122904 2.841258 6.36328125 4.9765625 C7.14832031 5.78867187 7.93335938 6.60078125 8.7421875 7.4375 C11.93219222 10.8596032 15.02439642 14.34698361 18.05078125 17.9140625 C18.55996094 18.49542969 19.06914063 19.07679688 19.59375 19.67578125 C23.05078125 23.67509191 23.05078125 23.67509191 23.05078125 25.9140625 C21.4765625 27.1328125 21.4765625 27.1328125 19.36328125 28.4140625 C18.67878906 28.836875 17.99429688 29.2596875 17.2890625 29.6953125 C10.87614539 33.18716265 5.28311761 33.68141914 -1.94921875 32.9140625 C-5.96326822 31.65699363 -8.49144536 29.39531145 -11.38671875 26.3515625 C-13.60497627 21.47139595 -13.71412671 17.18956171 -12.94921875 11.9140625 C-10.89606573 7.56137809 -5.50042414 -0.24250367 0 0 Z " fill="#000000" transform="translate(503.94921875,878.0859375)"/>
  <path d="M0 0 C2.39900174 2.39900174 2.8163792 4.14502531 3.8125 7.375 C5.17562187 11.62087219 6.67096759 15.7183667 8.4375 19.8125 C16 37.52096273 16 37.52096273 16 42 C5.77 42 -4.46 42 -15 42 C-10.37458313 27.83466082 -5.42485924 13.87769515 0 0 Z " fill="#000000" transform="translate(246,842)"/>
  <path d="M0 0 C4.4559947 2.55101555 7.3972845 5.419569 9.7265625 10.078125 C9.7265625 11.728125 9.7265625 13.378125 9.7265625 15.078125 C-1.8234375 15.078125 -13.3734375 15.078125 -25.2734375 15.078125 C-24.00903305 8.75610276 -21.89306685 4.95382963 -16.6484375 1.203125 C-11.26995465 -1.87600644 -5.77880801 -2.34329672 0 0 Z " fill="#000000" transform="translate(871.2734375,866.921875)"/>
  <path d="M0 0 C4.44395462 2.57019763 7.38855469 5.42554689 9.71875 10.0859375 C9.71875 11.7359375 9.71875 13.3859375 9.71875 15.0859375 C-1.50125 15.0859375 -12.72125 15.0859375 -24.28125 15.0859375 C-24.28125 8.60040687 -24.02301116 7.88628877 -19.9765625 3.6328125 C-14.39113596 -1.46356747 -7.07007223 -2.83287141 0 0 Z " fill="#000000" transform="translate(727.28125,866.9140625)"/>
  <path d="M0 0 C3.32666924 1.31680658 4.52486552 2.22250722 6.375 5.25 C7.48294397 10.12495346 6.66169422 13.72751111 4.375 18.125 C1.65718559 21.41498587 -1.20507963 24.01008816 -5 26 C-5.99 26 -6.98 26 -8 26 C-9.7890625 23.8828125 -9.7890625 23.8828125 -11.625 21.125 C-12.23601562 20.22007812 -12.84703125 19.31515625 -13.4765625 18.3828125 C-16.098722 14.28148611 -16.6950877 10.83781041 -16 6 C-11.74892912 -0.66001104 -7.41877574 -0.64257113 0 0 Z " fill="#000000" transform="translate(517,835)"/>
  <path d="M0 0 C4.26962546 4.15726689 4.07649916 5.53549409 5 12 C-6.55 12 -18.1 12 -30 12 C-28.76729287 5.83646437 -26.99410233 2.53712055 -22 -1.3125 C-14.21354777 -5.69237938 -7.13390672 -5.07604901 0 0 Z " fill="#000000" transform="translate(1053,870)"/>
  <path d="M0 0 C-1 3 -1 3 -3.96875 4.49609375 C-8.40716196 6.23409435 -12.94770205 7.65653752 -17.5 9.0625 C-18.31597656 9.31837891 -19.13195312 9.57425781 -19.97265625 9.83789062 C-26.99294327 12.02961747 -33.9814912 14.06157559 -41.1875 15.5625 C-45.69372174 16.49170608 -45.69372174 16.49170608 -50.16796875 17.55859375 C-52.15366641 18.0370241 -54.09481491 18.28385862 -56.125 18.5 C-59.787174 18.75647221 -59.787174 18.75647221 -62 20 C-63.45656294 20.12653539 -64.91541593 20.22764046 -66.375 20.3125 C-69.42523004 20.64650264 -70.8955811 20.93632994 -73.5625 22.5625 C-75.63595986 26.07836672 -75.75807247 29.02215734 -75 33 C-73.85998345 35.72482126 -73.85998345 35.72482126 -71 37 C-63.48660696 37.67363683 -56.07814166 36.65727633 -48.6875 35.375 C-47.65496094 35.1982373 -46.62242187 35.02147461 -45.55859375 34.83935547 C-29.17280237 31.90440046 -13.41553205 27.23763027 2 21 C3.48167528 20.41382091 4.96344936 19.82789151 6.4453125 19.2421875 C15.10363669 15.78541716 23.14001078 11.97850538 31.09765625 7.1015625 C32.17917969 6.44929687 33.26070312 5.79703125 34.375 5.125 C35.37273437 4.50882813 36.37046875 3.89265625 37.3984375 3.2578125 C40 2 40 2 43 3 C16.59631991 18.66267541 16.59631991 18.66267541 6.89672852 21.94287109 C4.12749706 22.95347136 1.5341396 24.12577478 -1.12109375 25.40234375 C-6.80970824 28.01165533 -12.531657 29.85717054 -18.5625 31.5 C-19.63024658 31.79334229 -20.69799316 32.08668457 -21.7980957 32.38891602 C-60.40382157 42.71622197 -60.40382157 42.71622197 -72 40 C-75.740506 37.75839713 -77.40152405 35.15788512 -78.5546875 31 C-78.92876595 27.16943669 -78.01899167 24.45133013 -75.7265625 21.38671875 C-71.34374451 16.51966169 -65.84192377 16.45671779 -59.625 15.8125 C-57.27144403 15.5092243 -54.9185654 15.20064422 -52.56640625 14.88671875 C-51.43219238 14.74024902 -50.29797852 14.5937793 -49.12939453 14.44287109 C-42.61044982 13.52031175 -36.3091407 11.865178 -30 10 C-29.22011719 9.77022461 -28.44023438 9.54044922 -27.63671875 9.30371094 C-25.10757062 8.54948986 -22.58401196 7.77935416 -20.0625 7 C-19.29301025 6.76297363 -18.52352051 6.52594727 -17.73071289 6.28173828 C-12.93501235 4.75420733 -8.39901828 2.91545572 -3.84545898 0.76953125 C-2 0 -2 0 0 0 Z " fill="currentColor" transform="translate(719,728)"/>
  <path d="M0 0 C25.06534483 5.58327586 25.06534483 5.58327586 34.98828125 10.97265625 C37.30191034 12.15417946 39.68033323 13.14952118 42.07104492 14.16333008 C61.91452359 22.7702914 61.91452359 22.7702914 67 29 C68.01516605 33.38864093 67.49986337 36.82532107 65.75 40.9375 C62.77622442 44.44230694 60.97172206 44.91858827 56.36328125 45.3046875 C51.40288176 45.25587461 48.05723108 43.29797651 43.875 40.8125 C37.40162128 37.17020245 31.17461183 34.38608297 24.11328125 32.04296875 C21.41952369 31.14054307 18.85626806 30.12331485 16.25 29 C3.73467458 23.91180213 -9.901902 21.19422281 -23 18 C-20.54090375 16.4084821 -19.42161014 15.92864052 -16.484375 16.42578125 C-15.58203125 16.71839844 -14.6796875 17.01101563 -13.75 17.3125 C-10.40510057 18.32974033 -7.2959684 19.18959193 -3.8125 19.5 C-0.18697396 19.97547882 2.53524677 20.83284305 5.8828125 22.1875 C8.14580754 23.05595566 10.416919 23.71905391 12.75 24.375 C20.28934046 26.5904062 27.50769323 29.6758655 34.5 33.25 C37.18545406 34.59272703 39.14622272 35.37417165 42 36 C42 36.66 42 37.32 42 38 C43.98 38.33 45.96 38.66 48 39 C48 39.66 48 40.32 48 41 C49.32 41 50.64 41 52 41 C52 41.66 52 42.32 52 43 C56.03994039 42.44549838 59.99777881 41.80044424 64 41 C64 36.71 64 32.42 64 28 C62.35 27.34 60.7 26.68 59 26 C58.34 25.67 57.68 25.34 57 25 C57 24.34 57 23.68 57 23 C56.0925 22.87625 55.185 22.7525 54.25 22.625 C51.41029677 22.07890323 49.47409409 21.42736197 47 20 C47 19.34 47 18.68 47 18 C46.3090625 17.88914062 45.618125 17.77828125 44.90625 17.6640625 C41.57193286 16.90218896 38.65303938 15.70296929 35.5 14.375 C29.06092409 11.72699465 22.53883614 9.39830312 15.9375 7.1875 C15.04546875 6.88569824 14.1534375 6.58389648 13.234375 6.27294922 C8.83626379 4.8166155 4.61686176 3.58374114 0 3 C0 2.01 0 1.02 0 0 Z " fill="currentColor" transform="translate(688,276)"/>
  <path d="M0 0 C2.89282077 1.56974771 5.02826545 3.36135524 7 6 C7.87676386 10.4635251 7.33508043 12.37605713 5.1875 16.375 C2.26745921 19.87904894 0.6340632 19.93863905 -3.875 20.375 C-7.45949005 20.34859492 -7.94066781 20.04797071 -10.9375 17.625 C-13.90672736 13.84598336 -14.55686828 11.82619179 -14 7 C-10.33118217 1.07239508 -6.94582752 -0.79706217 0 0 Z " fill="#FFFFFF" transform="translate(921,821)"/>
  <path d="M0 0 C2.66130122 -0.00216405 5.32217144 -0.02030493 7.98339844 -0.03930664 C23.36537145 -0.08930762 38.79879739 0.69657838 53.82714844 4.18530273 C55.70114069 4.56530672 57.576153 4.94031474 59.45214844 5.31030273 C60.91048177 5.6019694 62.3688151 5.89363607 63.82714844 6.18530273 C63.49714844 6.84530273 63.16714844 7.50530273 62.82714844 8.18530273 C61.72757813 8.0525293 60.62800781 7.91975586 59.49511719 7.78295898 C49.79889961 6.61228681 49.79889961 6.61228681 40.07714844 5.68530273 C36.36014331 5.37953464 32.75835414 4.8289709 29.08886719 4.16967773 C20.84458621 2.88756952 12.71065769 2.8772748 4.38964844 2.93530273 C3.20352463 2.93995544 3.20352463 2.93995544 1.99343872 2.94470215 C-17.57289176 3.03451821 -36.09679717 4.73871488 -55.17285156 9.18530273 C-56.03652344 9.34643555 -56.90019531 9.50756836 -57.79003906 9.67358398 C-61.99820531 10.57730493 -66.03730935 12.07627702 -70.11425781 13.44311523 C-73.05746832 14.15730425 -74.4006153 14.25623997 -77.17285156 13.18530273 C-61.18429115 5.99446778 -44.47492584 3.12470401 -27.17285156 1.18530273 C-26.45339355 1.08886475 -25.73393555 0.99242676 -24.99267578 0.89306641 C-16.69731855 -0.12504137 -8.34418223 -0.00075554 0 0 Z " fill="currentColor" transform="translate(624.1728515625,268.814697265625)"/>
  <path d="M0 0 C4.51934042 3.69764216 8.66483463 7.64415104 12.75 11.8125 C18.17976629 17.33046467 23.90209274 22.22186098 30 27 C30.86238281 27.70898438 31.72476562 28.41796875 32.61328125 29.1484375 C35.02819518 31.14605614 35.02819518 31.14605614 38.25 32.625 C41 34 41 34 42 36 C42.99 36.33 43.98 36.66 45 37 C45 37.66 45 38.32 45 39 C45.69351563 39.24878906 46.38703125 39.49757813 47.1015625 39.75390625 C51.58728373 41.68240365 55.54116141 44.40515674 59.6484375 47.02734375 C63.04770775 49.02807973 66.35041027 50.52630491 70 52 C70 52.66 70 53.32 70 54 C71.216875 54.37125 72.43375 54.7425 73.6875 55.125 C77.42415044 56.36101301 80.85236049 57.87582728 84.375 59.625 C92.47959174 63.47926949 100.99691513 66.10240408 109.53076172 68.84033203 C110.66400879 69.20626465 111.79725586 69.57219727 112.96484375 69.94921875 C113.9818335 70.27237061 114.99882324 70.59552246 116.04663086 70.9284668 C119.17223163 72.0624886 122.05585907 73.46010166 125 75 C121.7922816 76.05357737 119.92527099 75.93721616 116.734375 74.890625 C115.92613281 74.63023437 115.11789062 74.36984375 114.28515625 74.1015625 C113.44855469 73.82054687 112.61195313 73.53953125 111.75 73.25 C110.92886719 72.98445312 110.10773438 72.71890625 109.26171875 72.4453125 C72.330697 60.38859225 38.68940008 40.25662798 11 13 C9.87686342 11.91478334 8.75317993 10.83013235 7.62890625 9.74609375 C2.09453742 4.35145573 2.09453742 4.35145573 0 2 C0 1.34 0 0.68 0 0 Z " fill="currentColor" transform="translate(441,686)"/>
  <path d="M0 0 C0 0.66 0 1.32 0 2 C-1.03833984 1.90912109 -1.03833984 1.90912109 -2.09765625 1.81640625 C-32.55819851 -1.10640554 -32.55819851 -1.10640554 -63 1 C-63.33 1.33 -63.66 1.66 -64 2 C-65.76782555 2.16207569 -67.53988854 2.27843751 -69.3125 2.375 C-74.77321227 2.78213003 -79.75001138 3.82703797 -85.0234375 5.2578125 C-87.89499175 5.97381684 -90.69432769 6.41689961 -93.625 6.8125 C-100.00128941 7.77783465 -105.90698166 9.85553127 -111.94580078 12.0559082 C-117.69314838 14.10228387 -117.69314838 14.10228387 -121 13 C-117.77208445 10.8480563 -116.71599191 10.79913557 -113 11 C-113 10.34 -113 9.68 -113 9 C-112.23816406 8.81824219 -111.47632813 8.63648438 -110.69140625 8.44921875 C-105.88946422 7.28020665 -101.15169544 6.11656502 -96.5 4.4375 C-91.1305093 2.56942582 -85.60545249 1.83211845 -80 1 C-78.56333984 0.75636719 -78.56333984 0.75636719 -77.09765625 0.5078125 C-53.92434557 -3.29109089 -22.69336091 -7.56445364 0 0 Z " fill="currentColor" transform="translate(664,292)"/>
  <path d="M0 0 C0.33 0 0.66 0 1 0 C0.48525939 6.03211649 -1.41966776 10.68475464 -4 16.125 C-4.82211778 17.90150943 -5.64237126 19.67888257 -6.4609375 21.45703125 C-6.88213867 22.3692041 -7.30333984 23.28137695 -7.73730469 24.22119141 C-9.78039794 28.71741868 -11.70046229 33.26457474 -13.625 37.8125 C-16.66049899 44.95737734 -19.84279649 51.99886582 -23.1640625 59.015625 C-25.51083565 64.04555089 -27.68959503 69.14841281 -29.875 74.25 C-30.46571289 75.62768555 -30.46571289 75.62768555 -31.06835938 77.03320312 C-33.17020313 81.96419804 -33.17020313 81.96419804 -35 87 C-33.989375 87.0825 -32.97875 87.165 -31.9375 87.25 C-27.62213084 87.84006068 -24.65261803 89.68916002 -21 92 C-23 93 -23 93 -26.2578125 92.00390625 C-27.5497052 91.53110016 -28.83868638 91.05028031 -30.125 90.5625 C-30.78371094 90.31951172 -31.44242188 90.07652344 -32.12109375 89.82617188 C-33.74991338 89.22421679 -35.37529575 88.61297588 -37 88 C-36.44725457 83.98318834 -35.59239383 80.63400213 -33.91015625 76.94921875 C-33.46430176 75.96074951 -33.01844727 74.97228027 -32.55908203 73.95385742 C-32.06520996 72.87595947 -31.57133789 71.79806152 -31.0625 70.6875 C-30.2637222 68.91781761 -29.46501076 67.14810461 -28.66796875 65.37763977 C-28.08503194 64.08278932 -27.50134851 62.78827478 -26.91699219 61.49406433 C-23.15628312 53.15480807 -19.48702023 44.77527853 -15.81344604 36.39736938 C-14.65027448 33.74513034 -13.485563 31.0935722 -12.32055664 28.44213867 C-8.16635609 18.98134101 -4.04791045 9.50681243 0 0 Z " fill="currentColor" transform="translate(672,554)"/>
  <path d="M0 0 C0.66 0 1.32 0 2 0 C2.06058594 0.67546875 2.12117188 1.3509375 2.18359375 2.046875 C2.26738281 2.93890625 2.35117187 3.8309375 2.4375 4.75 C2.55931641 6.07257812 2.55931641 6.07257812 2.68359375 7.421875 C2.92870613 9.95069188 2.92870613 9.95069188 3.59765625 12.140625 C4 14 4 14 3 17 C3.66 17 4.32 17 5 17 C4.67 18.65 4.34 20.3 4 22 C4.66 22 5.32 22 6 22 C6.16947579 23.41633336 6.33545507 24.83308533 6.5 26.25 C6.5928125 27.03890625 6.685625 27.8278125 6.78125 28.640625 C7 31 7 31 7 35 C7.66 35 8.32 35 9 35 C9.103125 36.134375 9.20625 37.26875 9.3125 38.4375 C9.90941091 43.21278724 11.38285342 47.48739097 13 52 C13.50314101 53.51979708 14.00316908 55.04062843 14.5 56.5625 C17.23224223 64.90559682 20.65979273 72.84149021 24.30273438 80.81640625 C24.65013672 81.58597656 24.99753906 82.35554687 25.35546875 83.1484375 C25.67153076 83.84114746 25.98759277 84.53385742 26.31323242 85.24755859 C27 87 27 87 27 89 C27.66 89.33 28.32 89.66 29 90 C29.8515625 92.06640625 29.8515625 92.06640625 30.625 94.5625 C30.88539063 95.38878906 31.14578125 96.21507812 31.4140625 97.06640625 C31.60742188 97.70449219 31.80078125 98.34257813 32 99 C11.4212678 80.45493074 2.81260806 32.25100856 0 6 C-0.03777104 4.00035669 -0.05344003 1.99928591 0 0 Z " fill="currentColor" transform="translate(377,543)"/>
  <path d="M0 0 C0.495 1.485 0.495 1.485 1 3 C-0.328125 5.48828125 -0.328125 5.48828125 -2.25 8.3125 C-4.78310185 12.13463593 -7.01683333 15.86121739 -9 20 C-10.51977868 22.77937786 -12.05526351 25.54951851 -13.59765625 28.31640625 C-14.91562153 30.83852922 -15.97742146 33.3472858 -17 36 C-17.61776293 37.39905134 -18.24273237 38.7949436 -18.875 40.1875 C-23.34586908 50.20955968 -27.2857087 60.23620837 -29.53125 70.99609375 C-30.10519659 73.44971543 -31.00880198 75.68720462 -32 78 C-32.35858516 79.32676508 -32.7018576 80.65835921 -33 82 C-33.66 82 -34.32 82 -35 82 C-32.08998007 56.98051827 -19.31041292 32.95236689 -7.1875 11.25 C-6.81439697 10.58202393 -6.44129395 9.91404785 -6.05688477 9.22583008 C-4.21961502 5.98675143 -2.328935 2.90933205 0 0 Z " fill="currentColor" transform="translate(418,380)"/>
  <path d="M0 0 C0.495 0.99 0.495 0.99 1 2 C0.13375 3.670625 0.13375 3.670625 -0.75 5.375 C-6.06556879 15.63827815 -6.58354952 26.68403534 -7 38 C-11.06114852 39.42056074 -15.1241664 40.83570276 -19.1875 42.25 C-20.31865234 42.64574219 -21.44980469 43.04148437 -22.61523438 43.44921875 C-44.33920338 51 -44.33920338 51 -49 51 C-49 49.68 -49 48.36 -49 47 C-47.72125 47.0825 -46.4425 47.165 -45.125 47.25 C-40.34964429 47.26492299 -36.95028377 45.93878429 -32.63671875 44.015625 C-28.88971835 42.57233596 -25.11647762 42.03704741 -21.15234375 41.4921875 C-20.08693359 41.24855469 -20.08693359 41.24855469 -19 41 C-18.67 40.34 -18.34 39.68 -18 39 C-15.71484375 38.3671875 -15.71484375 38.3671875 -12.9375 37.875 C-12.01839844 37.70742188 -11.09929687 37.53984375 -10.15234375 37.3671875 C-9.44207031 37.24601562 -8.73179687 37.12484375 -8 37 C-8.33 36.01 -8.66 35.02 -9 34 C-10.13557385 21.26847016 -6.55303419 10.77327304 0 0 Z " fill="currentColor" transform="translate(508,441)"/>
  <path d="M0 0 C-2.97 0.66 -5.94 1.32 -9 2 C-9 2.66 -9 3.32 -9 4 C-19.37357631 8.59225513 -19.37357631 8.59225513 -25 8 C-25 8.66 -25 9.32 -25 10 C-25.70495605 10.33209473 -26.40991211 10.66418945 -27.13623047 11.00634766 C-30.38504182 12.54055292 -33.63001443 14.08272034 -36.875 15.625 C-37.98359375 16.14707031 -39.0921875 16.66914063 -40.234375 17.20703125 C-46.3168315 20.10514288 -52.13046263 23.14446096 -57.78564453 26.81396484 C-60.19494965 28.10441735 -62.30933503 28.59566025 -65 29 C-61.27798696 25.01046727 -56.7164087 22.66701682 -52 20 C-51.3709375 19.63986816 -50.741875 19.27973633 -50.09375 18.90869141 C-11.64332646 -2.91083161 -11.64332646 -2.91083161 0 0 Z " fill="currentColor" transform="translate(556,280)"/>
  <path d="M0 0 C0.66 0 1.32 0 2 0 C3.07768483 10.14652801 3.23698939 20.2459396 3.25 30.4375 C3.25233643 31.27339661 3.25467285 32.10929321 3.25708008 32.97052002 C3.27067056 45.86263885 2.55262487 58.32804082 0 71 C-2.5558371 67.16624435 -1.87134512 66.4359388 -1 62 C-0.05585889 54.25157557 0.13566698 46.56707106 0.09765625 38.76953125 C0.0962413 37.65309738 0.09482635 36.53666351 0.09336853 35.38639832 C0.08782367 31.86173691 0.0752818 28.33714182 0.0625 24.8125 C0.05747786 22.40559988 0.05291621 19.99869876 0.04882812 17.59179688 C0.03787238 11.72784241 0.02119022 5.86392594 0 0 Z " fill="currentColor" transform="translate(875,490)"/>
  <path d="M0 0 C0 3 0 3 -1.36328125 4.4375 C-2.32814453 5.2109375 -2.32814453 5.2109375 -3.3125 6 C-11.31500896 12.73520772 -19.02117346 19.69500208 -24 29 C-24.41636719 29.69480469 -24.83273437 30.38960938 -25.26171875 31.10546875 C-28.24050074 36.15955831 -30.25116582 41.2161035 -32.0078125 46.8125 C-32.33523438 47.534375 -32.66265625 48.25625 -33 49 C-34.485 49.495 -34.485 49.495 -36 50 C-35.43072962 44.8284592 -33.77211676 40.87850964 -31.4375 36.3125 C-31.07817383 35.60770508 -30.71884766 34.90291016 -30.34863281 34.17675781 C-23.28861043 20.65481102 -12.96793989 8.25232539 0 0 Z " fill="currentColor" transform="translate(498,393)"/>
  <path d="M0 0 C3.53667462 0.9448156 6.91610419 1.79153239 10.5625 2.125 C14.1534126 2.60378835 16.87579639 3.46919387 20.1953125 4.8125 C22.45830754 5.68095566 24.729419 6.34405391 27.0625 7 C43.11311283 11.7280875 43.11311283 11.7280875 47.3125 16.625 C46.3225 17.12 46.3225 17.12 45.3125 17.625 C43.30259909 16.84589814 41.32920209 15.97233271 39.375 15.0625 C26.50530643 9.31821802 13.12306977 5.48041665 -0.72143555 2.91748047 C-6.4895328 1.8229672 -6.4895328 1.8229672 -8.6875 -0.375 C-5.05884415 -1.58455195 -3.6400703 -1.01605035 0 0 Z " fill="currentColor" transform="translate(673.6875,293.375)"/>
  <path d="M0 0 C3.09047327 0.69566785 5.92413949 1.70370531 8.859375 2.890625 C10.27488647 3.45692627 10.27488647 3.45692627 11.71899414 4.03466797 C12.71922607 4.43572754 13.71945801 4.83678711 14.75 5.25 C22.98854888 8.52418718 31.20511466 11.47532653 39.72265625 13.9296875 C43.0154006 15.00502952 45.94678271 16.37347633 49 18 C45.7922816 19.05357737 43.92527099 18.93721616 40.734375 17.890625 C39.92613281 17.63023437 39.11789062 17.36984375 38.28515625 17.1015625 C37.44855469 16.82054687 36.61195313 16.53953125 35.75 16.25 C34.92886719 15.98445312 34.10773437 15.71890625 33.26171875 15.4453125 C24.78898775 12.67925452 16.62568176 9.47170359 8.5 5.8125 C7.67757812 5.44447266 6.85515625 5.07644531 6.0078125 4.69726562 C4.00423714 3.80031619 2.00166678 2.90119857 0 2 C0 1.34 0 0.68 0 0 Z " fill="currentColor" transform="translate(517,743)"/>
  <path d="M0 0 C1.28132812 0.10183594 2.56265625 0.20367187 3.8828125 0.30859375 C4.87023437 0.39238281 5.85765625 0.47617187 6.875 0.5625 C6.875 0.8925 6.875 1.2225 6.875 1.5625 C6.14796875 1.59988281 5.4209375 1.63726562 4.671875 1.67578125 C-1.85457774 2.10251085 -7.84196154 3.10925313 -14.1484375 4.8203125 C-17.01999175 5.53631684 -19.81932769 5.97939961 -22.75 6.375 C-29.12628941 7.34033465 -35.03198166 9.41803127 -41.07080078 11.6184082 C-46.81814838 13.66478387 -46.81814838 13.66478387 -50.125 12.5625 C-46.89708445 10.4105563 -45.84099191 10.36163557 -42.125 10.5625 C-42.125 9.9025 -42.125 9.2425 -42.125 8.5625 C-41.36316406 8.38074219 -40.60132813 8.19898438 -39.81640625 8.01171875 C-35.01446422 6.84270665 -30.27669544 5.67906502 -25.625 4 C-21.04922195 2.3963787 -16.41643756 1.68922271 -11.62890625 0.9921875 C-3.95940595 -0.3239514 -3.95940595 -0.3239514 0 0 Z " fill="currentColor" transform="translate(593.125,292.4375)"/>
  <path d="M0 0 C24.68629217 5.49884233 24.68629217 5.49884233 35.1953125 11.05859375 C39.63801519 13.37610749 44.34246097 15.1652119 49 17 C45.29885881 18.37079303 43.53984576 17.52146771 40 16 C32.1036999 12.82483114 24.12724745 9.96458169 16.0625 7.25 C15.16273438 6.94425049 14.26296875 6.63850098 13.3359375 6.32348633 C8.9031297 4.84712611 4.65749923 3.58314653 0 3 C0 2.01 0 1.02 0 0 Z " fill="currentColor" transform="translate(688,276)"/>
  <path d="M0 0 C2.87749292 0.61436322 5.16334949 1.50360653 7.71484375 2.9609375 C8.40126953 3.35023438 9.08769531 3.73953125 9.79492188 4.140625 C10.50197266 4.54796875 11.20902344 4.9553125 11.9375 5.375 C12.99227539 5.97441406 12.99227539 5.97441406 14.06835938 6.5859375 C17.00040467 8.25668121 19.91367435 9.9477471 22.80078125 11.6953125 C28.47409526 15.06100856 34.74919582 17.00144356 41 19 C41 19.66 41 20.32 41 21 C41.7425 21.12375 42.485 21.2475 43.25 21.375 C45.80141485 21.95486701 47.7267573 22.73708739 50 24 C48 25 48 25 45.40234375 24.2890625 C29.90490412 18.41747229 13.12466453 11.2792088 0 1 C0 0.67 0 0.34 0 0 Z " fill="currentColor" transform="translate(502,711)"/>
  <path d="M0 0 C0.33 0 0.66 0 1 0 C1.05479286 1.8538252 1.09314594 3.7081388 1.125 5.5625 C1.14820313 6.59503906 1.17140625 7.62757813 1.1953125 8.69140625 C0.97750441 12.38107533 0.03233442 15.45514576 -1 19 C-1.49550983 21.92598211 -1.81933578 24.86129158 -2.125 27.8125 C-2.21209229 28.60277588 -2.29918457 29.39305176 -2.38891602 30.20727539 C-2.91157015 35.22424012 -3.14196381 40.10991505 -2.77734375 45.15234375 C-3.07452222 47.61840369 -4.13436212 48.44611362 -6 50 C-6.55431515 33.09338787 -3.40076269 16.48652132 0 0 Z " fill="currentColor" transform="translate(382,462)"/>
  <path d="M0 0 C-26.58100404 15.76786406 -26.58100404 15.76786406 -36.4921875 19.140625 C-39.0433677 19.96933368 -39.0433677 19.96933368 -41.5703125 21.171875 C-44.29971034 22.10215208 -45.31412791 21.80185877 -48 21 C-47.3201001 20.72325439 -46.6402002 20.44650879 -45.93969727 20.16137695 C-42.81155538 18.88423176 -39.68703972 17.59843141 -36.5625 16.3125 C-34.95858398 15.65991211 -34.95858398 15.65991211 -33.32226562 14.99414062 C-23.48068453 10.93110256 -14.64791967 5.84458088 -5.6015625 0.2578125 C-3 -1 -3 -1 0 0 Z " fill="currentColor" transform="translate(762,731)"/>
  <path d="M0 0 C1.37478516 0.01740234 1.37478516 0.01740234 2.77734375 0.03515625 C3.69644531 0.04417969 4.61554687 0.05320312 5.5625 0.0625 C6.27277344 0.07410156 6.98304688 0.08570313 7.71484375 0.09765625 C7.71484375 1.08765625 7.71484375 2.07765625 7.71484375 3.09765625 C7.1115625 3.05125 6.50828125 3.00484375 5.88671875 2.95703125 C0.77235672 2.6744707 0.77235672 2.6744707 -3.78515625 4.72265625 C-7.65607682 10.85161382 -5.77085993 17.02314493 -4.34765625 23.66015625 C-3.95930798 25.51474351 -3.57505433 27.37019388 -3.1953125 29.2265625 C-3.02136963 30.0419751 -2.84742676 30.8573877 -2.66821289 31.69750977 C-2.26827623 34.20342266 -2.21952144 36.56437788 -2.28515625 39.09765625 C-4.52967821 36.85313429 -4.72708962 35.94349441 -5.35546875 32.9140625 C-5.53021729 32.07367432 -5.70496582 31.23328613 -5.88500977 30.36743164 C-9.52691125 11.59242211 -9.52691125 11.59242211 -8.28515625 6.09765625 C-5.84765625 2.97265625 -5.84765625 2.97265625 -3.28515625 1.09765625 C-2.28515625 0.09765625 -2.28515625 0.09765625 0 0 Z " fill="currentColor" transform="translate(857.28515625,449.90234375)"/>
  <path d="M0 0 C9.93821017 8.93567142 14.86670908 25.75846756 15.91796875 38.69140625 C16.08746077 43.46139599 16.07266696 48.22820312 16 53 C15.67 53 15.34 53 15 53 C14.93530518 52.38181396 14.87061035 51.76362793 14.80395508 51.12670898 C13.07993607 35.18138294 10.56882461 21.29666871 3 7 C3 6.34 3 5.68 3 5 C2.01 4.67 1.02 4.34 0 4 C0 2.68 0 1.36 0 0 Z " fill="currentColor" transform="translate(627,413)"/>
  <path d="M0 0 C0.66 0.33 1.32 0.66 2 1 C1.86940186 1.56090332 1.73880371 2.12180664 1.60424805 2.69970703 C0.00144166 10.05740786 -0.66146672 17.37188971 -1.1875 24.875 C-1.28224609 26.08414062 -1.37699219 27.29328125 -1.47460938 28.5390625 C-1.55904297 29.69921875 -1.64347656 30.859375 -1.73046875 32.0546875 C-1.80676514 33.10124512 -1.88306152 34.14780273 -1.96166992 35.22607422 C-1.99631363 37.73321938 -1.75348915 39.62599309 -1 42 C-1.66 42 -2.32 42 -3 42 C-7.13057092 29.60828724 -4.03263775 12.09791325 0 0 Z " fill="currentColor" transform="translate(461,443)"/>
  <path d="M0 0 C20.93358787 -0.39612321 20.93358787 -0.39612321 30 2 C31.87297227 2.38499985 33.74802149 2.76003196 35.625 3.125 C37.08333333 3.41666667 38.54166667 3.70833333 40 4 C39.67 4.66 39.34 5.32 39 6 C37.35064453 5.80083984 37.35064453 5.80083984 35.66796875 5.59765625 C34.17452472 5.41888988 32.68103167 5.24053274 31.1875 5.0625 C30.40938965 4.9696875 29.6312793 4.876875 28.82958984 4.78125 C24.59813151 4.28332824 20.37265743 3.84005991 16.125 3.5 C10.67819899 3.0398248 5.35709172 2.06727359 0 1 C0 0.67 0 0.34 0 0 Z " fill="currentColor" transform="translate(648,271)"/>
  <path d="M0 0 C-6.562972 3.55494317 -13.78076719 5.63462967 -20.9375 7.625 C-21.68451172 7.8415625 -22.43152344 8.058125 -23.20117188 8.28125 C-28.4670425 9.75333118 -33.55311717 10.51318823 -39 11 C-39.33 10.34 -39.66 9.68 -40 9 C-39.43192627 8.86948242 -38.86385254 8.73896484 -38.27856445 8.60449219 C-23.34206149 5.1683896 -23.34206149 5.1683896 -8.69140625 0.69921875 C-5.70272841 -0.07723021 -3.07506634 -0.12227804 0 0 Z " fill="currentColor" transform="translate(717,753)"/>
  <path d="M0 0 C0.33 0.99 0.66 1.98 1 3 C-6.92 10.92 -14.84 18.84 -23 27 C-23.66 26.67 -24.32 26.34 -25 26 C-16.90196051 17.08486103 -8.57832717 8.45380307 0 0 Z " fill="currentColor" transform="translate(459,332)"/>
  <path d="M0 0 C0.33 0 0.66 0 1 0 C1.01981934 0.6297876 1.03963867 1.2595752 1.06005859 1.90844727 C1.15598897 4.7935136 1.2653897 7.6779223 1.375 10.5625 C1.42140625 12.0484668 1.42140625 12.0484668 1.46875 13.56445312 C1.68635611 19.0227398 2.21475236 23.78812318 4 29 C4.29261719 29.91265625 4.58523438 30.8253125 4.88671875 31.765625 C5.42435135 33.43359735 5.96607745 35.10025533 6.51171875 36.765625 C7 39 7 39 6 42 C-0.40444649 27.8907118 -1.4282391 15.17719142 0 0 Z " fill="currentColor" transform="translate(564,560)"/>
  <path d="M0 0 C4.61141281 0.56769286 8.09165427 2.57829558 12 4.9375 C15.90156904 7.26760373 19.70983737 9.44806617 24 11 C24 11.66 24 12.32 24 13 C25.98 13.66 27.96 14.32 30 15 C30 15.66 30 16.32 30 17 C23.9029117 15.35572661 18.73687772 12.19782761 13.3125 9.0625 C11.8884082 8.25522461 11.8884082 8.25522461 10.43554688 7.43164062 C2.76981435 3.03184652 2.76981435 3.03184652 0 0 Z " fill="currentColor" transform="translate(487,727)"/>
  <path d="M0 0 C0 3 0 3 -1.36328125 4.4375 C-2.32814453 5.2109375 -2.32814453 5.2109375 -3.3125 6 C-8.8916223 10.66255221 -13.89939554 15.8252349 -19 21 C-19.99892991 22.00106895 -20.99833749 23.00166528 -22 24 C-21.0944593 18.76411725 -17.52777847 15.75265678 -14 12 C-13.12214844 11.06027344 -13.12214844 11.06027344 -12.2265625 10.1015625 C-8.44855958 6.1867993 -4.51187155 3.03860737 0 0 Z " fill="currentColor" transform="translate(498,393)"/>
  <path d="M0 0 C0.33 0 0.66 0 1 0 C0.63238583 7.9137828 -0.89900062 14.74552449 -3.5625 22.1875 C-4.0565332 23.61545898 -4.0565332 23.61545898 -4.56054688 25.07226562 C-5.3626687 27.38563147 -6.17582199 29.6944206 -7 32 C-7.66 31.34 -8.32 30.68 -9 30 C-7.87964485 26.20952218 -6.75861486 22.41924467 -5.63696289 18.62915039 C-5.06816534 16.7066485 -4.49990029 14.78398908 -3.93164062 12.86132812 C-3.57392578 11.65283203 -3.21621094 10.44433594 -2.84765625 9.19921875 C-2.51773682 8.08377686 -2.18781738 6.96833496 -1.84790039 5.8190918 C-1.26172602 3.87018436 -0.64357133 1.93071399 0 0 Z " fill="currentColor" transform="translate(871,572)"/>
  <path d="M0 0 C0.33 0 0.66 0 1 0 C0.50767951 6.42654062 -1.77766901 11.51806484 -4.5 17.3125 C-4.91636719 18.21806641 -5.33273437 19.12363281 -5.76171875 20.05664062 C-7.14302837 23.05394838 -8.52401217 26.04802435 -10 29 C-10.66 29 -11.32 29 -12 29 C-9.91932667 22.23703646 -7.26750264 15.86121387 -4.3125 9.4375 C-3.89677734 8.52419922 -3.48105469 7.61089844 -3.05273438 6.66992188 C-2.03917098 4.44474248 -1.02154784 2.22152219 0 0 Z " fill="currentColor" transform="translate(689,515)"/>
  <path d="M0 0 C-3.79449394 3.12192491 -8.04820714 5.28387111 -12.375 7.5625 C-13.1175 7.96146484 -13.86 8.36042969 -14.625 8.77148438 C-18.67361684 10.91381784 -22.58414237 12.7032799 -27 14 C-23.32838887 10.01065329 -18.65837333 7.67840447 -14 5 C-12.51693359 4.12988281 -12.51693359 4.12988281 -11.00390625 3.2421875 C-10.03324219 2.68789063 -9.06257813 2.13359375 -8.0625 1.5625 C-7.16660156 1.04816406 -6.27070313 0.53382813 -5.34765625 0.00390625 C-3 -1 -3 -1 0 0 Z " fill="currentColor" transform="translate(518,295)"/>
  <path d="M0 0 C0 0.33 0 0.66 0 1 C-0.72703125 1.03738281 -1.4540625 1.07476562 -2.203125 1.11328125 C-8.88616194 1.55024905 -14.9769359 2.59270434 -21.40625 4.4765625 C-24.05248134 5.01059111 -25.48558973 4.88953194 -28 4 C-27.34 4 -26.68 4 -26 4 C-26 3.34 -26 2.68 -26 2 C-17.00446227 -0.91613586 -9.35689865 -1.14884998 0 0 Z " fill="currentColor" transform="translate(600,293)"/>
  <path d="M0 0 C0.66 0.66 1.32 1.32 2 2 C-0.66318588 2.98961566 -3.32993307 3.96676851 -6 4.9375 C-6.74378906 5.21529297 -7.48757813 5.49308594 -8.25390625 5.77929688 C-13.20476843 7.56591236 -17.75508851 8.52914999 -23 9 C-23 7.68 -23 6.36 -23 5 C-21.72125 5.0825 -20.4425 5.165 -19.125 5.25 C-14.28323306 5.27294676 -10.64008532 3.93974848 -6.26171875 1.97265625 C-4.14050637 1.06042502 -2.29020668 0.3076397 0 0 Z " fill="currentColor" transform="translate(482,483)"/>
  <path d="M0 0 C-0.52843506 0.27674561 -1.05687012 0.55349121 -1.60131836 0.83862305 C-4.0473116 2.12044195 -6.49240784 3.40396316 -8.9375 4.6875 C-9.76830078 5.12255859 -10.59910156 5.55761719 -11.45507812 6.00585938 C-12.28330078 6.44091797 -13.11152344 6.87597656 -13.96484375 7.32421875 C-14.79741699 7.76040527 -15.62999023 8.1965918 -16.48779297 8.64599609 C-19.74428913 10.40114942 -22.92378804 12.28123405 -26.09204102 14.19067383 C-28 15 -28 15 -31 14 C-27.85763504 12.24371931 -24.71049303 10.49616974 -21.5625 8.75 C-20.68400391 8.25886719 -19.80550781 7.76773437 -18.90039062 7.26171875 C-3.03724278 -1.51862139 -3.03724278 -1.51862139 0 0 Z " fill="currentColor" transform="translate(537,309)"/>
  <path d="M0 0 C1.00675781 0.29261719 2.01351562 0.58523438 3.05078125 0.88671875 C6.68326662 1.8925702 10.10670107 2.7558645 13.86328125 3.07421875 C17.4942199 3.59292427 18.62748521 4.31838693 21.36328125 6.57421875 C12.01270902 6.17800806 3.3492382 3.99828493 -5.63671875 1.57421875 C-2.63671875 -0.42578125 -2.63671875 -0.42578125 0 0 Z " fill="currentColor" transform="translate(670.63671875,292.42578125)"/>
  <path d="M0 0 C-1 3 -1 3 -3.75 4.4375 C-9.37030343 6.65263007 -15.21237703 8.28547109 -21 10 C-21.66 9.34 -22.32 8.68 -23 8 C-22.23816406 7.75765625 -21.47632813 7.5153125 -20.69140625 7.265625 C-14.87601602 5.37798273 -9.26474554 3.36416454 -3.7421875 0.734375 C-2 0 -2 0 0 0 Z " fill="currentColor" transform="translate(719,728)"/>
  <path d="M0 0 C6.84060913 0.36003206 12.52324874 4.27477358 17.7890625 8.40234375 C19.43449591 10.57325428 19.30440808 11.99861416 19.1875 14.6875 C19.16042969 15.49574219 19.13335938 16.30398438 19.10546875 17.13671875 C19.07066406 17.75160156 19.03585937 18.36648438 19 19 C18.67 19 18.34 19 18 19 C17.67 16.03 17.34 13.06 17 10 C16.21625 9.690625 15.4325 9.38125 14.625 9.0625 C12 8 12 8 10 7 C10 6.34 10 5.68 10 5 C9.0925 4.87625 8.185 4.7525 7.25 4.625 C4.41029677 4.07890323 2.47409409 3.42736197 0 2 C0 1.34 0 0.68 0 0 Z " fill="currentColor" transform="translate(735,294)"/>
  <path d="M0 0 C0.8971875 0.309375 0.8971875 0.309375 1.8125 0.625 C1.3278125 0.95371094 0.843125 1.28242188 0.34375 1.62109375 C-5.32745992 5.64547156 -9.73860304 10.30052226 -14.1875 15.625 C-14.984375 13.9453125 -14.984375 13.9453125 -15.1875 11.625 C-13.203125 9.1171875 -13.203125 9.1171875 -10.4375 6.5 C-9.53515625 5.63117188 -8.6328125 4.76234375 -7.703125 3.8671875 C-2.82163209 -0.48370836 -2.82163209 -0.48370836 0 0 Z " fill="currentColor" transform="translate(766.1875,363.375)"/>
  <path d="M0 0 C0.33 0 0.66 0 1 0 C0.48377778 6.10453258 -1.48582596 10.91478414 -4.0625 16.4375 C-4.43955078 17.26443359 -4.81660156 18.09136719 -5.20507812 18.94335938 C-6.12874358 20.96606979 -7.06046954 22.98462257 -8 25 C-9.32623712 21.37029842 -8.67479383 19.48857791 -7.12890625 16.015625 C-6.71962891 15.08105469 -6.31035156 14.14648438 -5.88867188 13.18359375 C-5.45103516 12.21550781 -5.01339844 11.24742187 -4.5625 10.25 C-3.9118457 8.77466797 -3.9118457 8.77466797 -3.24804688 7.26953125 C-2.17552334 4.84162082 -1.09257629 2.41893666 0 0 Z " fill="currentColor" transform="translate(672,554)"/>
  <path d="M0 0 C0.66 0.66 1.32 1.32 2 2 C-14.38430584 10.65392354 -14.38430584 10.65392354 -21 9 C-14.07 6.03 -7.14 3.06 0 0 Z " fill="currentColor" transform="translate(735,743)"/>
  <path d="M0 0 C0.99 0.33 1.98 0.66 3 1 C2.57847656 1.39832031 2.15695312 1.79664063 1.72265625 2.20703125 C1.17480469 2.73683594 0.62695312 3.26664063 0.0625 3.8125 C-0.75541016 4.59560547 -0.75541016 4.59560547 -1.58984375 5.39453125 C-3.23519092 7.05812198 -3.23519092 7.05812198 -4 10 C-4.66 10 -5.32 10 -6 10 C-6.66 12.31 -7.32 14.62 -8 17 C-8.66 15.68 -9.32 14.36 -10 13 C-3.84965831 3.40546697 -3.84965831 3.40546697 0 0 Z " fill="currentColor" transform="translate(606,665)"/>
  <path d="M0 0 C0.66 0 1.32 0 2 0 C2.38167939 12.91348601 2.38167939 12.91348601 0 19 C-0.66 19.66 -1.32 20.32 -2 21 C-1.93941406 20.40574219 -1.87882813 19.81148438 -1.81640625 19.19921875 C-1.16982122 12.80300071 -0.57215654 6.40328386 0 0 Z " fill="currentColor" transform="translate(599,459)"/>
  <path d="M0 0 C-2.43603737 2.43603737 -3.65628994 2.39034739 -7 3 C-10.32640873 4.05044486 -13.63403397 5.14898249 -16.94140625 6.2578125 C-19.88461675 6.97200151 -21.22776373 7.07093724 -24 6 C-5.37859129 -1.80514365 -5.37859129 -1.80514365 0 0 Z " fill="currentColor" transform="translate(571,276)"/>
  <path d="M0 0 C0 0.66 0 1.32 0 2 C-8.91 1.34 -17.82 0.68 -27 0 C-27 -0.33 -27 -0.66 -27 -1 C-18.40793559 -2.35664175 -8.34174493 -2.78058164 0 0 Z " fill="currentColor" transform="translate(664,292)"/>
  <path d="M0 0 C0.66 0.33 1.32 0.66 2 1 C0.68 1.33 -0.64 1.66 -2 2 C-2 2.66 -2 3.32 -2 4 C-3.76755526 4.84026396 -5.53917263 5.67198722 -7.3125 6.5 C-8.79169922 7.19609375 -8.79169922 7.19609375 -10.30078125 7.90625 C-13 9 -13 9 -16 9 C-16 8.34 -16 7.68 -16 7 C-13.3789879 5.80293183 -10.75385304 4.61711354 -8.125 3.4375 C-7.00544922 2.92413086 -7.00544922 2.92413086 -5.86328125 2.40039062 C-3.93450668 1.54026143 -1.9688967 0.76383202 0 0 Z " fill="currentColor" transform="translate(533,286)"/>
  <path d="M0 0 C0.95261719 0.15984375 1.90523437 0.3196875 2.88671875 0.484375 C5.3125 1.25 5.3125 1.25 7.3125 4.25 C1.17095775 3.66509121 -4.69429849 2.70933748 -10.6875 1.25 C-10.6875 0.92 -10.6875 0.59 -10.6875 0.25 C-6.84218667 -0.73058992 -3.89786806 -0.70193531 0 0 Z " fill="currentColor" transform="translate(576.6875,761.75)"/>
  <path d="M0 0 C0.33 0.66 0.66 1.32 1 2 C0.04880472 3.83444804 -0.90537773 5.66741225 -1.875 7.4921875 C-3.9483547 12.11404069 -4.91517527 17.06897849 -6 22 C-6.33 22 -6.66 22 -7 22 C-8.1805666 13.56738139 -3.93480979 7.14689941 0 0 Z " fill="currentColor" transform="translate(508,441)"/>
  <path d="M0 0 C0.33 0.66 0.66 1.32 1 2 C1.66 2.33 2.32 2.66 3 3 C2.2884375 4.4540625 2.2884375 4.4540625 1.5625 5.9375 C-0.28852999 10.19836149 -0.69751593 14.40015606 -1 19 C-4.45984351 12.8787384 -1.69199271 6.42957229 0 0 Z " fill="currentColor" transform="translate(567,535)"/>
  <path d="M0 0 C-0.99 0 -1.98 0 -3 0 C-3 0.66 -3 1.32 -3 2 C-8.45461169 3.38529821 -13.36718401 4.2396943 -19 4 C-18.67 3.34 -18.34 2.68 -18 2 C-15.34765625 1.40234375 -15.34765625 1.40234375 -12.0625 0.9375 C-1.80574188 -0.54172257 -1.80574188 -0.54172257 0 0 Z " fill="currentColor" transform="translate(679,742)"/>
  <path d="M0 0 C0.99 0.33 1.98 0.66 3 1 C3.72455635 2.64232772 4.37774395 4.31624835 5 6 C5.69470655 7.17483192 6.4039005 8.34118046 7.125 9.5 C8.91384721 12.83918146 9.44511978 14.32776178 9 18 C4.51105331 12.38881664 1.69470353 6.92003942 0 0 Z " fill="currentColor" transform="translate(571,605)"/>
  <path d="M0 0 C-5.61 2.64 -11.22 5.28 -17 8 C-17.66 7.34 -18.32 6.68 -19 6 C-18.41992188 5.74605469 -17.83984375 5.49210938 -17.2421875 5.23046875 C-16.46101562 4.88628906 -15.67984375 4.54210937 -14.875 4.1875 C-14.05386719 3.8265625 -13.23273437 3.465625 -12.38671875 3.09375 C-10.44810269 2.20534984 -8.5582475 1.21111655 -6.6875 0.1875 C-4 -1 -4 -1 0 0 Z " fill="currentColor" transform="translate(738,721)"/>
  <path d="M0 0 C0.99 0.33 1.98 0.66 3 1 C3.66 6.28 4.32 11.56 5 17 C4.34 17 3.68 17 3 17 C2.01 11.39 1.02 5.78 0 0 Z " fill="currentColor" transform="translate(872,473)"/>
  <path d="M0 0 C7.23820173 0.34467627 11.91590189 2.10214991 18 6 C14.14279074 7.28573642 13.15497623 6.41793292 9.5625 4.6875 C8.61503906 4.23761719 7.66757812 3.78773438 6.69140625 3.32421875 C4.45653417 2.22462277 2.22461084 1.12019411 0 0 Z " fill="currentColor" transform="translate(796,358)"/>
  <path d="M0 0 C0.66 0.33 1.32 0.66 2 1 C2 5.29 2 9.58 2 14 C1.34 14 0.68 14 0 14 C-0.19393875 11.85473901 -0.37998676 9.70876323 -0.5625 7.5625 C-0.71912109 5.77005859 -0.71912109 5.77005859 -0.87890625 3.94140625 C-0.91886719 2.97074219 -0.95882812 2.00007813 -1 1 C-0.67 0.67 -0.34 0.34 0 0 Z " fill="currentColor" transform="translate(831,392)"/>
  <path d="M0 0 C2.58361518 -0.05407567 5.16609255 -0.093707 7.75 -0.125 C8.84441406 -0.15013672 8.84441406 -0.15013672 9.9609375 -0.17578125 C13.8044624 -0.21072239 16.74606772 -0.17499684 20 2 C17.6739143 2.38063221 15.33944736 2.71269945 13 3 C12.67 2.67 12.34 2.34 12 2 C9.98405418 1.76572222 7.961526 1.58663876 5.9375 1.4375 C4.83277344 1.35371094 3.72804688 1.26992188 2.58984375 1.18359375 C1.73519531 1.12300781 0.88054688 1.06242187 0 1 C0 0.67 0 0.34 0 0 Z " fill="currentColor" transform="translate(550,376)"/>
  <path d="M0 0 C0.99 0.33 1.98 0.66 3 1 C-1.455 6.94 -1.455 6.94 -6 13 C-6.33 12.01 -6.66 11.02 -7 10 C-5.1875 6.8125 -5.1875 6.8125 -3 4 C-2.34 4 -1.68 4 -1 4 C-0.67 2.68 -0.34 1.36 0 0 Z " fill="currentColor" transform="translate(707,575)"/>
  <path d="M0 0 C0 3 0 3 -1.75 4.82421875 C-2.4925 5.43910156 -3.235 6.05398438 -4 6.6875 C-4.7425 7.31011719 -5.485 7.93273437 -6.25 8.57421875 C-6.8275 9.04472656 -7.405 9.51523437 -8 10 C-8.66 9.34 -9.32 8.68 -10 8 C-6.7 5.36 -3.4 2.72 0 0 Z " fill="currentColor" transform="translate(498,393)"/>
  <path d="M0 0 C0.66 0.66 1.32 1.32 2 2 C-0.07914664 2.70005949 -2.16351586 3.38462244 -4.25 4.0625 C-5.41015625 4.44535156 -6.5703125 4.82820313 -7.765625 5.22265625 C-10.80077085 5.95211763 -12.15703213 6.11889082 -15 5 C-13.43979133 4.34865075 -11.87671421 3.70417036 -10.3125 3.0625 C-9.44238281 2.70285156 -8.57226562 2.34320313 -7.67578125 1.97265625 C-5.08148429 1.02961984 -2.74647156 0.29476611 0 0 Z " fill="currentColor" transform="translate(572,295)"/>
  <path d="M0 0 C6.32278971 0.32626495 11.55464391 0.61504892 17 4 C13.02623171 5.56393356 10.18622097 4.36145292 6.25 3.0625 C4.49429688 2.49208984 4.49429688 2.49208984 2.703125 1.91015625 C1.81109375 1.60980469 0.9190625 1.30945313 0 1 C0 0.67 0 0.34 0 0 Z " fill="currentColor" transform="translate(549,757)"/>
  <path d="M0 0 C0.99 0 1.98 0 3 0 C3 0.66 3 1.32 3 2 C5.65228812 3.07525194 8.28368454 4.09456151 11 5 C11.33 5.99 11.66 6.98 12 8 C7.39571066 6.68448876 3.81679612 4.90803514 0 2 C0 1.34 0 0.68 0 0 Z " fill="currentColor" transform="translate(605,714)"/>
  <path d="M0 0 C1.98567708 0.5859375 3.97135417 1.171875 5.95703125 1.7578125 C5.95703125 2.4178125 5.95703125 3.0778125 5.95703125 3.7578125 C6.94703125 4.0878125 7.93703125 4.4178125 8.95703125 4.7578125 C4.08806822 4.16161295 -0.37087826 3.18804428 -5.04296875 1.7578125 C-2.04296875 -0.2421875 -2.04296875 -0.2421875 0 0 Z " fill="currentColor" transform="translate(670.04296875,292.2421875)"/>
  <path d="M0 0 C2.64 0 5.28 0 8 0 C8 0.99 8 1.98 8 3 C5.36 3.33 2.72 3.66 0 4 C0 2.68 0 1.36 0 0 Z " fill="currentColor" transform="translate(459,488)"/>
  <path d="M0 0 C2.29141286 -0.05384521 4.58318188 -0.09272087 6.875 -0.125 C8.78925781 -0.15980469 8.78925781 -0.15980469 10.7421875 -0.1953125 C14 0 14 0 16 2 C10.31150252 3.49697302 5.58190932 2.3348044 0 1 C0 0.67 0 0.34 0 0 Z " fill="currentColor" transform="translate(648,271)"/>
  <path d="M0 0 C5.61 0 11.22 0 17 0 C17 0.33 17 0.66 17 1 C12.38 1 7.76 1 3 1 C3 1.66 3 2.32 3 3 C2.01 3 1.02 3 0 3 C0 2.01 0 1.02 0 0 Z " fill="#000000" transform="translate(846,894)"/>
  <path d="M0 0 C1.125 3.75 1.125 3.75 0 6 C-0.66 6 -1.32 6 -2 6 C-2.66 7.98 -3.32 9.96 -4 12 C-4.66 12 -5.32 12 -6 12 C-4.43358249 7.69235185 -2.31663844 3.93828536 0 0 Z " fill="currentColor" transform="translate(594,486)"/>
  <path d="M0 0 C-7.71428571 4 -7.71428571 4 -12 4 C-12 3.34 -12 2.68 -12 2 C-7.82262526 0.40861915 -4.46839215 -0.21278058 0 0 Z " fill="currentColor" transform="translate(717,753)"/>
  <path d="M0 0 C-1 3 -1 3 -2.6875 4.1875 C-5.54969093 5.19313465 -7.98827908 5.13689641 -11 5 C-9.70976282 2.41952564 -8.72910609 2.32977036 -6.0625 1.375 C-5.35222656 1.11460937 -4.64195312 0.85421875 -3.91015625 0.5859375 C-2 0 -2 0 0 0 Z " fill="currentColor" transform="translate(719,728)"/>
  <path d="M0 0 C5.4185766 -0.22577402 9.77487721 0.53329887 15 2 C12 4 12 4 9.08203125 3.5390625 C8.00308594 3.23742187 6.92414062 2.93578125 5.8125 2.625 C4.72582031 2.32851563 3.63914062 2.03203125 2.51953125 1.7265625 C1.68808594 1.48679687 0.85664062 1.24703125 0 1 C0 0.67 0 0.34 0 0 Z " fill="currentColor" transform="translate(571,378)"/>
  <path d="M0 0 C2.97595467 2.55081829 4.44002566 5.43434437 6 9 C6 9.99 6 10.98 6 12 C5.34 12 4.68 12 4 12 C3.32645501 10.56570999 2.66140299 9.12742943 2 7.6875 C1.443125 6.48673828 1.443125 6.48673828 0.875 5.26171875 C0 3 0 3 0 0 Z " fill="currentColor" transform="translate(825,376)"/>
  <path d="M0 0 C5.445 1.485 5.445 1.485 11 3 C7 5 7 5 3.25 4.125 C2.1775 3.75375 1.105 3.3825 0 3 C0 2.01 0 1.02 0 0 Z " fill="currentColor" transform="translate(700,279)"/>
  <path d="M0 0 C3 3 3 3 3.07421875 6.57421875 C2.96149977 7.94673808 2.83199844 9.31796172 2.6875 10.6875 C2.62626953 11.38939453 2.56503906 12.09128906 2.50195312 12.81445312 C2.34897376 14.5442967 2.17637398 16.27238497 2 18 C1.67 18 1.34 18 1 18 C0.67 12.06 0.34 6.12 0 0 Z " fill="#000000" transform="translate(385,891)"/>
  <path d="M0 0 C0.66 0.33 1.32 0.66 2 1 C0.35 2.98 -1.3 4.96 -3 7 C-4.32 6.67 -5.64 6.34 -7 6 C-4.69 4.02 -2.38 2.04 0 0 Z " fill="currentColor" transform="translate(775,692)"/>
  <path d="M0 0 C1 2 1 2 0.25 5.5625 C-0.1625 6.696875 -0.575 7.83125 -1 9 C-1.99 9.33 -2.98 9.66 -4 10 C-3.5205537 5.78087253 -2.83374881 3.20336822 0 0 Z " fill="currentColor" transform="translate(466,433)"/>
  <path d="M0 0 C4.29238623 1.65091778 6.8793915 4.73754566 10 8 C9.67 8.66 9.34 9.32 9 10 C7.68113228 8.90344712 6.37009943 7.79746577 5.0625 6.6875 C4.33160156 6.07261719 3.60070312 5.45773437 2.84765625 4.82421875 C1 3 1 3 0 0 Z " fill="currentColor" transform="translate(815,366)"/>
  <path d="M0 0 C1.485 0.99 1.485 0.99 3 2 C3.51171875 4.6015625 3.51171875 4.6015625 3.6875 7.625 C3.75324219 8.62789063 3.81898438 9.63078125 3.88671875 10.6640625 C3.92410156 11.43492187 3.96148438 12.20578125 4 13 C2.42445965 10.11371599 1.53723627 7.46657616 0.875 4.25 C0.70742188 3.45078125 0.53984375 2.6515625 0.3671875 1.828125 C0.24601563 1.22484375 0.12484375 0.6215625 0 0 Z " fill="currentColor" transform="translate(868,454)"/>
  <path d="M0 0 C2.86724686 0.57344937 3.8614515 0.8614515 6 3 C6.1953125 5.1640625 6.1953125 5.1640625 6.125 7.625 C6.10695313 8.44226563 6.08890625 9.25953125 6.0703125 10.1015625 C6.03550781 11.04128906 6.03550781 11.04128906 6 12 C5.67 12 5.34 12 5 12 C4.97421875 11.37351562 4.9484375 10.74703125 4.921875 10.1015625 C4.86515625 9.28429687 4.8084375 8.46703125 4.75 7.625 C4.70359375 6.81289063 4.6571875 6.00078125 4.609375 5.1640625 C4.2077908 2.81161073 4.2077908 2.81161073 1.953125 1.7109375 C1.30859375 1.47632813 0.6640625 1.24171875 0 1 C0 0.67 0 0.34 0 0 Z " fill="currentColor" transform="translate(748,301)"/>
  <path d="M0 0 C3.4375 0.8125 3.4375 0.8125 7 2 C7.33 2.99 7.66 3.98 8 5 C5.03 4.01 2.06 3.02 -1 2 C-0.67 1.34 -0.34 0.68 0 0 Z " fill="currentColor" transform="translate(529,748)"/>
  <path d="M0 0 C3.15133488 1.83827868 6.11964908 3.75972706 9 6 C8.67 6.66 8.34 7.32 8 8 C6.66102417 7.04956626 5.32894573 6.08940853 4 5.125 C3.2575 4.59132813 2.515 4.05765625 1.75 3.5078125 C1.1725 3.01023437 0.595 2.51265625 0 2 C0 1.34 0 0.68 0 0 Z " fill="currentColor" transform="translate(489,701)"/>
  <path d="M0 0 C3 1 3 1 4.203125 2.77734375 C4.54859375 3.49019531 4.8940625 4.20304687 5.25 4.9375 C5.78367187 6.00291016 5.78367187 6.00291016 6.328125 7.08984375 C6.54984375 7.72019531 6.7715625 8.35054688 7 9 C6.67 9.66 6.34 10.32 6 11 C4.9944239 9.54550599 3.99569565 8.08627557 3 6.625 C2.443125 5.81289063 1.88625 5.00078125 1.3125 4.1640625 C0 2 0 2 0 0 Z " fill="currentColor" transform="translate(588,434)"/>
  <path d="M0 0 C2.63249349 2.45699392 4.78137264 4.56568654 6 8 C5.67 8.99 5.34 9.98 5 11 C4.731875 10.030625 4.46375 9.06125 4.1875 8.0625 C3.795625 7.051875 3.40375 6.04125 3 5 C2.01 4.67 1.02 4.34 0 4 C0 2.68 0 1.36 0 0 Z " fill="currentColor" transform="translate(627,413)"/>
  <path d="M0 0 C0.33 0.99 0.66 1.98 1 3 C-0.65 4.32 -2.3 5.64 -4 7 C-4 4 -4 4 -2 1.8125 C-1.34 1.214375 -0.68 0.61625 0 0 Z " fill="currentColor" transform="translate(459,332)"/>
  <path d="M0 0 C2.9375 0.8125 2.9375 0.8125 6 2 C6.33 2.99 6.66 3.98 7 5 C4.03 4.01 1.06 3.02 -2 2 C-1.34 1.34 -0.68 0.68 0 0 Z " fill="currentColor" transform="translate(714,306)"/>
  <path d="M0 0 C3.63 0 7.26 0 11 0 C7.83759418 2.10827055 6.49342531 2.33817465 2.8125 2.625 C1.46091797 2.73714844 1.46091797 2.73714844 0.08203125 2.8515625 C-0.94857422 2.92503906 -0.94857422 2.92503906 -2 3 C-1.34 2.67 -0.68 2.34 0 2 C0 1.34 0 0.68 0 0 Z " fill="currentColor" transform="translate(574,295)"/>
  <path d="M0 0 C1.46726798 3.81489674 0.43336419 6.29011622 -1 10 C-1.33 10 -1.66 10 -2 10 C-2 7.36 -2 4.72 -2 2 C-1.34 2 -0.68 2 0 2 C0 1.34 0 0.68 0 0 Z " fill="currentColor" transform="translate(503,453)"/>
  <path d="M0 0 C0.33 0.66 0.66 1.32 1 2 C-0.65 4.31 -2.3 6.62 -4 9 C-4.33 8.01 -4.66 7.02 -5 6 C-3.59554165 3.7363436 -1.8032087 1.9791315 0 0 Z " fill="currentColor" transform="translate(814,435)"/>
  <path d="M0 0 C0.33 0 0.66 0 1 0 C1.125 3.375 1.125 3.375 1 7 C0.34 7.66 -0.32 8.32 -1 9 C-1.80967438 6.08517222 -2.21845993 4.53886783 -1.0625 1.6875 C-0.711875 1.130625 -0.36125 0.57375 0 0 Z " fill="currentColor" transform="translate(734,411)"/>
</svg>
